<svg xmlns="http://www.w3.org/2000/svg" width="723.324" height="444.198"><defs><clipPath id="a" clipPathUnits="userSpaceOnUse"><path d="M-413 378.3H867v-800H-413Z"/></clipPath><clipPath id="b" clipPathUnits="userSpaceOnUse"><path d="M-516 351.225H764v-800H-516Z"/></clipPath><clipPath id="c" clipPathUnits="userSpaceOnUse"><path d="M-555.999 409.807h1280v-800h-1280Z"/></clipPath><clipPath id="d" clipPathUnits="userSpaceOnUse"><path d="M-786.043 375.395h1280v-800h-1280Z"/></clipPath><clipPath id="e" clipPathUnits="userSpaceOnUse"><path d="M-831.877 432.353h1280v-800h-1280Z"/></clipPath><clipPath id="f" clipPathUnits="userSpaceOnUse"><path d="M-693.474 389.822h1280v-800h-1280Z"/></clipPath><clipPath id="g" clipPathUnits="userSpaceOnUse"><path d="M-682.953 380.552h1280v-800h-1280Z"/></clipPath><clipPath id="h" clipPathUnits="userSpaceOnUse"><path d="M-730.162 436.667h1280v-800h-1280Z"/></clipPath><clipPath id="i" clipPathUnits="userSpaceOnUse"><path d="M-680 463.373H600v-800H-680Z"/></clipPath><clipPath id="j" clipPathUnits="userSpaceOnUse"><path d="M-502.657 333.777h1280v-800h-1280Z"/></clipPath><clipPath id="k" clipPathUnits="userSpaceOnUse"><path d="M-484.683 484.58h1280v-800h-1280Z"/></clipPath><clipPath id="l" clipPathUnits="userSpaceOnUse"><path d="M-553.262 489.373h1280v-800h-1280Z"/></clipPath><clipPath id="m" clipPathUnits="userSpaceOnUse"><path d="M-580.657 484.58h1280v-800h-1280Z"/></clipPath><clipPath id="n" clipPathUnits="userSpaceOnUse"><path d="M0 800h1280V0H0Z"/></clipPath><clipPath id="o" clipPathUnits="userSpaceOnUse"><path d="M-657.354 489.373h1280v-800h-1280Z"/></clipPath><clipPath id="p" clipPathUnits="userSpaceOnUse"><path d="M-690.472 489.373h1280v-800h-1280Z"/></clipPath><clipPath id="q" clipPathUnits="userSpaceOnUse"><path d="M-753.074 488.583h1280v-800h-1280Z"/></clipPath><clipPath id="r" clipPathUnits="userSpaceOnUse"><path d="M-780.132 484.58h1280v-800h-1280Z"/></clipPath><clipPath id="s" clipPathUnits="userSpaceOnUse"><path d="M-813.871 502.285h1280v-800h-1280Z"/></clipPath><clipPath id="t" clipPathUnits="userSpaceOnUse"><path d="M-848.37 484.58h1280v-800h-1280Z"/></clipPath><clipPath id="u" clipPathUnits="userSpaceOnUse"><path d="M-888.847 495.349h1280v-800h-1280Z"/></clipPath></defs><path d="M0 0c4 2.343 9.774 3.905 15.047 3.905C27.154 3.905 34-1.953 34-13.475v-63.044c7.688 6.021 16.913 10.167 27 11.72V-8.24c0 23.043-14.194 35.541-38.995 35.541C14.194 27.301 6 25.348 0 22.419v48.242l-27-15.577v-91.91A58.3 58.3 0 0 0 0-51.989z" clip-path="url(#a)" style="fill:#e60000;fill-opacity:1;fill-rule:nonzero;stroke:none" transform="matrix(1.33333 0 0 -1.33333 60.571 181.348)"/><path d="m0 0-27-15.576v-75.926a58 58 0 0 0 27-9.946z" clip-path="url(#b)" style="fill:#e60000;fill-opacity:1;fill-rule:nonzero;stroke:none" transform="matrix(1.33333 0 0 -1.33333 197.905 145.246)"/><path d="M0 0c0 19.917 8.943 33.807 25.542 33.807h.04c4.686 0 10.419-1.025 12.419-2v-43.62a65 65 0 0 0 23.6 4.419c.805 0 1.602-.032 2.4-.06v109.858l-26-15.691V56.658c-4 1.172-9.529 2.149-15.192 2.149-32.222 0-49.289-21.872-49.289-54.288 0-24.706 9.564-43.771 27.7-52.444a65.3 65.3 0 0 0 11.653 18.664C4.511-24.749 0-14.946 0 0" clip-path="url(#c)" style="fill:#e60000;fill-opacity:1;fill-rule:nonzero;stroke:none" transform="matrix(1.33333 0 0 -1.33333 251.237 223.356)"/><path d="M0 0c4.297 0 8.474-.586 11.794-1.562l4.823 25.067c-3.515.586-8.217.976-13.683.976-16.991 0-31.977-3.32-42.977-7.616v-80.72c11.336-3.797 20.879-11.544 27-21.634v83.342C-10.043-.781-4.881 0 0 0" clip-path="url(#d)" style="fill:#e60000;fill-opacity:1;fill-rule:nonzero;stroke:none" transform="matrix(1.33333 0 0 -1.33333 557.962 177.474)"/><path d="M0 0a16 16 0 0 0-.516 4.061c0 15.817 17.639 16.575 36.639 17.551V1.971c9.508-2.53 18.054-7.4 25-13.954v55.928c0 26.949-14.793 37.494-41.742 37.494-15.233 0-30.146-3.906-38.935-7.616l6.306-19.569c7.42 3.124 19.806 5.852 29.765 5.852 12.107 0 19.606-4.1 19.606-15.037v-4.467c-32-1.758-61.56-8.421-61.56-37.127 0-6.688 1.517-12.503 4.56-17.343A58.4 58.4 0 0 0 0 0" clip-path="url(#e)" style="fill:#e60000;fill-opacity:1;fill-rule:nonzero;stroke:none" transform="matrix(1.33333 0 0 -1.33333 619.074 253.418)"/><path d="M0 0c-10.063 5.811-22.934 2.363-28.745-7.701-5.811-10.066-2.362-22.935 7.702-28.745a20.96 20.96 0 0 1 10.522-2.823c7.265.007 14.329 3.78 18.223 10.525 3.894 6.744 3.63 14.747.003 21.043A20.95 20.95 0 0 1 0 0" clip-path="url(#f)" style="fill:#e60000;fill-opacity:1;fill-rule:nonzero;stroke:none" transform="matrix(1.33333 0 0 -1.33333 434.536 196.71)"/><path d="M0 0a27.36 27.36 0 0 0 13.745-3.687 27.4 27.4 0 0 0 8.353-7.448L46.489 2.979.02 29.812.001 29.8-46.497 2.937l24.393-14.084C-16.812-3.974-8.513-.009 0 0" clip-path="url(#g)" style="fill:#e60000;fill-opacity:1;fill-rule:nonzero;stroke:none" transform="matrix(1.33333 0 0 -1.33333 420.509 184.35)"/><path d="M0 0c.739 0 1.474-.024 2.205-.056l.068.039.078 53.748-24.446-14.127a27.45 27.45 0 0 0-1.423-24.729c-4.5-7.791-11.644-12.543-20.644-13.545v-27.866C-35.686-10.735-19.09 0 0 0" clip-path="url(#h)" style="fill:#e60000;fill-opacity:1;fill-rule:nonzero;stroke:none" transform="matrix(1.33333 0 0 -1.33333 483.454 259.17)"/><path d="M0 0v27.989c-4 .395-7.373 1.548-10.806 3.532a27.3 27.3 0 0 0-10.052 10.06c-4.249 7.376-4.965 16.548-1.397 24.717l-24.559 14.083-.125-36.068C-24.547 38.869-6.678 21.882 0 0" clip-path="url(#i)" style="fill:#e60000;fill-opacity:1;fill-rule:nonzero;stroke:none" transform="matrix(1.33333 0 0 -1.33333 416.571 294.777)"/><path d="M0 0c7.333 0 13.279 5.945 13.279 13.279S7.333 26.559 0 26.559s-13.279-5.946-13.279-13.28S-7.334 0 0 0" clip-path="url(#j)" style="fill:#e60000;fill-opacity:1;fill-rule:nonzero;stroke:none" transform="matrix(1.33333 0 0 -1.33333 180.113 121.983)"/><path d="M0 0v-3.947h-4.285v-4.539h3.862v-3.947h-3.862v-8.824h-4.201V0Z" style="fill:gray;fill-opacity:1;fill-rule:nonzero;stroke:none" transform="matrix(1.33333 0 0 -1.33333 35.888 323.054)"/><path d="M0 0v-17.311h4.397v-3.946h-8.598V0Z" style="fill:gray;fill-opacity:1;fill-rule:nonzero;stroke:none" transform="matrix(1.33333 0 0 -1.33333 72.605 323.054)"/><path d="M0 0v-3.947h-4.257V-8.57h3.75v-3.947h-3.75v-4.794H.056v-3.946h-8.514V0Z" style="fill:gray;fill-opacity:1;fill-rule:nonzero;stroke:none" transform="matrix(1.33333 0 0 -1.33333 119.92 323.054)"/><path d="m0 0 1.212-2.96c.367-1.043.789-2.143 1.015-3.242h.057c.225 1.099.563 2.171.958 3.242L4.511 0H9.05L4.511-10.29l4.877-10.967H4.511l-1.353 3.383c-.395 1.071-.649 2.114-.931 3.186h-.056c-.31-1.072-.565-2.115-.93-3.186L0-21.257h-4.737L-.226-10.29-4.737 0Z" clip-path="url(#k)" style="fill:gray;fill-opacity:1;fill-rule:nonzero;stroke:none" transform="matrix(1.33333 0 0 -1.33333 156.149 323.054)"/><path d="M0 0c-.846.733-1.889 1.354-3.045 1.354-1.297 0-2.115-.79-2.115-2.086 0-3.497 6.4-3.693 6.4-9.445 0-3.778-2.17-6.626-6.117-6.626-1.185 0-2.651.366-3.609 1.072v4.002c.986-.676 1.945-1.126 3.186-1.126 1.353 0 2.424.902 2.424 2.312 0 1.634-1.297 2.255-2.48 3.101-2.426 1.635-3.92 3.213-3.92 6.315 0 3.355 1.945 6.259 5.554 6.259 1.353 0 2.566-.366 3.722-1.043z" clip-path="url(#l)" style="fill:gray;fill-opacity:1;fill-rule:nonzero;stroke:none" transform="matrix(1.33333 0 0 -1.33333 247.587 329.444)"/><path d="m0 0 1.804-10.149c.254-1.494.31-3.017.451-4.511h.057c.197 1.494.31 3.017.62 4.511L5.046 0h3.328l2.706-14.66h.056c.141 1.494.169 2.961.423 4.454L13.222 0h4.399l-4.399-21.257H9.585l-2.17 11.22c-.142 1.298-.395 2.595-.593 3.891h-.056c-.225-1.296-.367-2.593-.677-3.891l-2.424-11.22H0L-4.285 0Z" clip-path="url(#m)" style="fill:gray;fill-opacity:1;fill-rule:nonzero;stroke:none" transform="matrix(1.33333 0 0 -1.33333 284.114 323.054)"/><path d="M624.91 294.163h-4.201v21.257h4.201z" clip-path="url(#n)" style="fill:gray;fill-opacity:1;fill-rule:nonzero;stroke:none" transform="matrix(1.33333 0 0 -1.33333 -490.095 743.613)"/><path d="M0 0c-.847.733-1.89 1.354-3.045 1.354-1.297 0-2.114-.79-2.114-2.086 0-3.497 6.399-3.693 6.399-9.445 0-3.778-2.171-6.626-6.118-6.626-1.184 0-2.649.366-3.608 1.072v4.002c.986-.676 1.945-1.126 3.185-1.126 1.354 0 2.425.902 2.425 2.312 0 1.634-1.297 2.255-2.481 3.101-2.424 1.635-3.918 3.213-3.918 6.315 0 3.355 1.945 6.259 5.553 6.259 1.354 0 2.566-.366 3.722-1.043z" clip-path="url(#o)" style="fill:gray;fill-opacity:1;fill-rule:nonzero;stroke:none" transform="matrix(1.33333 0 0 -1.33333 386.376 329.444)"/><path d="M0 0c-.846.733-1.889 1.354-3.044 1.354-1.297 0-2.115-.79-2.115-2.086 0-3.497 6.4-3.693 6.4-9.445 0-3.778-2.172-6.626-6.118-6.626-1.184 0-2.65.366-3.608 1.072v4.002c.986-.676 1.945-1.126 3.184-1.126 1.355 0 2.425.902 2.425 2.312 0 1.634-1.296 2.255-2.48 3.101-2.424 1.635-3.919 3.213-3.919 6.315 0 3.355 1.945 6.259 5.553 6.259 1.355 0 2.567-.366 3.722-1.043z" clip-path="url(#p)" style="fill:gray;fill-opacity:1;fill-rule:nonzero;stroke:none" transform="matrix(1.33333 0 0 -1.33333 430.533 329.444)"/><path d="M0 0a6 6 0 0 1-1.578.226c-3.693 0-5.301-3.355-5.301-6.626 0-3.157 1.608-7.048 5.273-7.048.535 0 1.071.14 1.606.31v-3.975a5.1 5.1 0 0 0-1.945-.366c-6.061 0-9.416 5.469-9.416 11.051 0 5.272 3.496 10.685 9.218 10.685.734 0 1.439-.142 2.143-.394z" clip-path="url(#q)" style="fill:gray;fill-opacity:1;fill-rule:nonzero;stroke:none" transform="matrix(1.33333 0 0 -1.33333 514.003 328.39)"/><path d="M0 0v-17.311h4.398v-3.946H-4.2V0Z" clip-path="url(#r)" style="fill:gray;fill-opacity:1;fill-rule:nonzero;stroke:none" transform="matrix(1.33333 0 0 -1.33333 550.08 323.054)"/><path d="M0 0c2.791 0 2.988 5.385 2.988 7.077 0 1.889-.197 7.075-2.988 7.075s-2.988-5.186-2.988-7.075C-2.988 5.385-2.791 0 0 0m7.471 7.077C7.471-.902 3.75-3.891 0-3.891S-7.471-.902-7.471 7.077-3.75 18.044 0 18.044s7.471-2.988 7.471-10.967" clip-path="url(#s)" style="fill:gray;fill-opacity:1;fill-rule:nonzero;stroke:none" transform="matrix(1.33333 0 0 -1.33333 595.066 346.66)"/><path d="M0 0v-13.758c0-1.606-.197-4.031 2.086-4.031 2.059 0 2.059 1.551 2.087 3.129V0h4.2v-15.506c0-2.255-.254-6.09-6.315-6.09-3.919 0-6.258 1.833-6.258 5.808V0Z" clip-path="url(#t)" style="fill:gray;fill-opacity:1;fill-rule:nonzero;stroke:none" transform="matrix(1.33333 0 0 -1.33333 641.065 323.054)"/><path d="M0 0c0 2.706-.846 6.991-4.313 6.991V-6.711C-.931-6.88 0-2.65 0 0m-8.514-10.488v21.257h3.185c.733 0 9.53 1.072 9.53-10.797 0-6.063-2.341-10.46-8.966-10.46z" clip-path="url(#u)" style="fill:gray;fill-opacity:1;fill-rule:nonzero;stroke:none" transform="matrix(1.33333 0 0 -1.33333 695.033 337.412)"/></svg>