<svg xmlns="http://www.w3.org/2000/svg" width="305" height="97" fill="none"><path fill="#010100" d="M81.698 79.893h2.08l-.143 16.772h-2.08zm2.008 8.237 8.333-8.584 1.458 1.28-7.196 7.244 7.244 7.543L91.967 97zm22.762 7.997c-.681.538-1.411.873-2.259.873-1.088 0-1.698-.992-1.794-2.008-.92 1.135-2.08 2.008-3.634 2.008-2.128 0-3.49-1.459-3.49-3.49 0-3.42 4.41-4.22 7.053-4.316a32 32 0 0 0 .047-1.53c0-1.04-.561-1.818-1.841-1.818-.944 0-1.721.335-3.49 1.674l-.801-1.255c2.427-1.578 3.204-2.009 4.949-2.009 2.008 0 3.024 1.184 3.024 3.049 0 2.283-.191 4.387-.191 6.515 0 .873.12 1.722.873 1.722.418 0 .705-.192 1.016-.407zm-4.124-5.762c-3.372.43-5.117 1.064-5.117 3.12 0 1.351.825 2.057 2.164 2.057 1.183 0 2.104-.85 2.857-1.77l.096-3.419zm6.037-5.774h1.936l-.071 1.937h.048c1.016-1.459 2.665-2.283 4.1-2.283 2.785 0 3.682 1.434 3.682 3.658 0 .92-.024 1.84-.024 2.761l-.048 5.99h-1.936l.047-5.428c0-1.064.024-2.128.024-3.323 0-1.315-.872-1.913-2.199-1.913-1.256 0-2.379.73-3.611 2.236l-.095 8.427h-1.937l.096-12.074zm14.154-.001.048-4.458h1.937l-.048 4.459h3.299v1.458h-3.323l-.048 4.938c-.024 1.35-.024 2.247-.024 2.857 0 .992.287 1.554 1.112 1.554.657 0 1.482-.406 1.937-.705l.633 1.255c-.801.538-1.96 1.04-3.024 1.04-1.865 0-2.594-1.16-2.594-3.084 0-.801 0-1.794.023-3.467l.048-4.412h-2.056v-1.458h2.08zm12.301-.334c3.539 0 5.643 2.427 5.643 6.372 0 3.12-2.056 6.372-5.894 6.372-3.538 0-5.642-2.403-5.642-6.372 0-3.132 2.056-6.372 5.881-6.372zm-.215 11.285c1.817 0 3.778-1.578 3.778-4.913s-1.626-4.913-3.587-4.913c-1.817 0-3.777 1.578-3.777 4.913s1.626 4.913 3.586 4.913m8.775-10.95h1.937l-.072 1.937h.048c1.016-1.459 2.666-2.283 4.1-2.283 2.786 0 3.682 1.434 3.682 3.658 0 .92-.024 1.84-.024 2.761l-.048 5.99h-1.936l.048-5.428c0-1.064.024-2.128.024-3.323 0-1.315-.873-1.913-2.2-1.913-1.255 0-2.379.73-3.61 2.236l-.096 8.427h-1.937l.096-12.074zm20.442-4.698h4.651c3.682 0 4.949 2.176 4.949 4.077 0 2.056-1.04 3.37-2.953 3.897v.048c2.104.394 3.347 1.96 3.347 4.1 0 2.977-2.127 4.65-5.427 4.65h-4.698l.143-16.772zm1.961 15.17h2.451c2.128 0 3.49-.944 3.49-3.251 0-2.032-1.458-3.096-3.873-3.096h-1.96l-.096 6.348zm.096-7.95h1.578c2.761 0 3.873-1.183 3.873-2.88 0-1.865-1.064-2.882-3.73-2.882h-1.674zm12.289 3.252v.407c0 2.522.945 4.77 3.419 4.77 1.375 0 2.403-.801 3.443-1.746l.945 1.04c-1.232 1.243-2.81 2.164-4.603 2.164-3.347 0-5.284-2.427-5.284-6.372 0-3.323 2.271-6.372 5.523-6.372s4.65 2.475 4.65 5.715v.394zm6.157-1.315c0-1.721-.729-3.347-2.69-3.347-1.817 0-2.977 1.697-3.3 3.347zm4.853-4.459h1.985l-.024 2.343.048.048c.418-1.088 1.601-2.737 3.347-2.737a3.1 3.1 0 0 1 1.04.167l-.586 1.841c-.191-.048-.49-.12-.753-.12-.801 0-2.08.658-3.12 2.595l-.096 7.926h-1.936l.095-12.075zm8.07 0h1.936l-.071 1.937h.047c1.017-1.459 2.666-2.283 4.101-2.283 2.785 0 3.682 1.434 3.682 3.658 0 .92-.024 1.84-.024 2.761l-.048 5.99h-1.937l.048-5.428c0-1.064.024-2.128.024-3.323 0-1.315-.873-1.913-2.199-1.913-1.256 0-2.379.73-3.611 2.236l-.095 8.427h-1.937l.096-12.074z"/><path fill="#e30613" d="M213.08 83.742h12.923v12.923H213.08z"/><path fill="#fff" d="M220.755 88.99h2.821v2.415h-2.821v2.833h-2.427v-2.833h-2.822V88.99h2.822v-2.82h2.427z"/><path fill="#010100" d="M187.987 65.858h-1.889V62.81h1.937c0-4.244 1.303-5.966 5.618-5.966h1.817l-.047 3.049h-.538c-1.626 0-2.642.263-2.642 2.128v.777h3.096v3.048h-3.156l-.096 9.157h-4.22l.096-9.157zm15.146-3.478c4.507 0 6.838 2.857 6.838 6.539s-2.331 6.539-6.838 6.539-6.838-2.857-6.838-6.54c0-3.681 2.331-6.539 6.838-6.539m-4.53-4.603h3.634v3.048h-3.634zm4.53 14.489c2.009 0 2.618-1.746 2.618-3.347 0-1.602-.609-3.348-2.618-3.348s-2.618 1.746-2.618 3.348.61 3.347 2.618 3.347m.897-14.49h3.634v3.05h-3.634zm8.392 5.035h4.22v1.72h.048c.633-1.04 1.458-2.055 3.096-2.055.466 0 .945.047 1.387.143l-.562 4.172c-.418-.12-.873-.239-1.506-.239-1.411 0-2.499 1.184-2.499 1.435l-.072 7.053h-4.22l.096-12.206zm22.391 12.217h-3.993v-.872a5.95 5.95 0 0 1-3.419 1.303c-3.706 0-5.571-3.204-5.571-6.18 0-3.803 2.284-6.91 6.205-6.91.992 0 1.96.238 2.761.657l.048-6.18h4.065l-.096 18.17zm-3.981-8.918c-.43-.478-1.327-.681-1.96-.681-1.961 0-2.834 1.578-2.834 3.443 0 1.65.634 3.096 2.523 3.096.801 0 1.578-.335 2.188-.849l.095-5.02zm18.398 7.531c-1.422 1.22-3.61 1.818-5.547 1.818-4.435 0-6.443-3.156-6.443-6.276 0-3.682 2.761-6.803 6.563-6.803 4.65 0 6.109 3.3 6.109 7.484h-8.452c0 .944.61 2.546 2.929 2.546 1.482 0 2.307-.43 3.443-1.207l1.398 2.45zm-3.096-6.252c0-1.255-.61-2.403-2.008-2.403s-2.343 1.184-2.618 2.403zm6.217-4.578h4.22v1.72h.047c.634-1.04 1.459-2.055 3.097-2.055.466 0 .944.047 1.386.143l-.561 4.172c-.407-.12-.873-.239-1.495-.239-1.41 0-2.498 1.184-2.498 1.435l-.072 7.053h-4.22l.096-12.206zm17.86 0h4.22l-.096 12.205h-4.22v-1.327c-.968.945-2.45 1.77-3.945 1.77-2.594 0-3.993-1.435-3.993-4.77 0-2.499.024-5.189.048-7.878h4.22a697 697 0 0 0-.048 7.244c0 .992.263 1.77 1.531 1.77.681 0 1.649-.586 2.199-1.112l.096-7.902zm7.268 0h4.22v1.326c.969-.944 2.451-1.769 3.957-1.769 2.594 0 3.993 1.435 3.993 4.77 0 2.499-.024 5.188-.048 7.878h-4.22c.024-2.343.048-4.722.048-7.244 0-.993-.263-1.77-1.53-1.77-.681 0-1.65.586-2.212 1.112l-.095 7.902h-4.22l.095-12.205zm27.508 2.81-2.355-.144c.263.514.49 1.04.49 1.602 0 2.522-2.809 3.61-5.117 3.61-.753 0-1.673-.096-1.745-.096s-.323.287-.323.586c0 .478.538.657 1.435.73 2.833.238 6.79.68 6.79 4.315 0 3.634-3.754 4.913-6.814 4.913-2.295 0-6.133-.406-6.133-3.49 0-1.208.992-2.224 2.618-2.906v-.047c-1.745-.359-2.403-.969-2.403-1.913 0-1.459 1.865-2.475 3.049-2.857-1.387-.753-2.2-1.722-2.2-3.324 0-3.048 2.714-4.22 5.404-4.22 1.016 0 2.355.168 3.239.682l4.053-.24v2.81zm-7.292 12.743c1.255 0 2.546-.43 2.546-1.626 0-.873-.753-1.35-3.802-1.626-.872.538-1.279 1.064-1.279 1.674 0 1.231 1.351 1.578 2.547 1.578zm-1.77-11.919c0 .944.682 1.77 1.793 1.77a1.75 1.75 0 0 0 1.77-1.77c0-.968-.801-1.745-1.77-1.745-.968 0-1.793.777-1.793 1.745M175.147 62.81h1.794l.095-4.149h4.077l-.096 4.148h3.467l-.072 3.049h-3.467c0 1.697-.119 3.49-.119 4.53s.263 1.579 1.207 1.579c.586 0 1.064-.287 1.554-.586l.921 2.857c-1.231.753-2.738 1.207-4.172 1.207-3.419 0-3.587-2.151-3.587-4.973 0-1.506.12-3 .12-4.626h-1.817l.095-3.049zm-68.822 1.602c2.104-1.28 3.993-2.033 6.491-2.033 2.247 0 3.73 1.112 3.73 3.443v5.918c0 .466.167.825.705.825.191 0 .383-.048.502-.144l.467 2.307c-.562.43-2.523.754-3.252.754-1.136 0-1.913-.43-2.08-1.34-.945.754-2.26 1.34-3.539 1.34-2.211 0-3.825-1.315-3.825-3.515 0-2.522 1.41-3.467 4.028-4.148.754-.192 1.937-.383 3.073-.49v-.467c0-.968-.562-1.422-1.351-1.422-1.279 0-2.427.777-3.515 1.327zm6.3 4.997c-.168.024-.383.072-.729.095-1.064.072-2.451.61-2.451 1.96 0 .826.801 1.232 1.47 1.232.849 0 1.698-.526 1.698-.8v-2.5zm-18.04-6.599h1.794l.095-4.149h4.065l-.096 4.148h3.467l-.072 3.049h-3.467c0 1.697-.119 3.49-.119 4.53s.263 1.579 1.207 1.579c.586 0 1.064-.287 1.554-.586l.921 2.857c-1.232.753-2.738 1.207-4.172 1.207-3.42 0-3.587-2.151-3.587-4.973 0-1.506.12-3 .12-4.626h-1.817l.095-3.049zm61.686-.43c4.507 0 6.838 2.857 6.838 6.539s-2.331 6.539-6.838 6.539-6.838-2.857-6.838-6.54c0-3.681 2.331-6.539 6.838-6.539m0 9.886c2.009 0 2.618-1.746 2.618-3.347 0-1.602-.609-3.348-2.618-3.348s-2.618 1.746-2.618 3.348.61 3.347 2.618 3.347m8.835-9.455h4.22v1.72h.047c.634-1.04 1.459-2.055 3.097-2.055.466 0 .944.047 1.386.143l-.561 4.172c-.419-.12-.873-.239-1.507-.239-1.41 0-2.498 1.184-2.498 1.423l-.072 7.053h-4.22l.096-12.218zM147.15 75.028h-3.993v-.873a6.1 6.1 0 0 1-3.419 1.315c-3.706 0-5.571-3.204-5.571-6.18 0-3.802 2.283-6.91 6.204-6.91.993 0 1.961.239 2.762.657l.048-6.18h4.076l-.095 18.17zm-3.969-8.919c-.443-.478-1.327-.681-1.961-.681-1.96 0-2.833 1.578-2.833 3.443 0 1.65.634 3.096 2.522 3.096.801 0 1.578-.347 2.176-.849l.096-5.02zm-23.025-3.299h4.22v1.326c.969-.944 2.451-1.769 3.957-1.769 2.594 0 3.993 1.435 3.993 4.77 0 2.499-.024 5.188-.048 7.878h-4.22c.024-2.355.048-4.722.048-7.244 0-.993-.263-1.77-1.53-1.77-.682 0-1.65.586-2.2 1.112l-.095 7.902h-4.22l.095-12.217zm-27.615-1.28c-1.518-.442-2.905-.633-4.196-.633-1.614 0-2.522.634-2.522 1.399 0 1.075 1.41 1.398 3.347 2.33 2.833 1.352 4.136 2.894 4.136 5.344 0 2.894-2.57 5.07-6.922 5.07-1.721 0-3.49-.3-5.343-.885l.67-3.312c1.852.514 3.31.813 4.422.813 1.256 0 2.009-.514 2.009-1.243 0-.514-.203-.933-.586-1.22-.717-.561-1.853-1.028-3.132-1.71-2.08-1.099-3.192-2.773-3.192-4.71 0-3.227 2.498-5.188 7.125-5.188 1.41 0 3.036.275 4.853.813l-.669 3.156z"/><path fill="#e30613" d="M50.126 75.051H0v-7.675h46.958l55.087-54.764 23.945 23.706 23.921-23.706 23.945 23.706L205.919 4.59l5.403 5.464-37.478 37.071-23.933-23.706-23.921 23.706-23.933-23.706z"/><path fill="#e30613" d="m211.298 10.317 1.853 5.284L215.961 0l-15.589 2.81 5.284 1.852"/></svg>