<svg xmlns="http://www.w3.org/2000/svg" width="310" height="81"><g fill="none" fill-rule="evenodd"><path fill="#1E5A96" d="M103.146 36.782h5.08q2.218 0 3.376-1.218 1.16-1.219 1.159-3.135 0-1.954-1.16-3.203-1.157-1.25-3.374-1.249h-5.08v8.805Zm0 5.24v10.054h-6.833V22.738h11.914q5.22 0 8.283 2.67 3.066 2.67 3.065 6.981 0 4.334-3.065 6.984-3.064 2.648-8.283 2.649h-5.08Zm43.38-19.284V41.96q0 5.017-3.337 7.78-3.335 2.758-8.736 2.758-5.462 0-8.81-2.759-3.346-2.761-3.346-7.78v-19.22h6.834V41.96q0 2.701 1.39 4 1.39 1.3 3.932 1.3 2.518 0 3.88-1.29 1.36-1.29 1.36-4.01V22.738zm11.07 24.1h13.365v5.238h-21.75v-3.062l13.122-21.037h-13.182v-5.239h21.63v2.942zm23.882 0h13.365v5.238h-21.749v-3.062l13.122-21.037h-13.183v-5.239h21.63v2.942zm22.754 0h12.638v5.238h-19.473V22.738h6.835zm33.348-7.315h-11.51v7.314h13.565v5.239h-20.398V22.738h20.438v5.24H226.07v6.306h11.51zm22.674 12.553h-6.793V22.738h6.793zm24.798-24.099h-7.74v24.098h-6.834V27.977h-7.68v-5.24h22.254zm24.869 13.803.04.12q-.203 5.159-3.054 7.88-2.854 2.719-8.275 2.718-5.441 0-8.849-3.344-3.407-3.344-3.407-8.684v-6.126q0-5.319 3.277-8.674 3.273-3.355 8.516-3.355 5.562 0 8.504 2.8 2.945 2.801 3.327 7.96l-.04.12h-6.632q-.14-2.86-1.28-4.25t-3.879-1.39q-2.32 0-3.65 1.863-1.33 1.864-1.33 4.886v6.166q0 3.043 1.452 4.916 1.45 1.875 3.991 1.875 2.46 0 3.487-1.311 1.028-1.309 1.168-4.17zM11.72 69.012c-15.628-15.621-15.628-40.948 0-56.57 15.625-15.62 40.962-15.618 56.588 0 15.627 15.623 15.626 40.947 0 56.569-15.627 15.622-40.96 15.623-56.588.001m87.811.116q.71 0 1.249-.437t.539-1.076h1.281l.014.045q.036 1.012-.9 1.801a3.3 3.3 0 0 1-2.183.788q-1.709 0-2.612-1.113-.905-1.115-.905-2.8v-.305q0-1.67.908-2.789.908-1.116 2.61-1.117 1.373 0 2.247.81.871.81.842 1.99l-.014.043h-1.288q0-.716-.507-1.22-.507-.502-1.28-.502-1.124 0-1.603.806-.483.806-.482 1.976v.303q0 1.2.477 1.998.479.8 1.607.8Zm6.156-5.81a2.9 2.9 0 0 1 .995-.878q.59-.315 1.306-.315 1.252 0 1.95.752.7.753.7 2.315v4.905h-1.427v-4.919q0-.97-.416-1.433-.416-.462-1.24-.463-.595 0-1.076.279a2.3 2.3 0 0 0-.792.756v5.78h-1.426V58.811h1.426v4.508Zm9.33 5.73q.775 0 1.397-.396.622-.397.811-.91v-1.268h-1.6q-.86 0-1.379.432-.516.434-.516 1.017 0 .52.325.822.325.303.962.304Zm2.367 1.05a12 12 0 0 1-.112-.626 5 5 0 0 1-.047-.547 3.3 3.3 0 0 1-1.039.944q-.64.38-1.378.38-1.224 0-1.864-.626-.64-.625-.64-1.725 0-1.121.908-1.754.908-.634 2.464-.634h1.549v-.773q0-.687-.42-1.09-.42-.4-1.186-.401-.69 0-1.118.351-.432.351-.432.843h-1.36l-.015-.044q-.044-.853.808-1.562.85-.71 2.196-.709 1.33 0 2.142.677.81.675.81 1.949v3.77q0 .418.044.81.043.39.16.766h-1.47Zm4.572-7.828.1 1.164q.392-.622.981-.965.591-.345 1.343-.344 1.267 0 1.961.741.695.742.695 2.29v4.942h-1.425v-4.913q0-1.036-.409-1.468-.41-.434-1.249-.434-.615 0-1.09.296a2.2 2.2 0 0 0-.755.81v5.709h-1.426V62.27zm8.217 4.21q0 1.179.5 1.896.5.715 1.519.715.645 0 1.078-.292.436-.293.717-.829v-3.602a2.2 2.2 0 0 0-.717-.793q-.44-.292-1.063-.292-1.02 0-1.527.853-.508.854-.507 2.192zm-1.426-.152q0-1.889.825-3.045.825-1.158 2.28-1.158.746 0 1.31.3t.94.865l.174-1.02h1.137v7.87q0 1.505-.876 2.313-.875.805-2.526.805-.564 0-1.22-.154a4.8 4.8 0 0 1-1.153-.424l.361-1.106q.384.216.926.35.544.135 1.071.134 1.043 0 1.517-.474t.474-1.443v-.882a2.5 2.5 0 0 1-.92.74q-.534.251-1.23.25-1.44 0-2.265-1.042-.825-1.041-.825-2.727zm10.203 3.77h-1.426V62.27h1.426zm0-9.833h-1.426v-1.454h1.426zm3.387 2.005.1 1.164q.392-.622.981-.965.59-.345 1.343-.344 1.266 0 1.961.741.695.742.695 2.29v4.942h-1.425v-4.913q0-1.036-.41-1.468-.409-.434-1.248-.434-.615 0-1.09.296a2.2 2.2 0 0 0-.755.81v5.709h-1.426V62.27zm8.217 4.21q0 1.179.5 1.896.5.715 1.52.715.645 0 1.078-.292.435-.293.716-.829v-3.602a2.2 2.2 0 0 0-.716-.793q-.441-.292-1.064-.292-1.021 0-1.526.853-.509.854-.508 2.192zm-1.425-.152q0-1.889.825-3.045.825-1.158 2.28-1.158.744 0 1.31.3.565.3.94.865l.174-1.02h1.136v7.87q0 1.505-.875 2.313-.876.805-2.526.805-.564 0-1.22-.154a4.8 4.8 0 0 1-1.154-.424l.362-1.106q.383.216.926.35.543.135 1.071.134 1.042 0 1.516-.474.475-.474.474-1.443v-.882a2.5 2.5 0 0 1-.919.74q-.535.251-1.23.25-1.44 0-2.265-1.042-.825-1.041-.825-2.727zm14.191 3.77h-1.432V59.564h1.432zm9.785-9.413h-3.387v9.413h-1.426v-9.413h-3.38v-1.121h8.193zm5.557 9.412v-6.771h-1.222v-1.057h1.222v-.99q.001-1.252.656-1.936.654-.684 1.827-.683.246 0 .496.04.249.039.553.111l-.173 1.086a3 3 0 0 0-.314-.05 3 3 0 0 0-.388-.023q-.622 0-.927.373-.303.372-.303 1.081v.991h1.628v1.057h-1.628v6.771zm5.353-3.83q0 1.244.525 2.051.525.81 1.56.81 1.02 0 1.548-.81.528-.807.529-2.051v-.16q0-1.227-.532-2.044t-1.56-.817q-1.02 0-1.545.817t-.525 2.044zm-1.426-.156q0-1.736.941-2.86.94-1.126 2.555-1.126 1.629 0 2.573 1.121.944 1.122.944 2.865v.16q0 1.75-.94 2.864-.942 1.114-2.562 1.114-1.622 0-2.566-1.117-.945-1.119-.945-2.861zm12.446-2.583-.732-.043q-.565 0-.952.268a1.7 1.7 0 0 0-.596.753v5.592h-1.426V62.27h1.274l.137 1.143q.332-.607.822-.949.487-.338 1.125-.339a2 2 0 0 1 .542.079zm6.94-3.147v1.889h1.484v1.056h-1.484v4.753q0 .55.228.774.228.225.605.225.122 0 .27-.03.15-.028.265-.072l.188.976a1.3 1.3 0 0 1-.467.214 2.4 2.4 0 0 1-.619.083q-.868 0-1.382-.524-.514-.525-.514-1.646v-4.753h-1.244V62.27h1.244v-1.89zm4.483 2.938q.405-.564.995-.88.59-.315 1.306-.314 1.253 0 1.95.752.7.753.7 2.315v4.905h-1.427v-4.919q0-.97-.416-1.433-.416-.462-1.24-.463-.595 0-1.076.279a2.3 2.3 0 0 0-.792.756v5.78h-1.426V58.811h1.426zm9.99-.073q-.716 0-1.223.602-.507.603-.621 1.511l.013.036h3.612v-.188q0-.835-.449-1.398t-1.331-.563m.217 7.003q-1.635 0-2.602-1.088-.966-1.09-.966-2.825v-.319q0-1.672.995-2.782.996-1.11 2.356-1.11 1.584 0 2.395.955t.81 2.546v.89h-5.08l-.022.037q.022 1.125.572 1.85t1.542.725a3.6 3.6 0 0 0 1.27-.206 2.9 2.9 0 0 0 .944-.568l.558.927q-.42.415-1.108.692-.687.277-1.664.276m13.533-3.92q0-1.346-.495-2.196-.496-.85-1.51-.85-.659 0-1.11.321a2.3 2.3 0 0 0-.72.865v3.393q.275.579.72.904.444.327 1.126.326 1.006 0 1.497-.717.493-.716.492-1.895zm1.427.151q0 1.692-.815 2.731-.814 1.038-2.24 1.038-.775 0-1.346-.3a2.5 2.5 0 0 1-.949-.886l-.173 1.035h-1.165V58.812h1.425v4.384q.37-.522.916-.796.547-.275 1.278-.275 1.446 0 2.258 1.158.81 1.155.81 3.046zm4.746-3.234q-.716 0-1.223.602-.507.603-.622 1.511l.014.036h3.611v-.188q.001-.835-.448-1.398-.448-.563-1.332-.563m.218 7.003q-1.635 0-2.603-1.088-.965-1.09-.965-2.825v-.319q0-1.672.994-2.782.997-1.11 2.356-1.11 1.585 0 2.396.955t.81 2.546v.89h-5.08l-.022.037q.022 1.125.572 1.85t1.542.725a3.6 3.6 0 0 0 1.27-.206 2.9 2.9 0 0 0 .944-.568l.557.927q-.42.415-1.107.692t-1.664.276m6.495-9.868v1.889h1.484v1.056h-1.484v4.753q0 .55.227.774.229.225.605.225.123 0 .271-.03.149-.028.265-.072l.188.976a1.3 1.3 0 0 1-.467.214 2.4 2.4 0 0 1-.619.083q-.869 0-1.382-.524-.514-.524-.514-1.646v-4.753h-1.245V62.27h1.245v-1.89zm5.3 0v1.889h1.484v1.056h-1.483v4.753q0 .55.227.774.227.225.605.225.123 0 .27-.03.15-.028.265-.072l.188.976a1.3 1.3 0 0 1-.466.214 2.4 2.4 0 0 1-.62.083q-.868 0-1.382-.524t-.514-1.646v-4.753h-1.244V62.27h1.244v-1.89zm5.849 2.865q-.717 0-1.223.602-.507.603-.622 1.511l.013.036h3.612v-.188q0-.835-.448-1.398-.45-.563-1.332-.563m.217 7.003q-1.635 0-2.602-1.088-.966-1.09-.965-2.825v-.319q0-1.672.994-2.782.996-1.11 2.356-1.11 1.585 0 2.396.955t.81 2.546v.89h-5.08l-.022.037q.021 1.125.572 1.85t1.541.725a3.6 3.6 0 0 0 1.27-.206 2.9 2.9 0 0 0 .945-.568l.557.927q-.42.415-1.107.692t-1.665.276m8.348-6.72-.731-.044q-.565 0-.953.268a1.7 1.7 0 0 0-.596.753v5.592h-1.426V62.27h1.274l.137 1.143q.333-.607.822-.949a1.93 1.93 0 0 1 1.126-.339 2 2 0 0 1 .542.079z"/><path fill="#FFF" d="M59.724 41.83c-1.403 3.807-9.612 3.774-20.758 3.807 0 0 7.202-1.017 9.282-5.037 2.082-4.017 4.534-12.159 4.534-12.159-11.088-.001-12.077 3.882-12.077 3.882s-7.008 19.59-9.508 26.818c-19.418 0-16.315-9.588-16.315-9.588l9.713-27.238h19.68l-1.315 3.921s1.604-3.921 12.45-3.921c0 0 11.12.048 9.813 3.943-1.304 3.892-5.499 15.573-5.499 15.573"/></g></svg>