<svg xmlns="http://www.w3.org/2000/svg" xml:space="preserve" id="Ebene_1" x="0" y="0" version="1.1" viewBox="0 0 283.98 73.5"><style>.st0{fill:#808b8f}</style><path d="M266.44 16.14h-9.7L238.9 33.93V16.14h-6.84v41.27h6.84V39.69l17.84 17.72h9.7L245.8 36.78zM195.41 22.21c-4.05 4.04-6.07 8.9-6.07 14.57 0 5.7 2.02 10.56 6.07 14.56 4.04 4.04 8.92 6.07 14.63 6.07 2.85 0 5.52-.53 8-1.61a21 21 0 0 0 6.57-4.46l-4.88-4.82c-2.74 2.66-5.97 3.99-9.7 3.99-3.81 0-7.06-1.33-9.76-3.99-2.7-2.74-4.04-5.98-4.04-9.74 0-3.77 1.35-7 4.04-9.7 2.7-2.7 5.95-4.04 9.76-4.04 3.77 0 7 1.35 9.7 4.04l4.88-4.88c-1.9-1.9-4.1-3.39-6.57-4.46-2.48-1.07-5.15-1.6-8-1.6-5.75 0-10.63 2.02-14.63 6.07M110.45 57.41h27.48v-6.9h-20.64V16.14h-6.84zM87.18 36.78l-13.8-.06V23.04h13.8c1.86 0 3.47.68 4.82 2.02 1.35 1.35 2.02 2.95 2.02 4.82 0 1.9-.67 3.53-2.02 4.88-1.36 1.35-2.96 2.02-4.82 2.02m11.3.89c1.62-2.34 2.44-4.94 2.44-7.79 0-3.77-1.35-7-4.04-9.69-2.7-2.7-5.93-4.04-9.7-4.04H66.53v41.27h6.84V43.67h11.66L93 57.41h7.91l-8.5-14.81c2.46-.99 4.48-2.63 6.07-4.93M48.79 16.14h6.84v41.27h-6.84zM20.64 31.55l6.07 12.12H14.57zM0 57.41h7.67l3.51-6.9h18.98l3.45 6.9h7.67L20.64 16.14zM176.8 22.18a21.7 21.7 0 0 0-3.45-2.83l-2.67 6.6c.42.34.84.7 1.24 1.1 2.7 2.7 4.05 5.93 4.05 9.7 0 3.76-1.35 7-4.05 9.74q-4.05 3.99-9.69 3.99c-.48 0-.96-.02-1.43-.07L158.14 57c1.31.25 2.67.37 4.09.37 5.71 0 10.57-2.02 14.57-6.07 4.08-3.96 6.13-8.82 6.13-14.56 0-5.66-2.05-10.52-6.13-14.56m-28.31 14.57c0-3.77 1.33-7 3.98-9.7 2.74-2.7 5.99-4.04 9.75-4.04.51 0 1 .03 1.48.08l2.66-6.59c-1.33-.25-2.71-.38-4.15-.38-5.75 0-10.61 2.02-14.57 6.07-4.04 4.04-6.07 8.9-6.07 14.57 0 5.7 2.02 10.56 6.07 14.56a22 22 0 0 0 3.49 2.86l2.64-6.54c-.45-.35-.89-.72-1.32-1.13-2.63-2.76-3.96-6-3.96-9.76"/><path d="m144.469 70.662 4.16-10.292 7 2.83-4.16 10.291zM168.867 10.29l4.16-10.293 7 2.83-4.16 10.291z" class="st0"/><path d="m277.87 21.87-2.48-.01v-2.45h2.48c.33 0 .62.12.86.36s.36.53.36.86q0 .51-.36.87c-.24.25-.52.37-.86.37m2.03.16c.29-.42.44-.88.44-1.4 0-.68-.24-1.25-.73-1.74a2.38 2.38 0 0 0-1.74-.73h-3.7v7.4h1.23V23.1h2.09l1.43 2.46h1.42l-1.53-2.66c.44-.16.8-.46 1.09-.87"/><path d="M277.1 28.91a6.88 6.88 0 1 1 6.88-6.88c0 3.79-3.09 6.88-6.88 6.88m0-12.74c-3.23 0-5.86 2.63-5.86 5.86s2.63 5.86 5.86 5.86 5.86-2.63 5.86-5.86-2.63-5.86-5.86-5.86"/></svg>