<svg xmlns="http://www.w3.org/2000/svg" xmlns:xlink="http://www.w3.org/1999/xlink" xml:space="preserve" id="Layer_1" width="184.4" height="135.65" x="0" y="0" version="1.1"><style id="style92" type="text/css">.st0,.st1{clip-path:url(#SVGID_00000124123306709754283020000012753314485223061398_);fill:#fff}.st1{fill:#4a4a49}</style><g id="g136"><defs id="defs95"><path id="SVGID_1_" d="M0 0h215.4v168.65H0z"/></defs><clipPath id="SVGID_00000019643418636984976770000010833689138245818029_"><use xlink:href="#SVGID_1_" id="use97" style="overflow:visible"/></clipPath><path id="path102" d="M96.68 67.64A6.68 6.68 0 0 1 90 74.32a6.68 6.68 0 0 1-6.68-6.68A6.68 6.68 0 0 1 90 60.96c3.69.01 6.68 3 6.68 6.68" clip-path="url(#SVGID_00000019643418636984976770000010833689138245818029_)" style="fill:#4a4a49" transform="translate(-12.234 -8.322)"/><path id="path104" d="M121.71 59.44c-4.61 0-8.35-3.74-8.35-8.34 0-4.61-3.74-8.35-8.34-8.35-4.61 0-8.35 3.74-8.35 8.35 0 4.61 3.74 8.34 8.35 8.34 4.61 0 8.34 3.74 8.34 8.35 0 4.61-3.74 8.35-8.34 8.35-4.61 0-8.35 3.74-8.35 8.35 0 4.61 3.74 8.34 8.35 8.34 4.61 0 8.34-3.74 8.34-8.34s3.74-8.35 8.35-8.35c4.61 0 8.35-3.74 8.35-8.35 0-4.61-3.74-8.35-8.35-8.35" clip-path="url(#SVGID_00000019643418636984976770000010833689138245818029_)" style="fill:#4a4a49" transform="translate(-12.234 -8.322)"/><path id="path106" d="M62.13 113.61c-.49 0-.89-.28-1.11-.53-.41.34-.92.53-1.5.53h-.13c-1.23 0-2.43-.67-2.43-2.21v-.07c0-2.07 2.35-2.13 3.4-2.37.18-.04.19-.18.19-.28 0-.59-.43-.96-.96-.96h-.1c-.43 0-.77.15-.96.58a.66.66 0 0 1-.62.43c-.37 0-.74-.3-.74-.69 0-.1.02-.21.06-.31.47-1.08 1.47-1.41 2.26-1.41h.1c1.18 0 2.38.86 2.38 2.24v3.27c0 .22.01.34.24.4.4.09.58.4.58.71.01.33-.23.67-.66.67m-1.57-3.36c-1.04.28-2.22.22-2.22 1.12 0 .49.38.84 1.05.84h.13c.58 0 1.04-.46 1.04-1.04z" clip-path="url(#SVGID_00000019643418636984976770000010833689138245818029_)" style="fill:#4a4a49" transform="translate(-12.234 -8.322)"/><path id="path108" d="M72.18 113.61c-.34 0-.7-.22-.7-.7v-4.16c0-.58-.47-1.04-1.05-1.04h-.13c-.58 0-1.05.46-1.05 1.04v4.13c0 .49-.37.72-.71.72-.36 0-.71-.24-.71-.72v-4.13c0-.58-.47-1.04-1.05-1.04h-.13c-.58 0-1.05.46-1.05 1.04v4.16c0 .47-.35.7-.71.7-.34 0-.71-.22-.71-.7v-5.89c0-.47.36-.71.71-.71.34 0 .53.07.71.38.22-.24.65-.38 1.05-.38h.13c.77 0 1.3.27 1.76.73.46-.46 1.07-.73 1.76-.73h.13c1.66 0 2.47.92 2.47 2.4v4.2c.01.48-.36.7-.72.7" clip-path="url(#SVGID_00000019643418636984976770000010833689138245818029_)" style="fill:#4a4a49" transform="translate(-12.234 -8.322)"/><path id="path110" d="M79.51 113.61c-.49 0-.89-.28-1.11-.53-.41.34-.92.53-1.5.53h-.13c-1.23 0-2.43-.67-2.43-2.21v-.07c0-2.07 2.35-2.13 3.4-2.37.18-.04.19-.18.19-.28 0-.59-.43-.96-.96-.96h-.1c-.43 0-.77.15-.96.58a.66.66 0 0 1-.62.43c-.37 0-.74-.3-.74-.69 0-.1.02-.21.06-.31.47-1.08 1.46-1.41 2.26-1.41h.1c1.18 0 2.38.86 2.38 2.24v3.27c0 .22.01.34.24.4.4.09.58.4.58.71.01.33-.23.67-.66.67m-1.57-3.36c-1.04.28-2.22.22-2.22 1.12 0 .49.38.84 1.05.84h.13c.58 0 1.04-.46 1.04-1.04z" clip-path="url(#SVGID_00000019643418636984976770000010833689138245818029_)" style="fill:#4a4a49" transform="translate(-12.234 -8.322)"/><path id="path112" d="M85.88 113.61c-.34 0-.71-.22-.71-.7v-4.16c0-.58-.44-1.04-1.02-1.04h-.13c-.58 0-1.04.46-1.04 1.04v4.16c0 .47-.36.7-.71.7s-.71-.22-.71-.7v-5.89c0-.47.36-.71.71-.71.28 0 .53.07.71.38.42-.4.72-.38 1.04-.38h.13c1.47 0 2.44 1.08 2.44 2.44v4.16c0 .48-.36.7-.71.7" clip-path="url(#SVGID_00000019643418636984976770000010833689138245818029_)" style="fill:#4a4a49" transform="translate(-12.234 -8.322)"/><path id="path114" d="M90.78 113.61h-.12c-1.36 0-2.46-1.02-2.46-2.38v-2.52c0-1.35 1.1-2.4 2.46-2.4h.12c1.36 0 2.46 1.05 2.46 2.4v2.52c-.01 1.36-1.1 2.38-2.46 2.38m1.03-4.9c0-.58-.46-.99-1.04-.99h-.12c-.58 0-1.04.42-1.04.99v2.52c0 .58.46.99 1.04.99h.12c.58 0 1.04-.41 1.04-.99z" clip-path="url(#SVGID_00000019643418636984976770000010833689138245818029_)" style="fill:#4a4a49" transform="translate(-12.234 -8.322)"/><path id="path116" d="M99.08 113.61c-.22 0-.42-.07-.58-.33l-1.3-2.09-1.3 2.09c-.16.25-.35.33-.58.33-.41 0-.72-.31-.72-.68 0-.15.03-.28.1-.38l1.67-2.68-1.54-2.46c-.1-.13-.1-.25-.1-.38 0-.37.31-.71.72-.71.22 0 .43.12.58.35l1.17 1.87 1.17-1.87c.15-.24.36-.35.58-.35.41 0 .72.34.72.71 0 .13 0 .25-.1.38l-1.54 2.46 1.67 2.68c.08.1.1.24.1.38.01.37-.3.68-.72.68" clip-path="url(#SVGID_00000019643418636984976770000010833689138245818029_)" style="fill:#4a4a49" transform="translate(-12.234 -8.322)"/><path id="path118" d="M107.92 113.61h-.25c-.95 0-1.92-.55-2.37-1.51a.884.884 0 0 1-.07-.33c0-.4.35-.68.72-.68.71 0 .72 1.13 1.72 1.13h.25c.83 0 1.15-.34 1.15-.82 0-.8-.78-.87-1.39-.99-1.02-.19-2.31-.62-2.31-1.88v-.25c0-1.46 1.6-1.97 2.55-1.97h.06c1.32 0 2.29.75 2.29 1.27 0 .34-.28.65-.68.65-.56 0-.68-.52-1.61-.52h-.06c-.65 0-1.12.27-1.12.61v.15c0 1.06 3.7.18 3.7 2.93-.01 1.69-1.49 2.21-2.58 2.21" clip-path="url(#SVGID_00000019643418636984976770000010833689138245818029_)" style="fill:#4a4a49" transform="translate(-12.234 -8.322)"/><path id="path120" d="M114.43 113.61h-.12c-1.36 0-2.46-1.02-2.46-2.38v-2.52c0-1.35 1.1-2.4 2.46-2.4h.12c1.36 0 2.46 1.05 2.46 2.4v2.52c0 1.36-1.1 2.38-2.46 2.38m1.04-4.9c0-.58-.46-.99-1.04-.99h-.12c-.58 0-1.04.42-1.04.99v2.52c0 .58.46.99 1.04.99h.12c.58 0 1.04-.41 1.04-.99z" clip-path="url(#SVGID_00000019643418636984976770000010833689138245818029_)" style="fill:#4a4a49" transform="translate(-12.234 -8.322)"/><path id="path122" d="M120.77 113.57c-1.3 0-2.01-.71-2.01-2.01v-7.62c0-.41.29-.71.71-.71.4 0 .71.3.71.69v7.64c0 .34.25.62.59.62.4 0 .71.28.71.7 0 .41-.3.69-.71.69" clip-path="url(#SVGID_00000019643418636984976770000010833689138245818029_)" style="fill:#4a4a49" transform="translate(-12.234 -8.322)"/><path id="path124" d="M127.12 113.61c-.28 0-.53-.06-.71-.37-.41.4-.73.37-1.04.37h-.13c-1.45 0-2.44-1.05-2.44-2.43v-4.16c0-.47.36-.71.71-.71.34 0 .71.24.71.71v4.16c0 .58.44 1.04 1.02 1.04h.13c.58 0 1.04-.46 1.04-1.04v-4.16c0-.47.36-.71.71-.71s.71.24.71.71v5.89c0 .48-.36.7-.71.7" clip-path="url(#SVGID_00000019643418636984976770000010833689138245818029_)" style="fill:#4a4a49" transform="translate(-12.234 -8.322)"/><path id="path126" d="M132.17 113.57c-1.12 0-2.01-.89-2.01-2.01v-3.79h-.24c-.47 0-.71-.35-.71-.71 0-.34.24-.7.71-.7h.24v-2.43c0-.47.35-.71.7-.71s.72.24.72.71v2.43h.52c.47 0 .71.36.71.7 0 .36-.24.71-.71.71h-.52v3.79c0 .24.24.62.59.62.47 0 .71.36.71.7 0 .35-.24.69-.71.69" clip-path="url(#SVGID_00000019643418636984976770000010833689138245818029_)" style="fill:#4a4a49" transform="translate(-12.234 -8.322)"/><path id="path128" d="M135.16 113.61c-.36 0-.71-.22-.71-.7v-5.89c0-.47.36-.71.71-.71.34 0 .71.24.71.71v5.89c0 .48-.37.7-.71.7m0-8.67c-.36 0-.7-.24-.7-.7v-.31c0-.47.34-.71.7-.71.35 0 .71.24.71.71v.31c0 .46-.36.7-.71.7" clip-path="url(#SVGID_00000019643418636984976770000010833689138245818029_)" style="fill:#4a4a49" transform="translate(-12.234 -8.322)"/><path id="path130" d="M140.31 113.61h-.12c-1.36 0-2.46-1.02-2.46-2.38v-2.52c0-1.35 1.1-2.4 2.46-2.4h.12c1.36 0 2.46 1.05 2.46 2.4v2.52c0 1.36-1.1 2.38-2.46 2.38m1.04-4.9c0-.58-.46-.99-1.04-.99h-.12c-.58 0-1.04.42-1.04.99v2.52c0 .58.46.99 1.04.99h.12c.58 0 1.04-.41 1.04-.99z" clip-path="url(#SVGID_00000019643418636984976770000010833689138245818029_)" style="fill:#4a4a49" transform="translate(-12.234 -8.322)"/><path id="path132" d="M148.82 113.61c-.34 0-.71-.22-.71-.7v-4.16c0-.58-.44-1.04-1.02-1.04h-.13c-.58 0-1.04.46-1.04 1.04v4.16c0 .47-.36.7-.71.7s-.71-.22-.71-.7v-5.89c0-.47.35-.71.71-.71.28 0 .53.07.71.38.41-.4.73-.38 1.04-.38h.13c1.47 0 2.44 1.08 2.44 2.44v4.16c0 .48-.35.7-.71.7" clip-path="url(#SVGID_00000019643418636984976770000010833689138245818029_)" style="fill:#4a4a49" transform="translate(-12.234 -8.322)"/><path id="path134" d="M153.6 113.61h-.25c-.95 0-1.93-.55-2.37-1.51a.884.884 0 0 1-.07-.33c0-.4.36-.68.73-.68.71 0 .72 1.13 1.72 1.13h.25c.83 0 1.15-.34 1.15-.82 0-.8-.79-.87-1.39-.99-1.02-.19-2.31-.62-2.31-1.88v-.25c0-1.46 1.6-1.97 2.55-1.97h.06c1.32 0 2.29.75 2.29 1.27 0 .34-.28.65-.68.65-.56 0-.68-.52-1.61-.52h-.06c-.65 0-1.12.27-1.12.61v.15c0 1.06 3.7.18 3.7 2.93-.01 1.69-1.49 2.21-2.59 2.21" clip-path="url(#SVGID_00000019643418636984976770000010833689138245818029_)" style="fill:#4a4a49" transform="translate(-12.234 -8.322)"/></g></svg>