<svg xmlns="http://www.w3.org/2000/svg" width="1039.107" height="164.507" viewBox="0 0 1039.107 164.507"><path d="M6600.19 149.191c-44.33 24.77-15.63 58-15.63 58l83.73 103.383c18.05 21.832 42.32 19.528 59.98 10.356 192.77-98.059 451.21-122.301 637.32-97.11 161.55 21.86 189.75 91.375 189.75 151.559 0 85.738-81.99 113.84-81.99 113.84-49.06 26.301-245.46 38.191-487.87 62.945S6603.5 695.43 6603.5 881.488c0 115.348 46.72 193.962 153.27 264.052 111.92 73.63 562.9 181.1 1010.74-62.66 41.38-21.19 15.64-57.95 15.64-57.95l-83.72-103.387c-18.82-20.766-42.88-18.656-60-10.367-131.1 70.762-327.61 107.544-512.92 106.724-283.82-8.26-284.06-97.295-284.06-136.412 0-43.761 0-98.226 176.24-118.675l334.11-36.243c312.79-33.734 446.24-156.281 440.31-361.468-5.94-205.192-136.77-286.34-308.44-333.25 0 0-452.5-124.012-884.48 117.339M3683.83 1.238h-163.4c-21.12 0-38.23 17.114-38.23 38.23V1193.12c0 21.12 17.11 38.24 38.23 38.24h163.4c21.11 0 38.23-17.12 38.23-38.24V39.469c0-21.117-17.12-38.23-38.23-38.23" style="fill:#3259b1;fill-opacity:1;fill-rule:nonzero;stroke:none" transform="matrix(.13333 0 0 -.13333 0 164.507)"/><path d="M2335.53 449.129c482.54-525.508 925.44-443.52 925.44-443.52 21.11 0 38.23 16.993 38.23 37.942v148.058c0 20.95-17.12 37.942-38.23 37.942 0 0-269.81-10.602-466.42 111.785-196.01 122.004-306.47 273.871-307.15 274.809.68.937 111.14 152.804 307.15 274.812 196.61 122.383 466.42 111.783 466.42 111.783 21.11 0 38.23 16.99 38.23 37.94v148.06c0 20.95-17.12 37.94-38.23 37.94 0 0-442.87 81.98-925.4-443.477-482.55 525.507-925.45 443.517-925.45 443.517-21.11 0-38.23-16.99-38.23-37.94v-148.06c0-20.95 17.12-37.93 38.23-37.93 0 0 269.81 10.6 466.42-111.79 196.01-122.008 306.47-273.875 307.15-274.812-.68-.938-111.14-152.801-307.15-274.809-196.61-122.391-466.42-111.789-466.42-111.789-21.11 0-38.23-16.981-38.23-37.942V43.59c0-20.95 17.12-37.93 38.23-37.93 0 0 442.87-81.992 925.41 443.469" style="fill:#9f1669;fill-opacity:1;fill-rule:nonzero;stroke:none" transform="matrix(.13333 0 0 -.13333 0 164.507)"/><path d="M4718.59 212.281h-489.57c-87.37 0-158.42 74.074-158.42 165.16 0 90.973 71.05 165.051 158.42 165.051h489.57c87.27 0 158.32-74.078 158.32-165.051 0-91.086-71.05-165.16-158.32-165.16m210.56 918.759c-111.9 74.39-541.64 201.52-989.44-44.88-41.4-21.4-15.6-58.6-15.6-58.6l83.7-104.501c18.8-20.996 42.91-18.899 60-10.496 131.11 71.5 306.34 103.027 491.64 102.227 283.81-8.4 297.3-111.153 297.3-150.653V722.234c-45.99 20.102-96.9 31.301-150.4 31.301h-465.1c-207.8 0-376.2-168.398-376.2-376.097 0-103.903 42.1-197.997 110.2-265.997 68.01-68.101 162.1-110.203 266-110.203h465.1c207.7 0 376.1 168.391 376.1 376.2v486.699c0 116.597-46.69 196.093-153.3 266.903M853.539 212.281h-489.57c-87.367 0-158.422 74.074-158.422 165.16 0 90.973 71.055 165.051 158.422 165.051h489.57c87.262 0 158.311-74.078 158.311-165.051 0-91.086-71.049-165.16-158.311-165.16M1064.1 1131.04c-111.901 74.39-541.639 201.52-989.44-44.88-41.398-21.4-15.601-58.6-15.601-58.6l83.703-104.501c18.797-20.996 42.898-18.899 60-10.496 131.097 71.5 306.34 103.027 491.636 102.227 283.801-8.4 297.301-111.153 297.301-150.653V722.234c-46 20.102-96.898 31.301-150.398 31.301H376.199C168.398 753.535 0 585.137 0 377.438c0-103.903 42.102-197.997 110.199-265.997 68-68.101 162.102-110.203 266-110.203h465.102c207.699 0 376.099 168.391 376.099 376.2v486.699c0 116.597-46.7 196.093-153.3 266.903M5848.5 1231.62c135.25 0 215.05-12.96 215.05-12.96 392.7-49.77 380.88-344.945 380.88-344.945V41.512c0-21.114-17.12-38.23-38.24-38.23h-149.22c-21.12 0-38.24 17.116-38.24 38.23v832.203s4.71 108.305-203.78 126.605c-122.79 10.78-166.45 8.28-166.45 8.28s-43.66 2.5-166.45-8.28c-208.49-18.3-203.79-126.605-203.79-126.605V41.512c0-21.114-17.11-38.23-38.23-38.23h-149.22c-21.12 0-38.24 17.116-38.24 38.23v832.203s-11.82 295.175 380.88 344.945c0 0 79.8 12.96 215.05 12.96" style="fill:#3259b1;fill-opacity:1;fill-rule:nonzero;stroke:none" transform="matrix(.13333 0 0 -.13333 0 164.507)"/></svg>