<svg xmlns="http://www.w3.org/2000/svg" width="202.96" height="48" data-name="Ebene 1"><path d="M69.86 8.68a9.4 9.4 0 0 0-8.94 5.21V0H56v37.31h4.94v-4.55A9.42 9.42 0 0 0 69.86 38c7.51 0 11.07-6.53 11.07-14.65S77.37 8.68 69.86 8.68Zm5.87 19c0 3.78-3 6.36-7.13 6.36-4.94 0-7.68-3.51-7.68-8.34V21c0-4.83 2.74-8.34 7.68-8.34 4.11 0 7.13 2.58 7.13 6.36Zm22.97-19c-7.68 0-12.06 6.09-12.06 14.64S90.64 38 98.7 38c6 0 11.24-3.57 11.74-9.55h-4.94c-.33 3.84-3.23 5.6-6.74 5.6s-6.91-2.31-6.91-6.36v-3h18.81v-2.63c0-7.46-3.95-13.38-11.96-13.38Zm6.86 12.07H91.85v-1.54c0-4.11 3.18-6.58 6.85-6.58s6.86 2.47 6.86 6.58Zm30.7-6.86a9.44 9.44 0 0 0-8.93-5.21c-7.52 0-11.08 6.53-11.08 14.64S119.87 38 127.44 38a9.28 9.28 0 0 0 8.82-5.21v4.55h4.94V0h-4.94Zm0 11.79c0 4.83-2.74 8.34-7.67 8.34-4.06 0-7.13-2.58-7.13-6.36V19c0-3.78 3.07-6.36 7.13-6.36 4.93 0 7.67 3.51 7.67 8.34Zm34.06-7.46c0-6.58-4.55-9.54-10.59-9.54s-10.73 3.73-10.73 9h4.93c0-3.57 2.3-5 5.76-5s5.81 1.21 5.81 5.54v2.25l-9.1.82c-5.54.49-8.34 4-8.34 8.39a8.48 8.48 0 0 0 2.31 5.81 9.09 9.09 0 0 0 6.68 2.51c4.17 0 7.24-1.87 8.77-5.82h.18l.11 5.16h8.34v-4.25h-4.17Zm-4.83 7.24c0 5.05-2.74 8.56-7.18 8.56-3.13 0-5.05-1.15-5.05-3.73v-2.47c0-1.59.28-2.52 2.31-2.69l9.92-.93Zm32.58-16.12v4.55a9.46 9.46 0 0 0-8.94-5.21c-7.51 0-11.08 6.53-11.08 14.64S181.67 38 189.24 38a9.34 9.34 0 0 0 8.83-5.21v3.78c0 5.37-3.51 7.51-7.35 7.51s-6.36-1.64-6.75-4.82h-5C179.82 46 185.09 48 190.9 48c6 0 12.06-3.51 12.06-11.24V9.34Zm0 16.34c0 4.83-2.75 8.34-7.68 8.34-4.06 0-7.13-2.58-7.13-6.36V19c0-3.78 3.07-6.36 7.13-6.36 4.93 0 7.68 3.51 7.68 8.34Z" style="fill:#321e50"/><path d="M10 0H0v37.31l5-18.66ZM0 37.31h37.31v-10l-18.66 5ZM10 0l13.65 13.65 13.66 13.66V0Z" style="fill:#96cd6e"/></svg>