<svg xmlns="http://www.w3.org/2000/svg" width="1070.381" height="338.504" fill-rule="evenodd" stroke-linejoin="round" stroke-miterlimit="1.414" clip-rule="evenodd"><path fill="#fff" d="M323.716 18.265h-16.84C274.392-6.53 106.326-5.64 76.616 18.257H59.471l-33.52 16.892 331.83-.051zm40.313 24.485-345.269.062L0 68.032l.212 9.51 149.213 25.552-.075 8.772c7.746 11.673 18.203 18.115 31.107 19.833l-.18 7.897 6.168-.077 2.248 165.503-8.293 10.99-.01 15.322 9.791 7.162 3.147.008 9.352-7.328.04-15.204-8.157-11.04 1.334-165.53 6.96-.087-.163-7.822c21.061-4.576 22.978-10.405 31.203-19.705l-.25-8.765 149.232-26.726v-7.986z" style="fill:#3273dc;fill-opacity:1"/><g style="font-size:170.079px;line-height:1.25;letter-spacing:0;fill:#3273dc;fill-opacity:1"><path d="M44.037 182.852v125.263h9.78c2.154 0 3.458-1.078 3.912-3.232l.765-7.824c2.891 3.911 6.264 6.945 10.12 9.1 3.911 2.097 8.701 3.146 14.37 3.146 5.726 0 10.885-1.106 15.477-3.317a33.618 33.618 0 0 0 11.65-9.44c3.232-4.081 5.698-8.984 7.399-14.71 1.7-5.726 2.552-12.076 2.552-19.049 0-6.52-.766-12.388-2.296-17.603-1.474-5.216-3.629-9.64-6.463-13.268-2.835-3.685-6.293-6.49-10.375-8.418-4.025-1.928-8.56-2.89-13.606-2.89-5.953 0-11.226 1.245-15.818 3.74-4.536 2.494-8.618 5.84-12.246 10.035v-51.533zm362.268 1.189c-1.474 0-2.864.285-4.168.852a10.508 10.508 0 0 0-3.317 2.38c-.963.964-1.728 2.126-2.295 3.487a10.333 10.333 0 0 0-.851 4.166c0 1.474.284 2.864.851 4.168a12.402 12.402 0 0 0 2.295 3.402 11.21 11.21 0 0 0 3.317 2.295c1.304.567 2.694.852 4.168.852 1.474 0 2.862-.285 4.166-.852 1.36-.567 2.522-1.331 3.486-2.295a11.558 11.558 0 0 0 2.383-3.402 9.538 9.538 0 0 0 .933-4.168 9.53 9.53 0 0 0-.933-4.166 10.044 10.044 0 0 0-2.383-3.487c-.964-1.02-2.126-1.813-3.486-2.38a10.333 10.333 0 0 0-4.166-.852zm135.722 0c-1.474 0-2.864.285-4.168.852a10.508 10.508 0 0 0-3.316 2.38c-.964.964-1.728 2.126-2.295 3.487a10.333 10.333 0 0 0-.852 4.166c0 1.474.285 2.864.852 4.168a12.401 12.401 0 0 0 2.295 3.402 11.21 11.21 0 0 0 3.316 2.295c1.304.567 2.694.852 4.168.852 1.474 0 2.862-.285 4.166-.852 1.361-.567 2.523-1.331 3.487-2.295a11.558 11.558 0 0 0 2.382-3.402 9.54 9.54 0 0 0 .936-4.168 9.532 9.532 0 0 0-.936-4.166 10.044 10.044 0 0 0-2.382-3.487c-.964-1.02-2.126-1.813-3.487-2.38a10.333 10.333 0 0 0-4.166-.852zm-195.931 36.398c-6.123 0-11.564 1.36-16.326 4.08-4.763 2.722-8.958 6.323-12.586 10.801l-1.362-10.205c-.51-2.097-1.841-3.146-3.996-3.146h-9.1v115.314h15.223v-38.097c2.892 3.174 6.208 5.668 9.95 7.482 3.798 1.757 8.332 2.637 13.605 2.637 5.783 0 10.97-1.135 15.562-3.403 4.65-2.324 8.562-5.469 11.737-9.437 3.231-4.025 5.697-8.76 7.398-14.203 1.701-5.5 2.551-11.424 2.551-17.774 0-7.143-.766-13.463-2.297-18.963-1.53-5.499-3.712-10.092-6.547-13.777-2.834-3.742-6.266-6.547-10.29-8.418-4.026-1.927-8.533-2.89-13.522-2.89zm259.966 0c-6.69 0-12.785 1.133-18.285 3.4-5.499 2.269-10.628 5.7-15.39 10.292l2.72 4.846a8.036 8.036 0 0 0 1.872 2.04c.737.51 1.616.766 2.636.766 1.304 0 2.606-.454 3.91-1.361 1.361-.964 2.95-2.01 4.764-3.145 1.87-1.19 4.052-2.24 6.547-3.146 2.551-.964 5.698-1.447 9.44-1.447 5.555 0 9.78 1.729 12.671 5.187 2.892 3.402 4.336 8.447 4.336 15.137v6.719c-9.808.226-18.083 1.133-24.83 2.72-6.746 1.531-12.219 3.516-16.414 5.953-4.195 2.438-7.227 5.246-9.098 8.42-1.87 3.118-2.806 6.378-2.806 9.78 0 3.911.624 7.313 1.87 10.205 1.305 2.834 3.034 5.187 5.188 7.058 2.211 1.871 4.79 3.288 7.739 4.252 2.948.907 6.094 1.36 9.44 1.36 3.287 0 6.262-.312 8.927-.936 2.721-.567 5.273-1.388 7.654-2.465a41.591 41.591 0 0 0 6.803-4.082c2.154-1.644 4.365-3.515 6.633-5.613l1.7 8.164c.454 1.417 1.078 2.38 1.872 2.89.794.454 1.928.682 3.402.682h6.717v-55.107c0-4.82-.651-9.24-1.955-13.266-1.304-4.025-3.232-7.454-5.783-10.289s-5.698-5.045-9.44-6.633c-3.741-1.587-8.02-2.38-12.84-2.38zm-431.49.17c-6.236 0-11.849 1.106-16.838 3.317-4.989 2.154-9.213 5.158-12.672 9.013-3.458 3.799-6.12 8.306-7.992 13.522-1.814 5.216-2.722 10.828-2.722 16.838 0 7.427 1.021 14.002 3.062 19.728 2.041 5.726 4.876 10.546 8.504 14.457 3.685 3.856 8.02 6.803 13.01 8.844 5.046 1.984 10.545 2.977 16.498 2.977a53.61 53.61 0 0 0 9.44-.85 49.666 49.666 0 0 0 9.185-2.38 42.824 42.824 0 0 0 8.418-4.083c2.608-1.7 4.848-3.685 6.719-5.953l-4.252-5.527c-.68-.964-1.646-1.446-2.893-1.446-.964 0-2.126.453-3.486 1.36-1.304.85-2.948 1.786-4.932 2.806-1.984 1.02-4.365 1.984-7.142 2.891-2.722.85-5.983 1.275-9.782 1.275-4.082 0-7.766-.65-11.054-1.955a23.123 23.123 0 0 1-8.504-6.037c-2.381-2.721-4.253-6.096-5.614-10.12-1.304-4.026-2.04-8.76-2.21-14.202h57.572c1.417 0 2.382-.396 2.892-1.19.51-.793.764-2.382.764-4.763 0-6.123-.907-11.564-2.72-16.326-1.815-4.82-4.338-8.845-7.57-12.076-3.174-3.289-6.972-5.784-11.394-7.485-4.365-1.757-9.128-2.635-14.287-2.635zm81.127 0c-4.875 0-9.211.68-13.01 2.041-3.798 1.361-7.001 3.203-9.609 5.528-2.608 2.267-4.592 4.93-5.953 7.992a22.63 22.63 0 0 0-2.041 9.44c0 3.684.624 6.83 1.871 9.439 1.304 2.551 3.004 4.705 5.102 6.463 2.097 1.757 4.478 3.233 7.142 4.424a111.129 111.129 0 0 0 8.25 3.06l8.248 2.637c2.721.794 5.131 1.757 7.229 2.89 2.097 1.078 3.77 2.411 5.017 3.998 1.304 1.531 1.955 3.487 1.955 5.868 0 1.927-.368 3.74-1.105 5.441-.68 1.7-1.757 3.204-3.23 4.508-1.475 1.304-3.317 2.353-5.528 3.146-2.21.737-4.79 1.106-7.738 1.106-3.458 0-6.35-.398-8.674-1.192-2.324-.793-4.309-1.67-5.953-2.634a75.868 75.868 0 0 1-4.082-2.637c-1.134-.794-2.212-1.191-3.233-1.191-.963 0-1.757.198-2.38.595-.624.397-1.162.964-1.616 1.701l-3.572 5.784c3.402 3.061 7.54 5.584 12.416 7.568 4.876 1.928 10.319 2.89 16.328 2.89 5.273 0 9.92-.707 13.946-2.124 4.025-1.418 7.427-3.346 10.205-5.784 2.778-2.494 4.875-5.414 6.293-8.76 1.417-3.4 2.127-7.086 2.127-11.054 0-3.458-.654-6.406-1.958-8.844-1.247-2.494-2.92-4.592-5.017-6.293-2.098-1.7-4.478-3.118-7.143-4.252a94.985 94.985 0 0 0-8.248-3.062c-2.778-.964-5.5-1.841-8.164-2.635-2.664-.85-5.047-1.815-7.144-2.893-2.098-1.077-3.798-2.352-5.102-3.826-1.247-1.474-1.871-3.316-1.871-5.527 0-1.758.368-3.374 1.105-4.848.794-1.53 1.9-2.862 3.317-3.996 1.474-1.134 3.232-2.013 5.273-2.637 2.041-.68 4.336-1.021 6.887-1.021 2.948 0 5.5.341 7.654 1.021 2.155.624 3.997 1.332 5.528 2.125 1.587.737 2.92 1.418 3.998 2.041 1.077.624 2.04.936 2.89.936 1.418 0 2.467-.624 3.147-1.871l3.4-5.527c-3.288-3.119-7.199-5.555-11.734-7.313-4.479-1.814-9.553-2.72-15.223-2.72zm226.12 0c-3.062 0-5.924.34-8.589 1.02a32.221 32.221 0 0 0-7.484 2.807 38.078 38.078 0 0 0-6.633 4.335 51.128 51.128 0 0 0-5.953 5.7l-1.19-9.356c-.51-2.097-1.843-3.146-3.997-3.146h-9.098v86.146h15.22v-63.44c3.289-3.684 6.86-6.605 10.716-8.759 3.911-2.154 8.107-3.232 12.585-3.232 6.067 0 10.574 1.815 13.522 5.443 3.005 3.572 4.508 8.617 4.508 15.137v54.851h15.222v-54.851c0-4.876-.623-9.327-1.87-13.352-1.248-4.025-3.09-7.454-5.528-10.289-2.381-2.891-5.387-5.102-9.016-6.633-3.571-1.587-7.71-2.38-12.416-2.38zm220.251 0c-3.061 0-5.923.34-8.588 1.02a32.22 32.22 0 0 0-7.484 2.807 38.078 38.078 0 0 0-6.633 4.335 51.13 51.13 0 0 0-5.953 5.7l-1.19-9.356c-.51-2.097-1.843-3.146-3.997-3.146h-9.098v86.146h15.22v-63.44c3.289-3.684 6.86-6.605 10.715-8.759 3.912-2.154 8.108-3.232 12.586-3.232 6.067 0 10.574 1.815 13.522 5.443 3.005 3.572 4.508 8.617 4.508 15.137v54.851H730.9v-54.851c0-4.876-.623-9.327-1.87-13.352-1.248-4.025-3.09-7.454-5.528-10.289-2.381-2.891-5.387-5.102-9.016-6.633-3.571-1.587-7.71-2.38-12.416-2.38zm-303.164 1.36v86.146h15.137V221.97Zm135.723 0v86.146h15.137V221.97Zm-359.717 9.78c3.458 0 6.548.596 9.27 1.786 2.72 1.134 5.017 2.777 6.888 4.932 1.928 2.097 3.372 4.62 4.336 7.568 1.02 2.892 1.531 6.095 1.531 9.61h-47.11c1.02-7.484 3.626-13.323 7.821-17.518 4.252-4.252 10.007-6.379 17.264-6.379zm-92.607.935c7.086 0 12.53 2.495 16.328 7.484 3.855 4.932 5.781 12.67 5.781 23.215 0 11.338-2.154 19.871-6.463 25.597-4.308 5.726-10.516 8.59-18.623 8.59-3.968 0-7.626-.766-10.97-2.297-3.289-1.53-6.322-4.166-9.1-7.908v-41.67c3.118-4.138 6.493-7.341 10.12-9.61 3.686-2.267 7.994-3.401 12.927-3.401zm258.86 0c3.457 0 6.547.596 9.269 1.787 2.72 1.19 5.017 3.09 6.888 5.697 1.871 2.551 3.288 5.84 4.252 9.865 1.02 4.025 1.53 8.843 1.53 14.455 0 10.602-2.155 18.766-6.463 24.492-4.309 5.726-10.487 8.59-18.537 8.59-4.082 0-7.769-.766-11.057-2.297-3.288-1.53-6.32-4.166-9.098-7.908v-41.67c3.118-4.138 6.518-7.341 10.203-9.61 3.742-2.267 8.08-3.401 13.012-3.401zm280.118 36.652v17.86a46.376 46.376 0 0 1-5.271 4.845 32.88 32.88 0 0 1-5.614 3.658 28.158 28.158 0 0 1-6.207 2.381c-2.21.51-4.65.766-7.314.766-1.984 0-3.854-.228-5.611-.682-1.701-.51-3.204-1.274-4.508-2.295-1.247-1.077-2.24-2.438-2.977-4.082-.737-1.644-1.105-3.6-1.105-5.867 0-2.381.68-4.537 2.04-6.465 1.418-1.927 3.658-3.598 6.72-5.016 3.118-1.417 7.114-2.551 11.99-3.402 4.932-.907 10.884-1.474 17.857-1.701z" aria-label="bespinian" style="font-family:Lato;-inkscape-font-specification:Lato;fill:#3273dc;fill-opacity:1" transform="translate(339.481 -33.081)"/></g></svg>