<svg xmlns="http://www.w3.org/2000/svg" xml:space="preserve" viewBox="0 0 56 56"><path d="M0 0h56v56H0z" style="fill:#fc0"/><path d="M26.445 25.122V14.777H15.323v7.856H7.778v10.733h7.545v7.856h11.122V30.877H23.8v7.856h-5.833v-7.856h-7.544v-5.755h7.544v-7.856H23.8v7.856z" style="fill:red"/><path d="M41.66 24.193c0 1.876-1.549 3.34-3.513 3.34h-2.991v-6.455h2.99c2.04 0 3.514 1.313 3.514 3.115m-2.229-9.416h-11.43v26.445h7.155v-7.856h4.275c5.251 0 9.331-4.006 9.331-9.182 0-5.213-4.155-9.407-9.33-9.407z"/></svg>