<svg xmlns="http://www.w3.org/2000/svg" width="310" height="131"><g fill="none" fill-rule="evenodd"><path fill="#FF9C66" fill-rule="nonzero" d="M0 0h310v131H0z"/><path fill="#004153" d="M30 96.084h14.603V34.752H30zM129.418 34.752v37.412l-26.47-37.412H89.604v37.412l-26.47-37.412H49.86v61.332h13.856V58.672l26.47 37.412h13.344000000000001V58.672l26.47 37.412h13.318V34.752zM178.768 33.325c-18.131 0-30.971 13.454-30.971 31.715s12.84 31.715 30.971 31.715c18.13 0 30.971-13.456 30.971-31.715 0-18.261-12.841-31.715-30.971-31.715m0 13.98c9.569 0 16.367 7.252 16.367 17.735s-6.798 17.735-16.367 17.735S162.4 75.524 162.4 65.04s6.798-17.735 16.368-17.735"/><path fill="#FFF" d="M244.756 34.535c-18.13 0-30.971 13.454-30.971 31.715s12.841 31.715 30.971 31.715c6.169 0 11.457-1.793 15.947-4.718l2.602 3.581h16.493l-9.274-13.104c3.274-4.85 5.203-10.616 5.203-17.474 0-18.261-12.841-31.715-30.971-31.715m0 13.98c9.567 0 16.368 7.251 16.368 17.735 0 2.01-.252 3.888-.715 5.636l-1.887-2.666h-15.277l9.274 12.93c-2.265 1.18-4.909 1.835-7.763 1.835-9.569 0-16.368-7.251-16.368-17.735s6.799-17.735 16.368-17.735"/></g></svg>