<svg xmlns="http://www.w3.org/2000/svg" width="120" height="80" fill="none"><path fill="#E7004C" d="M5.167 20.397v8.838a1.98 1.98 0 0 0 1.05 1.71l12.493 6.897a1.89 1.89 0 0 0 1.82.036s3.472-1.626 3.792-1.835a2.23 2.23 0 0 0 .934-1.642c0-.525-.047-3.053-.047-3.053a1.96 1.96 0 0 0-.97-1.573l-7.622-4.186a2.03 2.03 0 0 1-1.049-1.783l-.031-3.026a1.89 1.89 0 0 1 1.274-1.731l3.415-1.69a2.14 2.14 0 0 1 2.187.064l12.341 6.776a2.1 2.1 0 0 1 1.05 1.757l-.085 13.984a1.87 1.87 0 0 1-1.049 1.662l-14.523 7.396a1.85 1.85 0 0 1-1.778 0L.914 39.268A1.87 1.87 0 0 1 0 37.595v-17.89a1.978 1.978 0 0 1 2.885-1.779l1.27.693a2.05 2.05 0 0 1 1.011 1.778z"/><path fill="#0065A1" d="M35.69 34.837v-8.828a1.96 1.96 0 0 0-1.006-1.71L22.19 17.404a1.89 1.89 0 0 0-1.82-.037l-3.902 1.909a1.615 1.615 0 0 0-.855 1.574v3.05a1.85 1.85 0 0 0 1.033 1.631l7.61 4.196a1.98 1.98 0 0 1 .987 1.731l.031 3.027a2.1 2.1 0 0 1-1.154 1.751l-3.503 1.679a2.2 2.2 0 0 1-1.967 0L6.34 31.05a1.89 1.89 0 0 1-1.233-1.715v-14.03a1.9 1.9 0 0 1 1.096-1.663l14.508-7.406a1.9 1.9 0 0 1 1.83 0l17.34 9.719a1.91 1.91 0 0 1 .96 1.705v17.89a1.977 1.977 0 0 1-2.884 1.778l-1.27-.692a2.05 2.05 0 0 1-.996-1.8zM48.014 25.4h8.696v-8.691h-8.696v8.69zm0 23.445a8.33 8.33 0 0 0 2.586 6.11 9.6 9.6 0 0 0 6.105 2.586V31.164h-8.691v17.702zm57.397-34.386h-8.69v34.386a8.35 8.35 0 0 0 2.58 6.11 9.62 9.62 0 0 0 6.11 2.586V39.834h8.696v-8.67h-8.696V14.46zM89.965 48.834v-9a8.67 8.67 0 0 0-8.691-8.67H63.887V74h8.69V57.53h8.697a8.67 8.67 0 0 0 8.69-8.696zm-8.728-1.573a1.54 1.54 0 0 1-1.573 1.573h-7.086v-9.031h7.086a1.543 1.543 0 0 1 1.573 1.573v5.9z"/></svg>