<svg xmlns="http://www.w3.org/2000/svg" width="914" height="473" viewBox="0 0 913.56 472.16"><style>.s0{fill:#0032a6}</style><g id="Logos_Schrift_Kopie"><path id="Rechteck_3" d="M413.19 66.73h43.92c2.04 0 3.69 1.65 3.69 3.69v44.3c0 2.04-1.65 3.69-3.69 3.69h-43.92c-2.04 0-3.7-1.65-3.7-3.69v-44.3c0-2.04 1.66-3.69 3.7-3.69" class="s0"/><path d="M413.18 151.82h43.93c2.04 0 3.69 1.66 3.69 3.69v148.78c0 2.03-1.65 3.69-3.69 3.69-26.28 0-47.63-21.34-47.63-47.62V155.51c0-2.03 1.66-3.69 3.7-3.69M780.76 151.82h-47.63v-81.4c0-2.04-1.65-3.69-3.69-3.69h-43.93c-2.04 0-3.7 1.65-3.7 3.69v189.94c0 26.29 21.32 47.62 47.63 47.62 2.04 0 3.69-1.65 3.69-3.69V203.14h47.63a3.69 3.69 0 0 0 3.69-3.7v-43.93c0-2.03-1.65-3.69-3.69-3.69M495.76 155.51v202.31c0 26.29 21.32 47.61 47.62 47.61 2.04 0 3.69-1.65 3.69-3.69V307.6h55.38c26.29 0 47.62-21.32 47.62-47.62v-60.55c0-26.3-21.32-47.63-47.62-47.63h-103c-2.04 0-3.7 1.65-3.7 3.7zm53.07 95V208.9c0-1.91 1.55-3.46 3.46-3.46h41.26c1.92 0 3.47 1.55 3.47 3.46v41.61c0 1.91-1.55 3.46-3.47 3.46h-41.26c-1.91 0-3.46-1.55-3.46-3.46" class="s0"/><path d="M351.2 221.72v-29.41c0-1.7-1.14-2.54-1.63-2.82s-1.79-.85-3.26 0l-93.5 53.98c-7.81 4.51-17.51 4.51-25.33 0l-21.58-12.46c-4.89-2.83-7.93-8.09-7.93-13.73v-.5c0-5.65 3.04-10.91 7.93-13.73l64.63-37.31a8.15 8.15 0 0 0 4.06-7.03c0-2.9-1.56-5.59-4.06-7.03l-21.58-12.46c-5.43-3.14-12.18-3.14-17.6 0l-99.09 57.21a6.33 6.33 0 0 0-3.15 5.46v45.32c0 2.89 1.55 5.58 4.06 7.03l80.84 46.68c16.13 9.31 36.16 9.31 52.28 0l58.77-33.94c16.12-9.31 26.13-26.65 26.14-45.26" style="fill:#ed3d7c"/><path d="m209.77 224.31 21.58 12.46a17.67 17.67 0 0 0 17.6 0l99.09-57.21a6.33 6.33 0 0 0 3.16-5.47v-45.82c0-2.89-1.56-5.58-4.06-7.03l-83.19-48.03c-14.68-8.47-32.91-8.47-47.6 0l-63.45 36.63c-14.68 8.48-23.79 24.27-23.79 41.22v32.62c0 1.69 1.14 2.54 1.62 2.82.49.28 1.79.84 3.26 0l93.5-53.98a25.3 25.3 0 0 1 12.67-3.39c4.38 0 8.76 1.13 12.67 3.39l21.58 12.46c4.89 2.82 7.92 8.08 7.92 13.73 0 5.64-3.03 10.9-7.92 13.73l-64.63 37.31a8.13 8.13 0 0 0-4.06 7.03v.5c0 2.89 1.56 5.58 4.06 7.03z" class="s0"/></g></svg>