<svg xmlns="http://www.w3.org/2000/svg" width="152" height="30" fill="none"><mask id="a" width="138" height="30" x="0" y="0" maskUnits="userSpaceOnUse" style="mask-type:luminance"><path fill="#fff" d="M137.889 0H.111v29.802H137.89z"/></mask><g mask="url(#a)"><path fill="#0078FB" fill-rule="evenodd" d="M23.764 0H7.996L.11 13.279l7.885 13.279h15.768l7.885-13.28zM19.71 6.828h-7.66l-3.83 6.45 3.83 6.451h7.66l3.83-6.45z" clip-rule="evenodd"/><path fill="#737373" d="M13.583 9.404h4.57l2.286 3.85-2.285 3.848h-4.571l-2.286-3.849z"/><path fill="#464646" d="m18.156 17.105-2.256-3.85-2.315 3.85z"/><path fill="#C7C7C7" d="M18.156 9.404h-4.571l2.315 3.85z"/><path fill="#989898" d="m18.154 9.404-2.256 3.85h4.553zm-2.256 3.85-2.315-3.85-2.286 3.85z"/><path fill="#0058FB" d="m23.762 26.557 7.884-13.279h-8.108l-3.83 6.45z"/><path fill="#0078FB" d="m23.762 26.558 4.055-6.828h-8.11z"/><path fill="#4CBAFB" d="M27.833 6.83h-8.125l3.83 6.45z"/><path fill="#9DDAFB" d="m27.834 6.837-4.295 6.44h8.109z"/><path fill="#0069E4" d="m15.88 26.558 3.83-6.828 4.054 6.828z"/><path fill="#0101D7" d="M.111 13.278h8.11l-4.28 6.45h8.11l3.946 6.83H7.996l-4.055-6.83z"/><path fill="#0035FB" fill-rule="evenodd" d="M8.22 13.28 3.956 6.83.111 13.28zl3.83 6.45H3.955z" clip-rule="evenodd"/><path fill="#0027FB" d="M19.709 6.828 15.996 0l-3.947 6.828z"/><path fill="#37A0FB" d="m23.762 0-4.054 6.828h8.125z"/><mask id="b" width="18" height="5" x="118" y="24" maskUnits="userSpaceOnUse" style="mask-type:luminance"><path fill="#fff" d="M135.27 24.031h-16.369v4.486h16.369z"/></mask><g mask="url(#b)"><path fill="#000" d="M122.845 24.41h.872v3.956h-.872zm7.799 1.14c-.027-.032-.3-.222-.736-.222-.545 0-.955.443-.955 1.044 0 .602.382 1.045.955 1.045.409 0 .682-.19.736-.222v1.077c-.109.031-.409.126-.791.126-.981 0-1.827-.76-1.827-2.057 0-1.172.764-2.058 1.827-2.058.41 0 .71.127.791.127zm-8.999 0c-.027-.032-.3-.222-.737-.222-.545 0-.954.443-.954 1.044 0 .602.382 1.045.954 1.045.41 0 .682-.19.737-.222v1.077c-.109.031-.409.126-.791.126-.954 0-1.827-.76-1.827-2.057 0-1.172.763-2.058 1.827-2.058.409 0 .709.127.791.127zm13.499.854c0 1.14-.764 2.058-1.8 2.058s-1.8-.918-1.8-2.058.764-2.058 1.8-2.058c1.064 0 1.8.919 1.8 2.058m-1.8-1.044c-.518 0-.9.474-.9 1.044s.382 1.045.9 1.045.9-.475.9-1.045-.382-1.044-.9-1.044m-6.381-.032s-.382-.127-.682-.127c-.355 0-.546.127-.546.317 0 .253.246.316.382.38l.246.095c.545.221.818.664.818 1.14 0 .98-.764 1.329-1.418 1.329-.464 0-.9-.096-.927-.096v-.917c.081.031.436.158.818.158.436 0 .627-.158.627-.38 0-.19-.164-.317-.382-.38a.45.45 0 0 0-.191-.063c-.491-.19-.872-.507-.872-1.171 0-.728.49-1.235 1.281-1.235.409 0 .818.127.846.127z"/></g><path fill="#000" d="M83.366 26.269v2.064h-.677v-3.476h.65v.565h.043a1 1 0 0 1 .375-.443q.258-.168.65-.168.355 0 .622.15a1 1 0 0 1 .415.439q.147.291.147.722v2.21h-.677v-2.129q0-.378-.197-.59-.197-.216-.541-.216a.85.85 0 0 0-.419.102.73.73 0 0 0-.287.299 1 1 0 0 0-.104.47m4.596 2.134q-.488 0-.853-.224a1.5 1.5 0 0 1-.566-.627 2.1 2.1 0 0 1-.2-.942q0-.54.2-.945.202-.405.566-.63.365-.224.853-.224t.854.224q.363.225.566.63.2.405.2.945t-.2.942a1.5 1.5 0 0 1-.566.627q-.365.224-.854.224m.003-.568a.8.8 0 0 0 .525-.168 1 1 0 0 0 .308-.445q.1-.278.101-.614a1.8 1.8 0 0 0-.101-.61 1 1 0 0 0-.308-.451.8.8 0 0 0-.525-.17.82.82 0 0 0-.53.17 1 1 0 0 0-.31.45q-.1.28-.1.611 0 .335.1.614a1 1 0 0 0 .31.445q.21.168.53.168m3.021.498-1.023-3.476h.7l.68 2.552h.035l.683-2.552h.7l.678 2.541h.034l.677-2.541h.7l-1.021 3.476h-.69l-.707-2.51h-.052l-.706 2.51zm6.192 1.303v-4.78h.661v.564h.057q.059-.108.17-.251a1 1 0 0 1 .307-.25q.197-.108.52-.108.422 0 .752.213t.518.613q.19.401.19.964 0 .564-.187.967a1.47 1.47 0 0 1-.516.618 1.34 1.34 0 0 1-.75.215q-.315 0-.518-.107a1 1 0 0 1-.312-.249 2 2 0 0 1-.174-.253h-.041v1.844zm.663-3.041q0 .366.107.642.105.277.307.433a.8.8 0 0 0 .494.154.8.8 0 0 0 .507-.161 1 1 0 0 0 .308-.441q.105-.279.106-.627 0-.345-.104-.618a.94.94 0 0 0-.308-.433.8.8 0 0 0-.51-.158.8.8 0 0 0-.497.152.93.93 0 0 0-.306.423q-.104.271-.104.634m4.282 1.815q-.33 0-.597-.122a1 1 0 0 1-.423-.36 1.03 1.03 0 0 1-.154-.577.93.93 0 0 1 .113-.485.83.83 0 0 1 .305-.3q.193-.112.43-.168.238-.057.485-.086l.507-.06a.8.8 0 0 0 .283-.078q.088-.055.088-.177v-.016q0-.295-.168-.46-.165-.162-.493-.162-.341 0-.539.152a.8.8 0 0 0-.269.332l-.636-.145q.113-.316.33-.511.22-.197.505-.285a1.97 1.97 0 0 1 1.041-.041q.236.047.439.177.207.129.337.369.132.237.132.617v2.309h-.661v-.475h-.027a1 1 0 0 1-.197.258q-.132.126-.337.21a1.3 1.3 0 0 1-.494.084m.147-.543a1 1 0 0 0 .48-.111.8.8 0 0 0 .306-.29.75.75 0 0 0 .106-.387v-.448a.35.35 0 0 1-.14.068q-.102.03-.233.052l-.256.038-.208.027a1.7 1.7 0 0 0-.36.084.6.6 0 0 0-.258.17.42.42 0 0 0-.095.29q0 .25.185.38a.8.8 0 0 0 .473.127m2.47.466v-3.476h.654v.552h.036a.84.84 0 0 1 .335-.442.96.96 0 0 1 .548-.163 3 3 0 0 1 .287.016v.648a1 1 0 0 0-.144-.025 1.4 1.4 0 0 0-.209-.016.9.9 0 0 0-.427.102.76.76 0 0 0-.403.68v2.124zm4.274-3.476v.543h-1.899v-.543zm-1.389-.833h.676v3.288q0 .197.059.297.059.097.152.133a.6.6 0 0 0 .206.034 1 1 0 0 0 .142-.011l.095-.018.122.559q-.059.023-.167.045a1.3 1.3 0 0 1-.272.027 1.2 1.2 0 0 1-.498-.095.86.86 0 0 1-.373-.308.9.9 0 0 1-.142-.523zm5.289 4.38q-.49 0-.854-.225a1.5 1.5 0 0 1-.565-.627 2.1 2.1 0 0 1-.202-.942q0-.54.202-.945.2-.405.565-.63t.854-.224.853.224q.364.225.566.63t.201.945q0 .54-.201.942a1.5 1.5 0 0 1-.566.627q-.364.224-.853.224m.002-.569a.8.8 0 0 0 .525-.168 1 1 0 0 0 .308-.445q.101-.278.101-.614 0-.333-.101-.61a1 1 0 0 0-.308-.451.8.8 0 0 0-.525-.17.82.82 0 0 0-.53.17 1 1 0 0 0-.31.45q-.099.28-.099.611 0 .335.099.614a1 1 0 0 0 .31.445.83.83 0 0 0 .53.168m4.028-2.979v.544h-1.965v-.543zm-1.426 3.477v-3.88a.96.96 0 0 1 .142-.54.9.9 0 0 1 .379-.324q.235-.108.511-.108.204 0 .348.033.146.032.215.06l-.158.547-.122-.032a.7.7 0 0 0-.181-.02q-.247 0-.353.122-.105.123-.104.353v3.789zm-69.434-9.748.002.001.006.003.024.012.079.036c.06.027.139.06.21.08 1.08.476 2.252.713 3.494.731h.001c.756 0 1.424-.13 2.003-.372l.003-.001c.576-.26 1.03-.599 1.355-1.056.322-.456.494-.97.494-1.54 0-.693-.188-1.25-.538-1.66l-.002-.002a3.3 3.3 0 0 0-1.26-.883c-.479-.203-1.101-.385-1.861-.566h-.003a10.5 10.5 0 0 1-1.39-.375 2.3 2.3 0 0 1-.806-.479q-.302-.28-.3-.75c0-.456.208-.83.657-1.096h.002c.442-.273 1.047-.415 1.79-.415.78 0 1.542.142 2.289.39a3 3 0 0 0 .237.07l.019.004.005.002h.001l.113.028.043-.107.452-1.102.034-.082-.063-.063-.094.095.094-.095-.002-.002-.002-.001-.003-.003-.006-.005-.01-.007-.016-.01-.047-.021a4 4 0 0 0-.253-.09c-.883-.332-1.856-.496-2.935-.496-.807 0-1.514.128-2.097.41-.58.262-1.035.639-1.339 1.115a2.83 2.83 0 0 0-.455 1.57c0 .659.189 1.217.559 1.626.356.394.789.695 1.297.884q.743.302 1.912.6l.002.001a16 16 0 0 1 1.362.395c.313.104.565.24.764.423a.8.8 0 0 1 .282.624c0 .51-.193.882-.576 1.133-.393.256-.999.395-1.837.395a6.8 6.8 0 0 1-2.793-.58 2 2 0 0 0-.251-.12l-.023-.01-.006-.002H46.7l-.12-.048-.052.116-.506 1.12-.053.117z"/><path stroke="#000" stroke-width=".267" d="m46.144 18.463-.06.12m0 0h.001l.002.001.006.003.024.012.079.036c.06.027.139.06.21.08 1.08.476 2.252.713 3.494.731h.001c.756 0 1.424-.13 2.003-.372l.003-.001c.576-.26 1.03-.599 1.355-1.056.322-.456.494-.97.494-1.54 0-.693-.188-1.25-.538-1.66l-.002-.002a3.3 3.3 0 0 0-1.26-.883c-.479-.203-1.101-.385-1.861-.566h-.003a10.5 10.5 0 0 1-1.39-.375 2.3 2.3 0 0 1-.806-.479q-.302-.28-.3-.75c0-.456.208-.83.657-1.096h.002c.442-.273 1.047-.415 1.79-.415.78 0 1.542.142 2.289.39a3 3 0 0 0 .237.07l.019.004.005.002h.001m-6.512 7.866-.115-.058.053-.117.506-1.12.053-.116.118.047m5.897-6.502.033-.13m-.033.13.113.028.043-.107.452-1.102.034-.082-.063-.063-.094.095.094-.095-.002-.002-.002-.001-.003-.003-.006-.005-.01-.007-.016-.01-.047-.021a4 4 0 0 0-.253-.09c-.883-.332-1.856-.496-2.935-.496-.807 0-1.514.128-2.097.41-.58.262-1.035.639-1.339 1.115a2.83 2.83 0 0 0-.455 1.57c0 .659.189 1.217.559 1.626.356.394.789.695 1.297.884q.743.302 1.912.6l.002.001a16 16 0 0 1 1.362.395c.313.104.565.24.764.423a.8.8 0 0 1 .282.624c0 .51-.193.882-.576 1.133-.393.256-.999.395-1.837.395a6.8 6.8 0 0 1-2.793-.58 2 2 0 0 0-.251-.12l-.023-.01-.006-.002H46.7m0 0-.05.123"/><path fill="#000" stroke="#000" stroke-width=".267" d="M56.885 14.09v.004c.019 1.03.24 1.954.666 2.752a4.8 4.8 0 0 0 1.82 1.895c.783.466 1.711.687 2.742.687s1.94-.221 2.722-.687a4.6 4.6 0 0 0 1.821-1.895c.445-.816.666-1.722.684-2.752v-.007c-.036-1.028-.257-1.934-.683-2.748v-.002a4.8 4.8 0 0 0-1.82-1.894c-.783-.466-1.693-.687-2.724-.687-1.03 0-1.959.22-2.742.687a4.83 4.83 0 0 0-1.82 1.894c-.427.799-.648 1.723-.666 2.752Zm8.433 1.964-.001.003a3.2 3.2 0 0 1-1.25 1.37c-.555.33-1.2.505-1.954.505-.756 0-1.417-.175-1.952-.503a3.53 3.53 0 0 1-1.253-1.375c-.296-.574-.437-1.239-.437-1.962 0-.724.141-1.388.437-1.962a3.4 3.4 0 0 1 1.252-1.374c.535-.329 1.197-.505 1.953-.505.754 0 1.398.175 1.953.504.54.35.956.8 1.252 1.375.296.574.437 1.238.437 1.962 0 .723-.141 1.388-.437 1.962ZM69.7 8.81h-.2l.076.184 4.263 10.279.034.082h1.715l.034-.082 4.245-10.279.076-.184h-1.717l-.034.083-3.47 8.652-3.49-8.652-.033-.083zm13.201 10.463 3.472-8.304 3.471 8.304.035.082h1.717l-.078-.186-4.354-10.278-.034-.081h-1.496l-.035.081-4.353 10.279-.079.185h1.701zM95 19.15v.133h7.005v-1.586h-5.419l-.018-8.754V8.81H95zm10.485-10.268h-.134v10.267h.134v.116h7.232v-1.496h-5.78v-2.948h5.256v-1.495h-5.256v-2.949h5.78V8.882z"/><path fill="#000" d="M116.803 19.222v.133h1.568v-.133l.017-7.404 6.323 7.49.04.047h1.153V8.81h-1.586v7.571l-6.339-7.524-.04-.047h-1.136z"/><path stroke="#000" stroke-width=".267" d="M116.937 8.81h1.002l.04.047 6.339 7.524V8.81h1.586v10.545h-1.153l-.04-.047-6.323-7.49-.017 7.404v.133h-1.568V8.81zm0 0v.133"/><path fill="#000" stroke="#000" stroke-width=".267" d="M132.483 19.221v.134h1.586v-8.96h3.577V8.899h-8.721v1.496h3.558zM42.238 8.943V8.81h-1.586v10.545h1.586z"/><path fill="#0000D8" d="m86.933 15.338.523.885-.523.903H85.92l-.524-.903.524-.885z"/></g></svg>