<svg xmlns="http://www.w3.org/2000/svg" width="176.6" height="83.56"><defs><mask id="a" width="14.22" height="32.94" x="162.38" y="15.02" maskUnits="userSpaceOnUse"><path fill="#fff" fill-rule="evenodd" d="M162.38 15.02h14.22v32.93h-14.22z"/></mask></defs><path fill="#1e3a71" fill-rule="evenodd" d="M120.48 15.72a4.09 4.09 0 1 1 4.09 4.09 4.09 4.09 0 0 1-4.09-4.09M22.13 47.94h-7.49V22h7.49Zm5.78-41.81c-.67 0-1.3.06-2 .1a8.6 8.6 0 0 1 .39 2.47 8 8 0 0 1-15.27 3.12A27.87 27.87 0 0 0 0 33v2.48A28 28 0 0 0 26.58 62h2.67a27.89 27.89 0 0 0 22.92-14.06H42.7c-2.72 0-7.32.26-9.88-1.46-3-2-4.33-4.37-4.33-10.07V15H36v7h5.1v3.4H36v9.9c0 3.88.11 7.16 2.06 8.39 1.67 1 2.76 1 4.7 1h11A28 28 0 0 0 27.91 6.13"/><g mask="url(#a)"><path fill="#1e3a71" fill-rule="evenodd" d="M176.6 47.94c-2.71 0-7.32.26-9.88-1.46-3-2-4.34-4.37-4.34-10.07V15h7.31v7H175v3.4h-5.31v9.81c0 3.88 0 7.66 2 8.67 1.75.91 3 .85 4.93.86v3.24"/></g><path fill="#1e3a71" fill-rule="evenodd" d="M150 40.41v-5.47c0-2.14 0-4.75-.13-6a3.75 3.75 0 0 0-1.34-2.49 5.2 5.2 0 0 0-3.22-1.07 5 5 0 0 0-3.3 1.07 3.35 3.35 0 0 0-1.3 2.35 53 53 0 0 0-.19 6.18v13h-7.24V34.94c0-2.16 0-3.26.06-5.5.16-5.75 5.66-8 12-8 6 0 11.78 2.3 11.87 8.11 0 2.34.08 3.29.08 5.44v13H150zM92.12 35v-5.51c.16-5.75 5.66-8 12-8 6 0 11.77 2.3 11.87 8.11 0 2.34.07 3.29.07 5.45s0 3.1-.07 5.44c-.09 5.81-5.89 8.1-11.87 8.11-6.31 0-11.81-2.3-12-8-.06-2.24 0-3.35 0-5.5m16.7 0c0-2.15 0-4.75-.15-6.05a3.7 3.7 0 0 0-1.33-2.49 5.24 5.24 0 0 0-3.22-1.07 5.1 5.1 0 0 0-3.31 1.07 3.44 3.44 0 0 0-1.3 2.35 54 54 0 0 0-.18 6.09 54 54 0 0 0 .19 6.18 3.37 3.37 0 0 0 1.3 2.35 5 5 0 0 0 3.3 1.06 5.16 5.16 0 0 0 3.22-1.06 3.75 3.75 0 0 0 1.34-2.53c.14-1.29.14-3.9.14-6M75.51 48h-4.83v6h-7.22v-6h-3.78v-3.4h3.78V29.49c.16-5.75 5.65-8 12-8 6 0 11.78 2.3 11.87 8.11 0 2.34.08 3.29.08 5.45s0 2.54-.06 4.88c-.1 5.71-5.87 8.07-11.84 8.07m-4.83-13.06v9.68h4.59a6.13 6.13 0 0 0 3.45-1 3.8 3.8 0 0 0 1.33-2.5c.15-1.29.12-4 .12-6.19s0-4.75-.13-6.05a3.8 3.8 0 0 0-1.34-2.49 5.24 5.24 0 0 0-3.22-1.07 5.1 5.1 0 0 0-3.31 1.07 3.44 3.44 0 0 0-1.3 2.35 53 53 0 0 0-.19 6.18M5.34 73.07H1.68v-1.49h9v1.49H7.02v10.28H5.34zM11 74.76h1.49v1.33a2.61 2.61 0 0 1 2.24-1.54 4.3 4.3 0 0 1 1 .12v1.42a2.4 2.4 0 0 0-.88-.16c-1.41 0-2.34 1.35-2.34 3.51v3.91H11Zm14.15 8.59h-1.54V82a3.09 3.09 0 0 1-2.82 1.57c-2.22 0-3.22-1.38-3.22-3.7v-5.1h1.59v4.45c0 2 .44 3 1.82 3.07 1.8 0 2.61-1.45 2.61-3.55v-4h1.59Zm2.06-1.68a4.26 4.26 0 0 0 2 .61c.73 0 1.62-.31 1.62-1.23 0-1.58-3.73-1.44-3.73-3.85 0-1.79 1.33-2.65 3-2.65a6.5 6.5 0 0 1 2 .34l-.14 1.38a4.6 4.6 0 0 0-1.67-.43c-.8 0-1.51.33-1.51 1 0 1.75 3.72 1.25 3.72 4a2.7 2.7 0 0 1-3 2.68 5 5 0 0 1-2.36-.47ZM39 76h-2.3v4.7a1.36 1.36 0 0 0 1.3 1.57 2 2 0 0 0 1.08-.3v1.35a5 5 0 0 1-1.35.23c-1.63 0-2.64-.77-2.64-2.49V76h-1.91v-1.24h1.94v-2l1.58-.5v2.5H39Zm7.55 2.19a2.17 2.17 0 0 0-2.14-2.4 2.38 2.38 0 0 0-2.31 2.4Zm1 4.77a6.6 6.6 0 0 1-2.71.56c-3.06 0-4.46-1.86-4.46-4.66 0-2.55 1.6-4.35 4-4.35 2.87 0 3.8 2.09 3.8 4.86h-6.1a2.81 2.81 0 0 0 2.83 2.86 5 5 0 0 0 2.65-.86Zm6.27-.73c1.79 0 2.53-1.77 2.53-3.2 0-1.6-.83-3.24-2.54-3.24s-2.4 1.62-2.37 3.19c0 1.35.68 3.25 2.38 3.25m2.6-.13a3.47 3.47 0 0 1-2.94 1.41c-2.6 0-3.69-2.3-3.69-4.65s1.21-4.34 3.71-4.34a3.07 3.07 0 0 1 2.85 1.37v-5.18H58v12.64h-1.57Zm9.07 1.25h1.68V71.58h-1.68zm7.03-10.28h-3.66v-1.49h9v1.49H74.2v10.28h-1.68zM85.11 76h-2v-1.24h2V74c0-2.09.54-3.45 2.89-3.45a6.6 6.6 0 0 1 1.06.1L89 71.89a2.4 2.4 0 0 0-.76-.1c-1.36 0-1.53.87-1.53 2v.93H89V76h-2.3v7.31h-1.59Zm9.35 6.23c1.85 0 2.68-1.68 2.68-3.21s-1-3.23-2.68-3.23-2.7 1.59-2.7 3.23.82 3.21 2.7 3.21m0-7.71a4.23 4.23 0 0 1 4.36 4.5 4.38 4.38 0 1 1-8.75 0 4.24 4.24 0 0 1 4.39-4.5m6.49.2h1.48v1.33a2.63 2.63 0 0 1 2.25-1.54 4.3 4.3 0 0 1 1 .12v1.42a2.3 2.3 0 0 0-.87-.16c-1.42 0-2.35 1.35-2.35 3.51v3.91H101Zm13 7.21h1.27c1.51 0 2.88-.32 2.88-1.9 0-1.83-1.6-2.08-3-2.08H114Zm0-5.36h.93c1.64 0 3-.15 3-1.89 0-1.4-1.2-1.75-2.18-1.75h-1.77Zm-1.68-5h3.18c2.45 0 4.13.8 4.13 3a2.72 2.72 0 0 1-2.42 2.8 2.74 2.74 0 0 1 2.73 2.83c0 2.52-2.09 3.13-4.49 3.13h-3.13Zm17.83 11.78h-1.53V82a3.1 3.1 0 0 1-2.82 1.57c-2.23 0-3.22-1.39-3.22-3.7v-5.12h1.58v4.46c0 2 .44 3 1.82 3.07 1.81 0 2.62-1.45 2.62-3.55v-4h1.58Zm2.06-1.68a4.3 4.3 0 0 0 2 .61c.72 0 1.61-.31 1.61-1.23 0-1.58-3.72-1.44-3.72-3.85 0-1.79 1.33-2.65 3-2.65a6.5 6.5 0 0 1 2 .34l-.13 1.38a4.6 4.6 0 0 0-1.67-.43c-.81 0-1.52.33-1.52 1 0 1.75 3.73 1.25 3.73 4a2.71 2.71 0 0 1-3 2.68 5 5 0 0 1-2.36-.47Zm7.4 1.68h1.59v-8.6h-1.59Zm-.1-10.52h1.79V71h-1.79Zm4.59 1.93h1.53v1.36a3.09 3.09 0 0 1 2.81-1.57c2.23 0 3.23 1.38 3.23 3.7v5.1h-1.59V78.9c0-2-.44-3-1.82-3.07-1.8 0-2.62 1.45-2.62 3.55v4h-1.58Zm15.87 3.47a2.18 2.18 0 0 0-2.15-2.4 2.37 2.37 0 0 0-2.3 2.4ZM161 83a6.6 6.6 0 0 1-2.72.56c-3 0-4.45-1.86-4.45-4.66 0-2.55 1.6-4.35 4-4.35 2.87 0 3.79 2.09 3.79 4.86h-6.13a2.81 2.81 0 0 0 2.83 2.86 5 5 0 0 0 2.65-.86Zm2.14-1.33a4.26 4.26 0 0 0 2 .61c.73 0 1.62-.31 1.62-1.23 0-1.58-3.73-1.44-3.73-3.85 0-1.79 1.33-2.65 3-2.65a6.5 6.5 0 0 1 2 .34l-.13 1.38a4.6 4.6 0 0 0-1.67-.43c-.81 0-1.52.33-1.52 1 0 1.75 3.72 1.25 3.72 4a2.7 2.7 0 0 1-3 2.68 5 5 0 0 1-2.36-.47Zm6.56 0a4.26 4.26 0 0 0 2 .61c.73 0 1.62-.31 1.62-1.23 0-1.58-3.73-1.44-3.73-3.85 0-1.79 1.33-2.65 3-2.65a6.5 6.5 0 0 1 2 .34l-.13 1.38a4.6 4.6 0 0 0-1.67-.43c-.81 0-1.52.33-1.52 1 0 1.75 3.72 1.25 3.72 4a2.7 2.7 0 0 1-3 2.68 5 5 0 0 1-2.36-.47Zm-48.71-33.73V21.96h7.22v25.98z"/><circle cx="12.39" cy="6" r="6" fill="#e2003b"/></svg>