<svg xmlns="http://www.w3.org/2000/svg" fill="none" class="h-[40px] w-[149px]" viewBox="0 0 149 40"><path fill="#262F59" fill-rule="evenodd" d="M22.013.36a3.63 3.63 0 0 0-3.15 0L5.385 6.845A3.63 3.63 0 0 0 3.42 9.31L1.127 19.344h8.536l1.172-5.13c.123-.538.485-.992.983-1.232l7.828-3.766a1.82 1.82 0 0 1 1.575 0l7.829 3.767c.498.24.86.693.983 1.232l1.172 5.13h8.544L37.456 9.31a3.63 3.63 0 0 0-1.966-2.465zM.09 23.877l.31-1.349h8.537l-.034.149a1.82 1.82 0 0 0 .35 1.537l5.417 6.787c.345.432.868.683 1.42.683h8.69c.552 0 1.075-.251 1.42-.683l5.416-6.787c.345-.432.474-.998.35-1.537l-.033-.149h8.544l.308 1.349a3.63 3.63 0 0 1-.702 3.075l-9.325 11.683a3.63 3.63 0 0 1-2.84 1.367h-14.96a3.63 3.63 0 0 1-2.839-1.367L.793 26.952a3.63 3.63 0 0 1-.702-3.075Zm19.552-10.818a1.82 1.82 0 0 1 1.575 0l4.839 2.329c.498.24.86.693.983 1.232l1.194 5.23a1.82 1.82 0 0 1-.35 1.537l-3.349 4.195a1.82 1.82 0 0 1-1.42.683h-5.37a1.82 1.82 0 0 1-1.42-.683l-3.348-4.195a1.82 1.82 0 0 1-.351-1.537l1.195-5.23c.123-.539.485-.993.983-1.232zm2.107 4.418h-2.23v2.235H17.29v2.228h2.229v2.223h2.23V21.94h2.233v-2.228H21.75v-2.235Z" clip-rule="evenodd"/><path fill="#262F59" d="M53.868 18.927a5.25 5.25 0 0 1-2.077-.407 5.2 5.2 0 0 1-1.655-1.137 5.3 5.3 0 0 1-1.095-1.711 5.7 5.7 0 0 1-.393-2.147q0-1.165.38-2.147a4.96 4.96 0 0 1 2.764-2.834 5.2 5.2 0 0 1 2.076-.407q1.122 0 2.006.379a4.6 4.6 0 0 1 1.515 1.01q.618.617.884 1.361l-1.711.8a2.76 2.76 0 0 0-.996-1.291q-.702-.52-1.698-.52-.983 0-1.74.464a3.2 3.2 0 0 0-1.165 1.277q-.406.813-.407 1.908c-.001 1.095.136 1.37.407 1.922q.422.814 1.165 1.277.758.463 1.74.463.996 0 1.697-.505.702-.519.997-1.305l1.712.8a3.8 3.8 0 0 1-.885 1.375 4.7 4.7 0 0 1-1.515.996q-.885.38-2.006.379m5.955-.169V8.305h1.908v8.77h4.476v1.683zm12.493.169a5.6 5.6 0 0 1-2.147-.407 5.3 5.3 0 0 1-2.904-2.848 5.6 5.6 0 0 1-.407-2.147q0-1.165.407-2.147a5.1 5.1 0 0 1 2.89-2.834 5.7 5.7 0 0 1 2.161-.407 5.7 5.7 0 0 1 2.161.407q.996.407 1.74 1.136.744.716 1.15 1.698.421.982.421 2.147 0 1.15-.42 2.147a5.3 5.3 0 0 1-2.905 2.848 5.6 5.6 0 0 1-2.147.407m0-1.74q.772 0 1.417-.267.646-.28 1.123-.771.49-.492.744-1.165a3.9 3.9 0 0 0 .266-1.46 3.8 3.8 0 0 0-.266-1.444 3.2 3.2 0 0 0-.744-1.165 3.2 3.2 0 0 0-1.123-.771 3.7 3.7 0 0 0-1.417-.267q-.758 0-1.403.266-.645.267-1.136.772a3.5 3.5 0 0 0-.744 1.165q-.267.66-.267 1.445c0 .785.09 1.01.267 1.46q.267.672.744 1.164a3.7 3.7 0 0 0 1.136.771q.645.267 1.403.267m11.196 1.74q-1.207 0-2.147-.505a3.8 3.8 0 0 1-1.46-1.39q-.532-.884-.532-2.006v-6.72h1.908v6.622q0 .645.28 1.165.296.519.8.813.505.28 1.15.281.66 0 1.151-.28.505-.295.786-.814.295-.52.295-1.165V8.305h1.908v6.721q0 1.122-.533 2.007a3.77 3.77 0 0 1-1.473 1.389q-.927.505-2.133.505m6.044-.169V8.305h3.41q1.655 0 2.876.674a4.7 4.7 0 0 1 1.908 1.838q.674 1.164.674 2.708 0 1.53-.674 2.722a4.8 4.8 0 0 1-1.908 1.852q-1.221.66-2.876.66h-3.41Zm1.908-1.683h1.544q1.065 0 1.838-.435.785-.45 1.22-1.235.435-.8.435-1.88 0-1.094-.435-1.88a3.07 3.07 0 0 0-1.22-1.22q-.772-.436-1.838-.436h-1.544zm8.478 1.683V8.305h1.487l5.753 7.745-.772.155v-7.9h1.908v10.453h-1.501l-5.668-7.8.701-.155v7.955zm9.544 0 3.606-10.453h2.469l3.606 10.453h-2.076l-.744-2.244h-4.041l-.757 2.244zm3.367-3.928h2.947l-1.74-5.206h.533zm8.631 3.928V9.99h-2.708V8.305h7.296V9.99h-2.666v8.77h-1.922Zm5.752 0V8.305h1.909v10.453zm6.711 0-3.648-10.453h2.077l2.862 8.657h-.407l2.863-8.657h2.076l-3.634 10.453zm6.991 0V8.305h6.946V9.99h-5.037v2.68h4.756v1.684h-4.756v2.722h5.037v1.683h-6.946ZM48.3 32.704v-.53l5.592-8.098h-5.265v-.756h6.348v.529l-5.58 8.099h5.706v.756zm11.521.15q-.97 0-1.7-.415a3 3 0 0 1-1.146-1.146q-.405-.743-.404-1.7V23.32h.82v6.298q0 .731.302 1.297.315.555.856.87.555.315 1.272.314.718 0 1.26-.315.555-.315.856-.869.303-.567.303-1.297V23.32h.818v6.273q0 .957-.403 1.7-.402.731-1.133 1.146-.73.416-1.7.416Zm-1.574-10.907v-1.109h1.07v1.109zm2.078 0v-1.109h1.07v1.109zm5.055 10.757V23.32h3.149q.894 0 1.574.352.681.353 1.059.996.39.642.39 1.486 0 1.008-.554 1.726-.541.705-1.461.97l2.216 3.854h-.97l-2.33-4.107.68.39H66.2v3.717h-.819Zm.819-4.472h2.355q.642 0 1.134-.252a1.95 1.95 0 0 0 .768-.73q.277-.48.277-1.109 0-.63-.277-1.083-.277-.465-.768-.718a2.35 2.35 0 0 0-1.134-.264H66.2v4.156Zm7.213 4.472V23.32h.82v9.384zm7.393.15a4.5 4.5 0 0 1-1.788-.352 4.4 4.4 0 0 1-1.436-1.02 4.8 4.8 0 0 1-.945-1.537 5.5 5.5 0 0 1-.327-1.94q0-1.045.327-1.927a4.6 4.6 0 0 1 .945-1.536 4.3 4.3 0 0 1 1.436-1.008 4.3 4.3 0 0 1 1.788-.365q.945 0 1.701.34t1.272.869.743 1.096l-.768.34a3.17 3.17 0 0 0-1.146-1.36q-.756-.517-1.802-.517-1.07 0-1.914.516a3.53 3.53 0 0 0-1.297 1.436q-.466.907-.466 2.117t.466 2.128a3.5 3.5 0 0 0 1.297 1.436q.844.504 1.914.504 1.046 0 1.802-.504a3.17 3.17 0 0 0 1.146-1.36l.768.34q-.226.554-.743 1.083a4.3 4.3 0 0 1-1.272.882q-.755.34-1.7.34Zm5.67-.15V23.32h.82v4.27h5.29v-4.27h.818v9.384h-.818v-4.358h-5.29v4.358z"/></svg>