<svg xmlns="http://www.w3.org/2000/svg" width="286" height="62" fill="none" viewBox="0 0 286 62"><path fill="#f79133" d="M18.468 44.95H14.25l-2.108 3.637h4.217zm-3.056-5.269h-4.216l-2.108 3.636h4.217zm6.111 0h-4.216L15.2 43.317h4.215zM44.527 0H40.31L18.254 38.047h4.216zM24.364 38.047H67.8L71.888 31 53.915 0h-7.494zM8.14 44.95l-.026.046 2.082 3.591h.053l2.108-3.636zm3.056 5.272-.026.045 2.082 3.591h.052l2.108-3.636zm49.547 0H17.307L15.2 53.858h43.436zM4.138 38.047 26.196 0h-8.224L0 31l4.085 7.047zm19.279 1.634-2.108 3.636h43.437l2.107-3.636zm-9.166 15.81-.026.045L17.972 62l35.943-.001 3.772-6.508zm-2.108-17.444h4.217L38.416 0h-4.215zm-6.11 0h4.216L32.306 0H28.09zm-.973 1.68 2.081 3.59h.053l2.107-3.636H5.086zm15.302 5.223-2.108 3.637H61.69l2.108-3.636z"/><path fill="#111" d="M92.331 10.044h8.224v35.28h17.746v6.63h-25.97zm34.379 0h8.224v41.91h-8.224zm20.046 0h10.901l17.648 31.374h.13V10.044h8.225v41.91h-10.444l-18.105-32.379h-.131v32.38h-8.224zm48.29 0h17.059q2.61 0 5.156.563 2.545.564 4.537 1.834a10.2 10.2 0 0 1 3.232 3.285q1.24 2.013 1.24 4.854-.001 3.552-2.219 5.86-2.22 2.31-5.81 3.315v.119q4.372.532 7.18 3.078t2.807 6.807q0 3.434-1.501 5.773a11.45 11.45 0 0 1-3.949 3.759q-2.45 1.42-5.614 2.042a33.3 33.3 0 0 1-6.43.622h-15.688zm8.225 17.05h6.355q4.113 0 6.266-1.48 2.154-1.481 2.154-4.203c0-1.815-.741-3.236-2.22-4.025q-2.219-1.184-6.919-1.184h-5.636zm0 18.586h6.419q1.566 0 3.394-.207 1.828-.206 3.362-.858a6.5 6.5 0 0 0 2.546-1.895q1.013-1.242 1.013-3.314 0-3.315-2.481-4.617t-7.506-1.303h-6.746V45.68zm35.063-35.636h8.224v41.91h-8.224zm16.269 6.512v-6.512H286v6.512h-11.715v35.399h-8.224V16.556z"/></svg>