<svg xmlns="http://www.w3.org/2000/svg" width="1196" height="236" fill="none" viewBox="0 0 1196 236"><path fill="#1a1a1a" d="M371.037 45.57h41.266V190H379.29l-45.392-66.025V190h-41.266V45.57h33.013l45.392 66.025zM537.067 190l-4.951-18.57h-41.679L485.485 190h-44.361l46.012-144.43h48.281L581.428 190zm-37.758-51.582h23.934l-11.967-44.361zM701.172 45.57v40.027h-34.045V190h-41.265V85.597h-34.045V45.57zm107.457 144.224-22.903-45.393H775.41v45.393h-41.266V45.364h57.772q23.728 0 39.203 14.03 15.474 13.824 15.474 36.726 0 12.793-5.983 23.109-5.778 10.317-16.3 16.713l28.473 53.852zM775.41 83.328v26.823h15.681q6.603.206 10.316-3.302 3.921-3.507 3.921-9.904 0-6.396-3.921-9.903-3.713-3.714-10.316-3.714zm231.96 88.309q-22.074 21.664-54.262 21.664t-54.471-21.664q-22.077-21.872-22.078-53.852t22.078-53.646q22.282-21.87 54.471-21.87t54.262 21.87q22.29 21.664 22.29 53.646 0 31.98-22.29 53.852m-79.641-28.68q10.11 9.904 25.379 9.904 15.267 0 25.172-9.904 10.11-10.11 10.11-25.172t-10.11-24.966q-9.905-10.11-25.172-10.11-15.269 0-25.379 10.11-9.903 9.903-9.904 24.966 0 15.062 9.904 25.172M1144.17 45.57h41.26V190h-33.01l-45.39-66.025V190h-41.27V45.57h33.01l45.4 66.025z"/><path stroke="#1a1a1a" stroke-width="29.412" d="M66.139 220.988H15V15h96.542v71.69l-45.404 45.403zM156.945 15h51.139v205.988h-96.542v-71.689l45.403-45.404z"/></svg>