<svg xmlns="http://www.w3.org/2000/svg" xml:space="preserve" id="Ebene_1" x="0" y="0" class="w-60" version="1.1" viewBox="0 0 463.7 115.3"><style>.st1{fill-rule:evenodd;clip-rule:evenodd;fill:#d32e0b}</style><path d="M96.1 41.6q-.15-3.9-.6-6.3c-.3-1.7-.8-3-1.5-4s-1.4-1.7-2.4-2.1c-.9-.4-2-.6-3.2-.6-2.9 0-5 1-6.2 2.9s-2 5.3-2.2 10.1zM80 50.2c.2 2.3.6 4.1 1.3 5.5s1.5 2.4 2.5 3.2 2 1.3 3.2 1.5c1.1.3 2.3.4 3.4.4 1.7 0 3.5-.1 5.4-.4s3.6-.6 5.2-.9c1.8-.4 3.6-.9 5.3-1.4V69c-1.5.5-3.1 1-4.8 1.4q-2.25.45-5.1.9c-1.9.3-3.9.4-6 .4-2.7 0-5.5-.3-8.3-.9-2.9-.6-5.4-1.8-7.8-3.6-2.3-1.8-4.2-4.4-5.8-7.9-1.5-3.4-2.3-8-2.3-13.7 0-5.1.7-9.4 2-12.7 1.3-3.4 3-6 5.2-8 2.1-2 4.5-3.3 7.1-4.1s5.2-1.2 7.9-1.2c2.4 0 4.9.3 7.4 1s4.8 2 6.8 3.9 3.6 4.6 4.9 8 1.9 7.8 1.9 13.2v4.5zm72.7 20.6L143 54.1l-9.5 16.7H115v-9.3h7.6l10.9-17.3-9.5-14.3h-8v-9.3h18.9l8.1 14.8 8.3-14.8h18.6v9.3H162l-9.5 14.3 10.8 17.3h7.6v9.3zm64.4-25.4c0-3.6-.2-6.4-.6-8.5s-1-3.6-1.9-4.7c-.8-1-1.8-1.7-3-2-1.1-.3-2.4-.4-3.9-.4-.9 0-1.9.2-2.9.5s-1.9.7-2.7 1c-1 .5-1.9 1-2.8 1.5v27.6c.9.3 1.9.5 2.9.7.9.2 1.8.4 2.7.5s1.9.2 2.7.2c1.1 0 2.2-.2 3.4-.5 1.1-.3 2.2-1 3-2.2.9-1.1 1.6-2.8 2.2-4.9s.9-5 .9-8.8m13.8 0c0 3.9-.4 7.3-1.1 10.2s-1.7 5.3-2.9 7.2c-1.2 2-2.6 3.5-4.2 4.7-1.5 1.2-3.2 2.1-4.9 2.7s-3.4 1-5 1.2q-2.4.3-4.5.3c-1.1 0-2.2-.1-3.2-.2-1-.2-1.9-.3-2.8-.5-1-.3-1.9-.5-2.9-.8v10h8.8v9.2h-31.5v-9.2h8.8V29.9h-8.8v-9.2h21.6l1 3.8q1.35-1.2 3-2.4c1-.6 2.2-1.1 3.5-1.7 1.4-.5 3-.8 4.7-.8 2.2 0 4.4.2 6.8.7s4.5 1.6 6.5 3.3 3.6 4.3 4.9 7.7c1.5 3.6 2.2 8.2 2.2 14.1m3.6 25.4v-9.3h8.8V9.2h-8.8V0h22.6v61.5h8.8v9.3zm68.4-25.1c0-3.7-.3-6.7-.8-8.8-.5-2.2-1.2-3.8-2.2-4.9-.9-1.1-2-1.8-3.2-2.1s-2.5-.4-3.9-.4a16 16 0 0 0-3.9.5c-1.2.4-2.3 1.1-3.2 2.3-.9 1.1-1.6 2.8-2.2 4.9-.5 2.1-.8 5-.8 8.6 0 3.5.3 6.4.9 8.5s1.4 3.8 2.4 4.9 2.1 1.9 3.2 2.3c1.2.4 2.3.5 3.4.5s2.3-.2 3.4-.5c1.2-.3 2.3-1.1 3.2-2.2 1-1.1 1.8-2.8 2.4-4.9 1-2.2 1.3-5.1 1.3-8.7m13.7 0c0 5.6-.8 10.2-2.3 13.6s-3.4 6-5.8 7.9c-2.3 1.9-4.9 3.1-7.7 3.7q-4.2.9-8.1.9c-2.6 0-5.3-.3-8.2-1-2.8-.7-5.4-1.9-7.7-3.8s-4.2-4.5-5.7-7.9-2.3-7.9-2.3-13.4c0-5.4.7-9.7 2.2-13.1 1.4-3.4 3.3-6 5.6-7.9s4.8-3.2 7.7-3.9c2.8-.7 5.6-1.1 8.4-1.1 2.7 0 5.4.3 8.3 1 2.8.7 5.4 1.9 7.7 3.8s4.2 4.5 5.7 7.9 2.2 7.8 2.2 13.3m42.1-12.6c-.7-.1-1.3-.3-2.1-.4-.6-.1-1.2-.2-1.9-.3s-1.4-.1-2-.1c-2 0-3.8.4-5.2 1.3s-2.6 1.6-3.3 2.4v25.6H355v9.2h-33.4v-9.2h8.8V29.9h-8.8v-9.2h21.6l1 5.8c.3-.7.6-1.4 1.1-2.2s1-1.5 1.8-2.2c.7-.7 1.6-1.3 2.7-1.7 1-.5 2.3-.7 3.7-.7.8 0 1.5 0 2.2.1s1.2.2 1.7.3 1 .3 1.5.4v12.6zm36 8.5q-.15-3.9-.6-6.3c-.3-1.7-.8-3-1.5-4s-1.4-1.7-2.4-2.1c-.9-.4-2-.6-3.2-.6-2.9 0-5 1-6.2 2.9s-2 5.3-2.2 10.1zm-16.2 8.6c.2 2.3.6 4.1 1.3 5.5s1.5 2.4 2.5 3.2 2 1.3 3.2 1.5c1.1.3 2.3.4 3.4.4 1.7 0 3.5-.1 5.4-.4s3.6-.6 5.2-.9c1.8-.4 3.6-.9 5.3-1.4V69c-1.5.5-3.1 1-4.8 1.4q-2.25.45-5.1.9c-1.9.3-3.9.4-6 .4-2.7 0-5.5-.3-8.3-.9-2.9-.6-5.4-1.8-7.8-3.6-2.3-1.8-4.2-4.4-5.8-7.9-1.5-3.4-2.3-8-2.3-13.7 0-5.1.7-9.4 2-12.7 1.3-3.4 3-6 5.2-8 2.1-2 4.5-3.3 7.1-4.1s5.2-1.2 7.9-1.2c2.4 0 4.9.3 7.4 1s4.8 2 6.8 3.9 3.6 4.6 4.9 8 1.9 7.8 1.9 13.2v4.5zm-123 47-2.1 12.1h-2.8l2.2-12.2c.1-.3.1-.6.1-.9 0-.9-.3-1.4-1.3-1.4-2 0-4 2.5-5.1 4-.1.1-.5.8-.5.9l-1.7 9.7h-2.8l2.2-12.6c0-.2.1-.4.1-.7 0-.9-.4-1.3-1.3-1.3-2.1 0-4 2.4-5.1 4-.1.1-.5.8-.5.9l-1.7 9.7h-2.8l2.9-16.8h2.4l-.2 4c1.1-2.2 3.4-4.3 5.9-4.3 2.2 0 3.3 1.2 3.3 3.4 0 .3 0 .6-.1.9 1.2-2.2 3.2-4.3 5.9-4.3 2.2 0 3.3 1.3 3.3 3.4zm9.2-7.2c-1 0-1.9-.9-1.9-1.9s.8-1.9 1.9-1.9c1 0 1.9.9 1.9 1.9 0 1.1-.9 1.9-1.9 1.9m-2.3 19.3h-2.8l2.9-16.8h2.8zm16.4-13.6c-.9-.4-2.5-1-3.9-1-1.5 0-2.9.6-2.9 2.3 0 1.4 1 2 1.7 2.3l1.7 1c1.4.8 2.6 2 2.6 4.1 0 3.7-2.3 5.2-5.4 5.2-1.9 0-3.7-.6-5.1-1.2l.4-2.4c1.4.6 3.3 1.2 4.6 1.2 1.7 0 2.7-.8 2.7-2.3 0-1.4-.5-2-1.5-2.5l-1.6-.9c-1.3-.8-3-2.1-3-4.4 0-3.6 3.1-4.8 5.8-4.8 1.6 0 3.1.5 4.1 1.2zm13.1 0c-.9-.4-2.5-1-3.9-1-1.5 0-2.9.6-2.9 2.3 0 1.4 1 2 1.7 2.3l1.7 1c1.4.8 2.6 2 2.6 4.1 0 3.7-2.3 5.2-5.4 5.2-1.9 0-3.7-.6-5.1-1.2l.4-2.4c1.4.6 3.3 1.2 4.6 1.2 1.7 0 2.7-.8 2.7-2.3 0-1.4-.5-2-1.5-2.5l-1.6-.9c-1.3-.8-3-2.1-3-4.4 0-3.6 3.1-4.8 5.8-4.8 1.6 0 3.1.5 4.1 1.2zM300 90c-1 0-1.9-.9-1.9-1.9s.8-1.9 1.9-1.9c1 0 1.9.9 1.9 1.9 0 1.1-.8 1.9-1.9 1.9m-2.3 19.3h-2.8l2.9-16.8h2.8zm14.4-14.9c-2.8 0-5.2 3.6-5.2 8.8 0 3 1.2 4.2 3 4.2 2.8 0 5.3-4 5.3-9-.1-2.9-1-4-3.1-4m-2.4 15.2c-3 0-5.8-1.4-5.8-6.4 0-6.5 3.5-11 8.2-11 2.8 0 5.8 1.4 5.8 6.4.1 6.4-3.3 11-8.2 11m26.8-12.4-2.1 12.1h-2.8l2.2-12.2c.1-.3.1-.5.1-.8 0-1.1-.7-1.5-1.7-1.5-2.3 0-4.9 3-6.1 4.8l-1.7 9.7h-2.8l2.9-16.8h2.4l-.2 4c1.3-2.1 3.9-4.3 6.4-4.3 2.4 0 3.7 1.2 3.7 3.6-.2.6-.2 1-.3 1.4m22.8-2.6c-1.8 0-3.8 2.6-4.9 4.6l-1.3 7.4c.8.3 2.2.8 3.2.8 3.5 0 5.5-4.8 5.5-9.1-.2-2.5-.8-3.7-2.5-3.7m-2.8 15c-1.8 0-3-.5-3.9-.9l-1.2 6.6h-2.8l4-22.8h2.4l-.1 3.2c.7-1.6 2.4-3.5 5.1-3.5 2.4 0 4.5 1.6 4.5 5.9 0 6.2-3 11.5-8 11.5m19.6-15.2c-2.8 0-5.2 3.6-5.2 8.8 0 3 1.2 4.2 3 4.2 2.8 0 5.3-4 5.3-9-.1-2.9-1-4-3.1-4m-2.4 15.2c-3 0-5.8-1.4-5.8-6.4 0-6.5 3.5-11 8.2-11 2.8 0 5.8 1.4 5.8 6.4.1 6.4-3.3 11-8.2 11m22-13.9c-.9-.4-2.5-1-3.9-1-1.5 0-2.9.6-2.9 2.3 0 1.4 1 2 1.7 2.3l1.7 1c1.4.8 2.6 2 2.6 4.1 0 3.7-2.3 5.2-5.4 5.2-1.9 0-3.7-.6-5.1-1.2l.4-2.4c1.4.6 3.3 1.2 4.6 1.2 1.7 0 2.7-.8 2.7-2.3 0-1.4-.5-2-1.5-2.5l-1.6-.9c-1.3-.8-3-2.1-3-4.4 0-3.6 3.1-4.8 5.8-4.8 1.6 0 3.1.5 4.1 1.2zm13.1 0c-.9-.4-2.5-1-3.9-1-1.5 0-2.9.6-2.9 2.3 0 1.4 1 2 1.7 2.3l1.7 1c1.4.8 2.6 2 2.6 4.1 0 3.7-2.3 5.2-5.4 5.2-1.9 0-3.7-.6-5.1-1.2l.4-2.4c1.4.6 3.3 1.2 4.6 1.2 1.7 0 2.7-.8 2.7-2.3 0-1.4-.5-2-1.5-2.5l-1.6-.9c-1.3-.8-3-2.1-3-4.4 0-3.6 3.1-4.8 5.9-4.8 1.6 0 3.1.5 4.1 1.2zm8.1-5.7c-1 0-1.9-.9-1.9-1.9s.8-1.9 1.9-1.9c1 0 1.9.9 1.9 1.9 0 1.1-.9 1.9-1.9 1.9m-2.3 19.3h-2.8l2.9-16.8h2.8zm15.7-14.7c-1.6 0-3.6 2.2-4.9 4.6L424 107c.7.2 1.4.3 2.4.3 4.7 0 6.3-5.2 6.3-9.1 0-2.4-.7-3.6-2.4-3.6m-3.8 15c-2.1 0-4.1-.5-5.6-1l3.9-22.1h2.8l-1.6 9.2c.8-1.6 2.5-3.5 5-3.5 2.4 0 4.5 1.6 4.5 5.9 0 5.9-2.8 11.5-9 11.5m15.3-.3h-2.9l4.1-22.7h2.8zm13.9-14.9c-2.2 0-4.1 2.9-4.6 6.8 3-.1 7-.3 7-4.1 0-1.9-.6-2.7-2.4-2.7m-4.7 8.8c0 3 .7 4 3 4 1.3 0 3.1-.6 4.8-1.5l-.5 2.8c-1.3.6-3.2 1.1-4.7 1.1-2.7 0-5.4-1.2-5.4-5.9 0-6.9 3.4-11.4 7.8-11.4 2.9 0 4.9 1.5 4.9 4.7 0 5.2-5.5 6.1-9.9 6.2" style="fill-rule:evenodd;clip-rule:evenodd;fill:#ee7c00"/><path d="M0 61.5h31.5v9.2H0z" class="st1"/><path d="M54.1 61.5V35.2c0-2.9-.3-5.3-1-7.3s-1.7-3.6-2.9-4.8c-1.3-1.2-2.8-2.1-4.6-2.7-1.8-.5-3.7-.8-5.9-.8-2.4 0-4.6.3-6.7 1s-3.9 1.4-5.4 2.2c-1.8.9-3.4 2-4.9 3.1l-1-5.4H0v9.2h8.8v23.2h13.8V34.8c1.2-.7 2.4-1.3 3.7-1.9 1.1-.5 2.4-.9 3.8-1.3s2.8-.6 4.3-.6c2.3 0 3.8.3 4.7 1q1.2 1.05 1.2 3.9v34.8h22.6v-9.2z" class="st1"/></svg>