<svg xmlns="http://www.w3.org/2000/svg" width="553" height="65"><g fill="none" fill-rule="evenodd"><path fill="#B23149" d="M6.32 43.031c-.045-1.159-.156-2.185-.335-3.079a6.795 6.795 0 0 0-.937-2.376c-.446-.691-1.037-1.327-1.774-1.908-.736-.58-1.663-1.138-2.778-1.674v-3.079c1.115-.536 2.042-1.082 2.778-1.64a7.14 7.14 0 0 0 1.774-1.908 7.131 7.131 0 0 0 .937-2.41c.179-.892.29-1.918.335-3.079l.201-6.695c.089-2.275.357-4.317.803-6.125.446-1.807 1.182-3.335 2.21-4.585 1.026-1.249 2.398-2.209 4.116-2.879C15.368.925 17.566.59 20.244.59h1.306c.423 0 1.014.045 1.774.134.402 1.831.602 3.37.602 4.619 0 1.339-.2 2.901-.602 4.686h-2.076c-.893 0-1.606.157-2.142.468-.535.313-.937.793-1.205 1.44-.267.647-.435 1.462-.502 2.443-.067.982-.1 2.165-.1 3.548 0 2.41-.09 4.418-.268 6.025-.179 1.606-.447 2.945-.803 4.017-.358 1.07-.804 1.952-1.339 2.644a9.785 9.785 0 0 1-1.874 1.84 9.824 9.824 0 0 1 1.874 1.842c.535.692.981 1.584 1.339 2.677.356 1.094.624 2.444.803 4.05.178 1.607.268 3.616.268 6.025 0 1.383.033 2.567.1 3.548.067.982.235 1.797.502 2.444.268.645.67 1.126 1.205 1.438.536.313 1.249.469 2.142.469h2.076c.402 1.829.602 3.392.602 4.687 0 1.294-.2 2.833-.602 4.619-.76.089-1.351.134-1.774.134h-1.306c-2.678 0-4.876-.335-6.594-1.005-1.718-.669-3.09-1.629-4.116-2.878-1.028-1.25-1.764-2.779-2.21-4.586-.446-1.808-.714-3.849-.803-6.125l-.201-6.762M531.987 54.947c.893 0 1.607-.156 2.143-.469.535-.312.936-.793 1.205-1.438.267-.647.434-1.462.502-2.444.066-.981.1-2.165.1-3.548 0-2.409.089-4.418.268-6.025.178-1.606.445-2.956.803-4.05.357-1.093.803-1.985 1.339-2.677a9.772 9.772 0 0 1 1.875-1.842 9.733 9.733 0 0 1-1.875-1.84c-.536-.692-.982-1.574-1.339-2.644-.358-1.072-.625-2.411-.803-4.017-.179-1.607-.268-3.615-.268-6.025 0-1.383-.034-2.566-.1-3.548-.068-.981-.235-1.796-.502-2.443-.269-.647-.67-1.127-1.205-1.44-.536-.311-1.25-.468-2.143-.468h-2.075c-.401-1.785-.602-3.347-.602-4.686 0-1.249.201-2.788.602-4.619.759-.089 1.35-.134 1.774-.134h1.305c2.678 0 4.876.335 6.595 1.004 1.717.67 3.089 1.63 4.116 2.879 1.026 1.25 1.763 2.778 2.209 4.585.446 1.808.714 3.85.804 6.125l.201 6.695c.044 1.161.155 2.187.334 3.079.178.893.491 1.697.937 2.41a7.161 7.161 0 0 0 1.775 1.908c.736.558 1.662 1.104 2.777 1.64v3.079c-1.115.536-2.041 1.094-2.777 1.674-.736.581-1.329 1.217-1.775 1.908a6.795 6.795 0 0 0-.937 2.376c-.179.894-.29 1.92-.334 3.079l-.201 6.762c-.09 2.276-.358 4.317-.804 6.125-.446 1.807-1.183 3.336-2.209 4.586-1.027 1.249-2.399 2.209-4.116 2.878-1.719.67-3.917 1.005-6.595 1.005h-1.305c-.424 0-1.015-.045-1.774-.134-.401-1.786-.602-3.325-.602-4.619 0-1.295.201-2.858.602-4.687h2.075"/><path fill="#343534" d="M49.215 31.231c.223.09.603.157 1.138.201.536.045 1.093.067 1.674.067 1.918 0 3.481-.558 4.686-1.673 1.205-1.116 1.807-2.812 1.807-5.088 0-1.339-.19-2.466-.569-3.381-.379-.914-.904-1.651-1.573-2.209a5.847 5.847 0 0 0-2.343-1.172 11.612 11.612 0 0 0-2.811-.334h-.938c-.357 0-.714.023-1.071.067v13.522ZM37.634 8.605c1.026-.134 2.599-.323 4.72-.57 2.119-.244 4.786-.368 7.999-.368 2.365 0 4.753.224 7.163.67 2.41.447 4.586 1.283 6.527 2.51 1.941 1.228 3.515 2.957 4.72 5.188 1.204 2.232 1.807 5.133 1.807 8.703 0 3.169-.48 5.802-1.439 7.899-.961 2.098-2.233 3.772-3.816 5.021-1.585 1.25-3.392 2.142-5.422 2.678a24.474 24.474 0 0 1-6.26.803c-.848 0-1.707-.034-2.577-.101-.87-.066-1.484-.144-1.841-.234v15.597a34.14 34.14 0 0 1-3.146.469c-.937.089-1.807.134-2.611.134-1.563 0-3.504-.2-5.824-.603V8.605ZM96.61 47.164c5.712 0 8.569-4.82 8.569-14.46 0-9.729-2.835-14.594-8.502-14.594-5.802 0-8.703 4.865-8.703 14.594 0 4.865.703 8.491 2.109 10.878 1.406 2.388 3.581 3.582 6.527 3.582Zm0 10.242c-3.66 0-6.818-.614-9.472-1.842-2.656-1.226-4.844-2.945-6.561-5.154-1.719-2.209-2.99-4.819-3.816-7.832-.826-3.013-1.238-6.303-1.238-9.874 0-3.57.412-6.884 1.238-9.941.826-3.057 2.097-5.701 3.816-7.933 1.717-2.231 3.905-3.983 6.561-5.255 2.654-1.271 5.812-1.908 9.472-1.908 3.659 0 6.805.637 9.439 1.908 2.633 1.272 4.808 3.024 6.527 5.255 1.717 2.232 2.989 4.876 3.816 7.933.825 3.057 1.238 6.371 1.238 9.941 0 3.571-.413 6.861-1.238 9.874-.827 3.013-2.099 5.623-3.816 7.832-1.719 2.209-3.894 3.928-6.527 5.154-2.634 1.228-5.78 1.842-9.439 1.842ZM120.575 8.672a36.742 36.742 0 0 1 3.615-.469 40.794 40.794 0 0 1 3.08-.134c.847 0 1.729.033 2.644.1.914.067 1.952.213 3.113.436l5.556 30.592a922.696 922.696 0 0 0 3.347-15.363 1247.846 1247.846 0 0 1 3.28-15.229 52.737 52.737 0 0 1 2.678-.369 26.773 26.773 0 0 1 3.012-.167c.892 0 1.807.056 2.745.167.937.112 1.74.235 2.41.369l6.962 30.927 5.556-30.927c1.16-.223 2.142-.369 2.946-.436.803-.067 1.628-.1 2.477-.1.892 0 1.829.033 2.811.1.981.067 2.097.213 3.347.436L168.64 56.401a38.29 38.29 0 0 1-2.577.403c-1.049.133-2.199.2-3.448.2-1.25 0-2.466-.078-3.648-.235-1.183-.156-1.975-.278-2.377-.368l-6.359-27.714-6.761 27.714c-.402.09-1.15.212-2.243.368a24.78 24.78 0 0 1-3.515.235 25.12 25.12 0 0 1-3.346-.2 41.286 41.286 0 0 1-2.477-.403L120.575 8.672M184.372 8.471h28.249c.178.982.312 1.897.402 2.744.089.849.134 1.652.134 2.41 0 1.473-.179 3.237-.536 5.289H196.22v7.363h12.92c.402 1.965.603 3.705.603 5.222 0 1.563-.201 3.303-.603 5.222h-12.92v9.505h16.803c.402 1.874.602 3.572.602 5.088 0 1.652-.2 3.414-.602 5.288h-28.651V8.471M219.649 8.605c2.186-.223 4.206-.436 6.058-.636a54.342 54.342 0 0 1 5.858-.302c2.454 0 4.909.235 7.364.703 2.454.469 4.641 1.284 6.56 2.444 1.919 1.161 3.481 2.744 4.686 4.753 1.205 2.008 1.807 4.551 1.807 7.631 0 1.651-.19 3.136-.568 4.452-.38 1.317-.871 2.488-1.473 3.514a13.984 13.984 0 0 1-2.008 2.678 18.74 18.74 0 0 1-2.176 1.941L256.2 56.401c-1.071.18-2.243.313-3.514.403a50.455 50.455 0 0 1-3.448.133c-.893 0-1.931-.045-3.113-.133-1.183-.09-2.221-.223-3.113-.403l-9.506-21.889.603-.335c.536-.268 1.126-.714 1.774-1.339a12.435 12.435 0 0 0 1.807-2.243 14.11 14.11 0 0 0 1.406-2.912 9.956 9.956 0 0 0 .569-3.347c0-2.231-.625-3.86-1.874-4.887-1.25-1.026-2.79-1.539-4.619-1.539-.447 0-.827.022-1.138.066-.313.045-.514.091-.603.134v38.291c-2.366.403-4.307.603-5.824.603-1.651 0-3.638-.2-5.958-.603V8.605"/><path fill="#B23149" d="M261.087 45.089a84.241 84.241 0 0 1 2.946-.335 29.013 29.013 0 0 1 2.744-.134c.892 0 1.807.045 2.745.134.937.09 1.918.2 2.945.335.178 1.026.312 2.008.402 2.945.089.937.134 1.853.134 2.744 0 .894-.045 1.808-.134 2.745-.09.937-.224 1.919-.402 2.946a39.747 39.747 0 0 1-2.945.401c-.938.089-1.853.134-2.745.134-.893 0-1.807-.045-2.744-.134-.938-.09-1.92-.224-2.946-.401a37.752 37.752 0 0 1-.401-2.946 28.372 28.372 0 0 1-.135-2.745c0-.891.044-1.807.135-2.744.088-.937.222-1.919.401-2.945"/><path fill="#343534" d="M310.355 45.089c1.473 3.213 2.455 6.515 2.947 9.907-1.295.491-2.5.893-3.616 1.205a26.876 26.876 0 0 1-3.213.702 36.037 36.037 0 0 1-3.045.335 46.115 46.115 0 0 1-3.114.101c-3.794 0-7.128-.614-10.007-1.841-2.879-1.227-5.289-2.934-7.231-5.121-1.941-2.187-3.402-4.797-4.385-7.832-.981-3.035-1.472-6.337-1.472-9.908 0-3.57.513-6.884 1.54-9.941 1.026-3.057 2.511-5.701 4.452-7.932 1.941-2.232 4.34-3.972 7.195-5.222 2.856-1.249 6.092-1.875 9.707-1.875 2.143 0 4.173.157 6.092.469 1.919.313 4.061.937 6.427 1.875a19.584 19.584 0 0 1-1.004 5.321c-.581 1.719-1.184 3.225-1.808 4.519a61.892 61.892 0 0 0-2.443-.803 22.62 22.62 0 0 0-2.109-.536 20.706 20.706 0 0 0-2.008-.301 21.568 21.568 0 0 0-2.143-.101c-3.614 0-6.416 1.217-8.4 3.649-1.987 2.433-2.98 6.058-2.98 10.878 0 9.461 3.972 14.192 11.916 14.192 1.428 0 2.779-.134 4.05-.401 1.273-.269 2.822-.714 4.652-1.339M335.727 47.164c5.712 0 8.569-4.82 8.569-14.46 0-9.729-2.835-14.594-8.502-14.594-5.802 0-8.702 4.865-8.702 14.594 0 4.865.702 8.491 2.108 10.878 1.405 2.388 3.581 3.582 6.527 3.582Zm0 10.242c-3.66 0-6.818-.614-9.472-1.842-2.656-1.226-4.843-2.945-6.561-5.154s-2.99-4.819-3.815-7.832c-.826-3.013-1.238-6.303-1.238-9.874 0-3.57.412-6.884 1.238-9.941.825-3.057 2.097-5.701 3.815-7.933 1.718-2.231 3.905-3.983 6.561-5.255 2.654-1.271 5.812-1.908 9.472-1.908 3.659 0 6.805.637 9.439 1.908 2.633 1.272 4.809 3.024 6.526 5.255 1.718 2.232 2.991 4.876 3.817 7.933.825 3.057 1.238 6.371 1.238 9.941 0 3.571-.413 6.861-1.238 9.874-.826 3.013-2.099 5.623-3.817 7.832-1.717 2.209-3.893 3.928-6.526 5.154-2.634 1.228-5.78 1.842-9.439 1.842ZM375.357 46.895c.312.045.67.068 1.072.068h1.271c1.741 0 3.381-.211 4.921-.636 1.539-.424 2.867-1.172 3.982-2.243 1.116-1.07 1.998-2.521 2.645-4.351s.971-4.173.971-7.029c0-2.812-.335-5.155-1.004-7.029-.67-1.874-1.552-3.358-2.645-4.452a9.404 9.404 0 0 0-3.848-2.343 15.138 15.138 0 0 0-4.619-.702c-.894 0-1.541.011-1.942.033-.402.023-.67.033-.804.033v28.651Zm-11.848-38.29c.669-.09 1.516-.19 2.544-.301 1.026-.111 2.141-.212 3.346-.302 1.205-.089 2.444-.167 3.716-.234a70.659 70.659 0 0 1 3.715-.101c8.435 0 14.839 2.109 19.213 6.326 4.373 4.218 6.56 10.5 6.56 18.845 0 8.479-2.232 14.694-6.694 18.643-4.464 3.95-11.068 5.925-19.815 5.925-2.232 0-4.385-.1-6.46-.302a168.497 168.497 0 0 1-6.125-.703V8.605ZM409.364 8.471h28.25c.178.982.312 1.897.402 2.744.088.849.133 1.652.133 2.41 0 1.473-.178 3.237-.535 5.289h-16.401v7.363h12.92c.401 1.965.602 3.705.602 5.222 0 1.563-.201 3.303-.602 5.222h-12.92v9.505h16.803c.401 1.874.602 3.572.602 5.088 0 1.652-.201 3.414-.602 5.288h-28.652V8.471M444.643 8.605c2.186-.223 4.206-.436 6.058-.636a54.315 54.315 0 0 1 5.858-.302c2.453 0 4.908.235 7.363.703 2.454.469 4.64 1.284 6.56 2.444 1.918 1.161 3.481 2.744 4.686 4.753 1.205 2.008 1.808 4.551 1.808 7.631 0 1.651-.191 3.136-.569 4.452-.38 1.317-.871 2.488-1.473 3.514a13.984 13.984 0 0 1-2.008 2.678 18.659 18.659 0 0 1-2.176 1.941l10.443 20.618c-1.071.18-2.243.313-3.514.403a50.455 50.455 0 0 1-3.448.133c-.893 0-1.931-.045-3.113-.133-1.182-.09-2.221-.223-3.112-.403L458.5 34.512l.603-.335c.535-.268 1.125-.714 1.773-1.339a12.482 12.482 0 0 0 1.808-2.243 14.108 14.108 0 0 0 1.405-2.912 9.956 9.956 0 0 0 .569-3.347c0-2.231-.625-3.86-1.874-4.887-1.25-1.026-2.79-1.539-4.619-1.539-.446 0-.826.022-1.138.066-.313.045-.513.091-.602.134v38.291c-2.366.403-4.308.603-5.824.603-1.652 0-3.638-.2-5.958-.603V8.605M495.853 36.185a24.095 24.095 0 0 1-4.384-2.075c-1.318-.804-2.444-1.751-3.381-2.846a11.928 11.928 0 0 1-2.176-3.782c-.514-1.427-.769-3.101-.769-5.02 0-2.365.401-4.463 1.205-6.293.802-1.829 1.929-3.381 3.38-4.653 1.45-1.272 3.202-2.231 5.255-2.878 2.052-.646 4.351-.971 6.895-.971 2.276 0 4.474.224 6.594.67 2.119.447 4.384 1.094 6.795 1.941-.179 1.429-.502 3.002-.971 4.719a29.873 29.873 0 0 1-1.774 4.854 63.63 63.63 0 0 0-4.084-1.54c-1.562-.535-3.503-.803-5.824-.803-.714 0-1.395.067-2.042.201a5.973 5.973 0 0 0-1.74.636 3.365 3.365 0 0 0-1.238 1.205c-.313.513-.469 1.149-.469 1.907 0 1.295.424 2.255 1.272 2.879.847.626 1.851 1.161 3.012 1.607l3.214 1.272a58.19 58.19 0 0 1 5.054 2.309c1.495.782 2.778 1.719 3.849 2.812 1.072 1.094 1.897 2.409 2.477 3.949.579 1.54.87 3.404.87 5.59 0 2.366-.413 4.497-1.238 6.393a13.27 13.27 0 0 1-3.649 4.887c-1.606 1.361-3.581 2.409-5.924 3.147-2.343.736-5.032 1.104-8.067 1.104-2.767 0-5.211-.225-7.33-.67-2.12-.445-4.407-1.138-6.861-2.075.177-1.562.49-3.224.937-4.987a68.327 68.327 0 0 1 1.607-5.389c4.105 1.785 7.674 2.678 10.711 2.678 2.275 0 4.049-.346 5.321-1.038 1.272-.692 1.908-1.885 1.908-3.581 0-.713-.134-1.328-.401-1.841a4.102 4.102 0 0 0-1.072-1.306 6.83 6.83 0 0 0-1.505-.903 40.637 40.637 0 0 0-1.707-.703l-3.75-1.406"/></g></svg>