<svg xmlns="http://www.w3.org/2000/svg" width="553" height="65"><g fill="none" fill-rule="evenodd"><path fill="#B23149" d="M6.32 43.031q-.067-1.738-.335-3.079a6.8 6.8 0 0 0-.937-2.376q-.669-1.036-1.774-1.908-1.105-.87-2.778-1.674v-3.079q1.673-.803 2.778-1.64a7.1 7.1 0 0 0 1.774-1.908 7.1 7.1 0 0 0 .937-2.41q.268-1.338.335-3.079l.201-6.695q.134-3.413.803-6.125.668-2.71 2.21-4.585 1.539-1.874 4.116-2.879T20.244.59h1.306q.634 0 1.774.134.603 2.746.602 4.619 0 2.008-.602 4.686h-2.076q-1.339 0-2.142.468-.803.47-1.205 1.44-.401.971-.502 2.443-.1 1.473-.1 3.548 0 3.615-.268 6.025-.269 2.409-.803 4.017-.537 1.606-1.339 2.644a9.8 9.8 0 0 1-1.874 1.84 9.8 9.8 0 0 1 1.874 1.842q.802 1.038 1.339 2.677.534 1.641.803 4.05.267 2.411.268 6.025 0 2.075.1 3.548.101 1.473.502 2.444.402.969 1.205 1.438.803.47 2.142.469h2.076q.603 2.744.602 4.687 0 1.94-.602 4.619-1.14.134-1.774.134h-1.306q-4.017 0-6.594-1.005t-4.116-2.878q-1.542-1.875-2.21-4.586-.67-2.712-.803-6.125zm525.667 11.916q1.34 0 2.143-.469.802-.47 1.205-1.438.4-.97.502-2.444.1-1.473.1-3.548 0-3.614.268-6.025.267-2.409.803-4.05.535-1.64 1.339-2.677a9.8 9.8 0 0 1 1.875-1.842 9.7 9.7 0 0 1-1.875-1.84q-.804-1.038-1.339-2.644-.536-1.608-.803-4.017-.268-2.41-.268-6.025 0-2.075-.1-3.548-.102-1.472-.502-2.443-.403-.97-1.205-1.44-.804-.467-2.143-.468h-2.075q-.602-2.677-.602-4.686 0-1.873.602-4.619Q531.05.59 531.686.59h1.305q4.017 0 6.595 1.004 2.576 1.005 4.116 2.879t2.209 4.585.804 6.125l.201 6.695q.066 1.741.334 3.079.267 1.34.937 2.41a7.2 7.2 0 0 0 1.775 1.908q1.104.836 2.777 1.64v3.079q-1.673.804-2.777 1.674-1.105.872-1.775 1.908a6.8 6.8 0 0 0-.937 2.376q-.268 1.34-.334 3.079l-.201 6.762q-.135 3.413-.804 6.125-.67 2.71-2.209 4.586-1.54 1.874-4.116 2.878-2.578 1.005-6.595 1.005h-1.305q-.636 0-1.774-.134-.602-2.678-.602-4.619 0-1.943.602-4.687z"/><path fill="#343534" d="M49.215 31.231q.335.135 1.138.201.803.067 1.674.067 2.878 0 4.686-1.673t1.807-5.088q0-2.008-.569-3.381t-1.573-2.209a5.85 5.85 0 0 0-2.343-1.172 11.6 11.6 0 0 0-2.811-.334h-.938q-.536 0-1.071.067zM37.634 8.605q1.539-.2 4.72-.57 3.179-.367 7.999-.368 3.548 0 7.163.67t6.527 2.51q2.912 1.842 4.72 5.188 1.806 3.348 1.807 8.703 0 4.754-1.439 7.899-1.442 3.147-3.816 5.021-2.377 1.874-5.422 2.678a24.5 24.5 0 0 1-6.26.803q-1.272 0-2.577-.101-1.305-.099-1.841-.234v15.597a34 34 0 0 1-3.146.469q-1.405.134-2.611.134-2.344 0-5.824-.603zM96.61 47.164q8.569 0 8.569-14.46 0-14.594-8.502-14.594-8.703 0-8.703 14.594 0 7.298 2.109 10.878 2.108 3.582 6.527 3.582m0 10.242q-5.49 0-9.472-1.842-3.985-1.84-6.561-5.154-2.578-3.313-3.816-7.832-1.238-4.518-1.238-9.874 0-5.355 1.238-9.941 1.238-4.585 3.816-7.933 2.576-3.347 6.561-5.255 3.981-1.907 9.472-1.908 5.488 0 9.439 1.908 3.949 1.908 6.527 5.255 2.576 3.348 3.816 7.933 1.238 4.586 1.238 9.941t-1.238 9.874q-1.24 4.519-3.816 7.832-2.578 3.314-6.527 5.154-3.95 1.842-9.439 1.842m23.965-48.734a37 37 0 0 1 3.615-.469 41 41 0 0 1 3.08-.134q1.271 0 2.644.1 1.371.101 3.113.436l5.556 30.592a923 923 0 0 0 3.347-15.363 1248 1248 0 0 1 3.28-15.229 53 53 0 0 1 2.678-.369 27 27 0 0 1 3.012-.167q1.338 0 2.745.167 1.405.168 2.41.369l6.962 30.927 5.556-30.927q1.74-.335 2.946-.436 1.204-.1 2.477-.1 1.338 0 2.811.1 1.472.101 3.347.436L168.64 56.401a38 38 0 0 1-2.577.403q-1.574.2-3.448.2-1.875 0-3.648-.235-1.774-.233-2.377-.368l-6.359-27.714-6.761 27.714q-.603.135-2.243.368a25 25 0 0 1-3.515.235 25 25 0 0 1-3.346-.2 41 41 0 0 1-2.477-.403zm63.797-.201h28.249q.267 1.473.402 2.744.134 1.273.134 2.41 0 2.21-.536 5.289H196.22v7.363h12.92q.603 2.947.603 5.222 0 2.344-.603 5.222h-12.92v9.505h16.803q.602 2.813.602 5.088 0 2.478-.602 5.288h-28.651zm35.277.134q3.28-.335 6.058-.636a54 54 0 0 1 5.858-.302q3.681 0 7.364.703 3.681.704 6.56 2.444t4.686 4.753q1.807 3.011 1.807 7.631 0 2.477-.568 4.452-.57 1.975-1.473 3.514a14 14 0 0 1-2.008 2.678 19 19 0 0 1-2.176 1.941L256.2 56.401q-1.607.269-3.514.403a51 51 0 0 1-3.448.133q-1.34 0-3.113-.133-1.775-.134-3.113-.403l-9.506-21.889.603-.335q.803-.402 1.774-1.339a12.4 12.4 0 0 0 1.807-2.243 14 14 0 0 0 1.406-2.912 10 10 0 0 0 .569-3.347q0-3.346-1.874-4.887-1.875-1.539-4.619-1.539-.671 0-1.138.066-.47.069-.603.134v38.291q-3.549.604-5.824.603-2.477 0-5.958-.603z"/><path fill="#B23149" d="M261.087 45.089a84 84 0 0 1 2.946-.335 29 29 0 0 1 2.744-.134q1.338 0 2.745.134 1.405.134 2.945.335.267 1.54.402 2.945.134 1.407.134 2.744 0 1.34-.134 2.745-.135 1.405-.402 2.946a40 40 0 0 1-2.945.401q-1.407.134-2.745.134t-2.744-.134-2.946-.401a38 38 0 0 1-.401-2.946 28 28 0 0 1-.135-2.745q0-1.337.135-2.744.132-1.406.401-2.945"/><path fill="#343534" d="M310.355 45.089q2.21 4.82 2.947 9.907-1.942.737-3.616 1.205a27 27 0 0 1-3.213.702 36 36 0 0 1-3.045.335 46 46 0 0 1-3.114.101q-5.69 0-10.007-1.841-4.318-1.84-7.231-5.121-2.911-3.28-4.385-7.832-1.472-4.552-1.472-9.908t1.54-9.941 4.452-7.932q2.912-3.348 7.195-5.222t9.707-1.875q3.214 0 6.092.469t6.427 1.875a19.6 19.6 0 0 1-1.004 5.321q-.872 2.578-1.808 4.519a62 62 0 0 0-2.443-.803 23 23 0 0 0-2.109-.536 21 21 0 0 0-2.008-.301 22 22 0 0 0-2.143-.101q-5.423 0-8.4 3.649-2.98 3.649-2.98 10.878 0 14.192 11.916 14.192 2.143 0 4.05-.401 1.908-.403 4.652-1.339m25.372 2.075q8.568 0 8.569-14.46 0-14.594-8.502-14.594-8.702 0-8.702 14.594 0 7.298 2.108 10.878 2.108 3.582 6.527 3.582m0 10.242q-5.49 0-9.472-1.842-3.984-1.84-6.561-5.154c-2.577-3.314-2.99-4.819-3.815-7.832q-1.239-4.518-1.238-9.874 0-5.355 1.238-9.941 1.238-4.585 3.815-7.933t6.561-5.255q3.981-1.907 9.472-1.908 5.488 0 9.439 1.908t6.526 5.255q2.577 3.348 3.817 7.933 1.238 4.586 1.238 9.941t-1.238 9.874q-1.24 4.519-3.817 7.832-2.576 3.314-6.526 5.154-3.95 1.842-9.439 1.842m39.63-10.511q.469.068 1.072.068h1.271q2.611 0 4.921-.636t3.982-2.243q1.674-1.606 2.645-4.351c.971-2.745.971-4.173.971-7.029q0-4.218-1.004-7.029t-2.645-4.452a9.4 9.4 0 0 0-3.848-2.343 15.1 15.1 0 0 0-4.619-.702q-1.34 0-1.942.033-.603.034-.804.033zm-11.848-38.29q1.003-.135 2.544-.301 1.539-.167 3.346-.302 1.808-.133 3.716-.234a71 71 0 0 1 3.715-.101q12.652 0 19.213 6.326 6.56 6.327 6.56 18.845 0 12.719-6.694 18.643-6.695 5.925-19.815 5.925-3.348 0-6.46-.302a169 169 0 0 1-6.125-.703zm45.855-.134h28.25q.267 1.473.402 2.744.133 1.273.133 2.41 0 2.21-.535 5.289h-16.401v7.363h12.92q.602 2.947.602 5.222 0 2.344-.602 5.222h-12.92v9.505h16.803q.602 2.813.602 5.088 0 2.478-.602 5.288h-28.652zm35.279.134q3.28-.335 6.058-.636a54 54 0 0 1 5.858-.302q3.68 0 7.363.703 3.68.704 6.56 2.444 2.878 1.74 4.686 4.753 1.808 3.011 1.808 7.631-.001 2.477-.569 4.452-.57 1.975-1.473 3.514a14 14 0 0 1-2.008 2.678 18.7 18.7 0 0 1-2.176 1.941l10.443 20.618q-1.607.269-3.514.403a51 51 0 0 1-3.448.133q-1.34 0-3.113-.133-1.774-.134-3.112-.403L458.5 34.512l.603-.335q.802-.402 1.773-1.339a12.5 12.5 0 0 0 1.808-2.243 14 14 0 0 0 1.405-2.912 10 10 0 0 0 .569-3.347q0-3.346-1.874-4.887-1.875-1.539-4.619-1.539-.67 0-1.138.066-.469.069-.602.134v38.291q-3.55.604-5.824.603-2.478 0-5.958-.603zm51.21 27.58a24 24 0 0 1-4.384-2.075q-1.976-1.205-3.381-2.846a11.9 11.9 0 0 1-2.176-3.782q-.77-2.141-.769-5.02 0-3.548 1.205-6.293 1.203-2.744 3.38-4.653 2.175-1.908 5.255-2.878t6.895-.971q3.414 0 6.594.67 3.179.67 6.795 1.941-.268 2.143-.971 4.719a30 30 0 0 1-1.774 4.854 64 64 0 0 0-4.084-1.54q-2.343-.803-5.824-.803-1.071 0-2.042.201a6 6 0 0 0-1.74.636 3.37 3.37 0 0 0-1.238 1.205q-.47.77-.469 1.907 0 1.943 1.272 2.879 1.27.939 3.012 1.607l3.214 1.272a58 58 0 0 1 5.054 2.309q2.242 1.173 3.849 2.812 1.608 1.64 2.477 3.949.87 2.31.87 5.59 0 3.549-1.238 6.393a13.3 13.3 0 0 1-3.649 4.887q-2.41 2.04-5.924 3.147-3.514 1.104-8.067 1.104-4.151-.001-7.33-.67t-6.861-2.075q.266-2.343.937-4.987a68 68 0 0 1 1.607-5.389q6.156 2.678 10.711 2.678 3.413 0 5.321-1.038t1.908-3.581q0-1.07-.401-1.841a4.1 4.1 0 0 0-1.072-1.306 6.8 6.8 0 0 0-1.505-.903 41 41 0 0 0-1.707-.703z"/></g></svg>