<svg xmlns="http://www.w3.org/2000/svg" width="310" height="81"><g fill="none" fill-rule="evenodd"><path fill="#1E5A96" d="M103.146 36.782h5.08c1.478 0 2.604-.405 3.376-1.218.773-.813 1.159-1.857 1.159-3.135 0-1.303-.386-2.37-1.16-3.203-.77-.833-1.897-1.249-3.374-1.249h-5.08v8.805Zm0 5.24v10.054h-6.833V22.738h11.914c3.48 0 6.241.89 8.283 2.67 2.044 1.78 3.065 4.107 3.065 6.981 0 2.89-1.021 5.217-3.065 6.984-2.042 1.765-4.804 2.649-8.283 2.649h-5.08Zm43.38-19.284V41.96c0 3.345-1.113 5.938-3.337 7.78-2.223 1.839-5.136 2.758-8.736 2.758-3.642 0-6.578-.92-8.81-2.759-2.23-1.841-3.346-4.434-3.346-7.78v-19.22h6.834V41.96c0 1.801.464 3.134 1.39 4 .927.866 2.238 1.3 3.932 1.3 1.68 0 2.971-.43 3.88-1.29.906-.86 1.36-2.197 1.36-4.01V22.738h6.833Zm11.07 24.1h13.365v5.238h-21.75v-3.062l13.122-21.037h-13.182v-5.239h21.63v2.942l-13.185 21.158Zm23.882 0h13.365v5.238h-21.749v-3.062l13.122-21.037h-13.183v-5.239h21.63v2.942l-13.185 21.158Zm22.754 0h12.638v5.238h-19.473V22.738h6.835v24.1Zm33.348-7.315h-11.51v7.314h13.565v5.239h-20.398V22.738h20.438v5.24H226.07v6.306h11.51v5.239Zm22.674 12.553h-6.793V22.738h6.793v29.338Zm24.798-24.099h-7.74v24.098h-6.834V27.977h-7.68v-5.24h22.254v5.24Zm24.869 13.803.04.12c-.135 3.44-1.154 6.065-3.054 7.88-1.904 1.813-4.66 2.718-8.275 2.718-3.628 0-6.577-1.114-8.849-3.344-2.271-2.23-3.407-5.124-3.407-8.684v-6.126c0-3.546 1.092-6.437 3.277-8.674 2.183-2.236 5.02-3.355 8.516-3.355 3.708 0 6.543.934 8.504 2.8 1.964 1.868 3.071 4.52 3.327 7.96l-.04.12h-6.632c-.094-1.906-.52-3.325-1.28-4.25-.759-.928-2.053-1.39-3.879-1.39-1.546 0-2.763.62-3.65 1.863-.886 1.243-1.33 2.871-1.33 4.886v6.166c0 2.028.485 3.668 1.452 4.916.967 1.25 2.297 1.875 3.991 1.875 1.64 0 2.802-.437 3.487-1.311.685-.872 1.075-2.263 1.168-4.17h6.634ZM11.72 69.012c-15.628-15.621-15.628-40.948 0-56.57 15.625-15.62 40.962-15.618 56.588 0 15.627 15.623 15.626 40.947 0 56.569-15.627 15.622-40.96 15.623-56.588.001Zm87.811.116c.473 0 .89-.146 1.249-.437.359-.292.539-.65.539-1.076h1.281l.014.045c.024.675-.276 1.275-.9 1.801a3.286 3.286 0 0 1-2.183.788c-1.139 0-2.01-.37-2.612-1.113-.604-.743-.905-1.677-.905-2.8v-.305c0-1.114.303-2.043.908-2.789.606-.744 1.475-1.117 2.61-1.117.916 0 1.664.27 2.247.81.58.54.862 1.204.842 1.99l-.014.043h-1.288c0-.478-.17-.883-.507-1.22-.338-.334-.765-.502-1.28-.502-.75 0-1.283.269-1.603.806-.322.537-.482 1.196-.482 1.976v.303c0 .8.158 1.466.477 1.998.319.533.855.8 1.607.8Zm6.156-5.81a2.89 2.89 0 0 1 .995-.878c.393-.21.828-.315 1.306-.315.834 0 1.485.25 1.95.752.466.502.7 1.274.7 2.315v4.905h-1.427v-4.919c0-.646-.139-1.124-.416-1.433-.277-.308-.691-.463-1.24-.463-.397 0-.755.093-1.076.279a2.325 2.325 0 0 0-.792.756v5.78h-1.426V58.811h1.426v4.508Zm9.33 5.73c.516 0 .983-.132 1.397-.396.415-.265.685-.568.811-.91v-1.268h-1.6c-.574 0-1.033.143-1.379.432-.344.289-.516.628-.516 1.017 0 .347.108.62.325.822.217.202.537.304.962.304Zm2.367 1.05a11.643 11.643 0 0 1-.112-.626 4.722 4.722 0 0 1-.047-.547 3.312 3.312 0 0 1-1.039.944c-.426.254-.886.38-1.378.38-.816 0-1.437-.208-1.864-.626-.427-.416-.64-.992-.64-1.725 0-.747.302-1.333.908-1.754.605-.423 1.427-.634 2.464-.634h1.549v-.773c0-.458-.14-.821-.42-1.09-.28-.267-.675-.401-1.186-.401-.46 0-.832.117-1.118.351-.288.234-.432.515-.432.843h-1.36l-.015-.044c-.029-.568.24-1.09.808-1.562.566-.473 1.299-.709 2.196-.709.887 0 1.601.225 2.142.677.54.45.81 1.1.81 1.949v3.77c0 .279.015.549.044.81.029.26.082.516.16.766h-1.47Zm4.572-7.828.1 1.164c.261-.414.589-.737.981-.965.394-.23.842-.344 1.343-.344.845 0 1.498.248 1.961.741.463.495.695 1.258.695 2.29v4.942h-1.425v-4.913c0-.69-.137-1.18-.409-1.468-.273-.29-.69-.434-1.249-.434-.41 0-.773.099-1.09.296a2.173 2.173 0 0 0-.755.81v5.709h-1.426V62.27h1.274Zm8.217 4.21c0 .786.166 1.418.5 1.896.333.477.839.715 1.519.715.43 0 .79-.097 1.078-.292.29-.195.53-.472.717-.829v-3.602a2.206 2.206 0 0 0-.717-.793c-.294-.195-.648-.292-1.063-.292-.68 0-1.19.284-1.527.853-.339.569-.507 1.3-.507 2.192v.152Zm-1.426-.152c0-1.259.275-2.274.825-3.045.55-.772 1.31-1.158 2.28-1.158.497 0 .934.1 1.31.3.377.2.69.489.94.865l.174-1.02h1.137v7.87c0 1.004-.292 1.774-.876 2.313-.584.537-1.425.805-2.526.805-.376 0-.782-.051-1.22-.154a4.794 4.794 0 0 1-1.153-.424l.361-1.106c.256.144.565.261.926.35.363.09.72.134 1.071.134.695 0 1.201-.158 1.517-.474.316-.316.474-.797.474-1.443v-.882a2.49 2.49 0 0 1-.92.74c-.356.168-.766.25-1.23.25-.96 0-1.714-.347-2.265-1.042-.55-.694-.825-1.603-.825-2.727v-.152Zm10.203 3.77h-1.426V62.27h1.426v7.828Zm0-9.833h-1.426v-1.454h1.426v1.454Zm3.387 2.005.1 1.164c.261-.414.589-.737.981-.965.394-.23.841-.344 1.343-.344.844 0 1.498.248 1.961.741.463.495.695 1.258.695 2.29v4.942h-1.425v-4.913c0-.69-.137-1.18-.41-1.468-.272-.29-.689-.434-1.248-.434-.41 0-.773.099-1.09.296a2.173 2.173 0 0 0-.755.81v5.709h-1.426V62.27h1.274Zm8.217 4.21c0 .786.167 1.418.5 1.896.333.477.84.715 1.52.715.43 0 .789-.097 1.078-.292.29-.195.529-.472.716-.829v-3.602a2.206 2.206 0 0 0-.716-.793c-.294-.195-.649-.292-1.064-.292-.68 0-1.19.284-1.526.853-.34.569-.508 1.3-.508 2.192v.152Zm-1.425-.152c0-1.259.275-2.274.825-3.045.55-.772 1.31-1.158 2.28-1.158.496 0 .933.1 1.31.3.376.2.69.489.94.865l.174-1.02h1.136v7.87c0 1.004-.291 1.774-.875 2.313-.584.537-1.426.805-2.526.805-.376 0-.783-.051-1.22-.154a4.794 4.794 0 0 1-1.154-.424l.362-1.106c.255.144.565.261.926.35.362.09.719.134 1.071.134.695 0 1.2-.158 1.516-.474.317-.316.474-.797.474-1.443v-.882a2.49 2.49 0 0 1-.919.74c-.357.168-.766.25-1.23.25-.96 0-1.715-.347-2.265-1.042-.55-.694-.825-1.603-.825-2.727v-.152Zm14.191 3.77h-1.432V59.564h1.432v10.534Zm9.785-9.413h-3.387v9.413h-1.426v-9.413h-3.38v-1.121h8.193v1.121Zm5.557 9.412v-6.771h-1.222v-1.057h1.222v-.99c0-.835.22-1.48.656-1.936.436-.456 1.045-.683 1.827-.683.164 0 .33.013.496.04.166.026.35.063.553.111l-.173 1.086a3.012 3.012 0 0 0-.314-.05 3.11 3.11 0 0 0-.388-.023c-.415 0-.724.124-.927.373-.202.248-.303.609-.303 1.081v.991h1.628v1.057h-1.628v6.771h-1.427Zm5.353-3.83c0 .829.175 1.513.525 2.051.35.54.87.81 1.56.81.68 0 1.196-.27 1.548-.81.352-.538.529-1.222.529-2.051v-.16c0-.818-.177-1.5-.532-2.044-.355-.545-.875-.817-1.56-.817-.68 0-1.195.272-1.545.817-.35.544-.525 1.226-.525 2.044v.16Zm-1.426-.156c0-1.157.314-2.111.941-2.86.627-.751 1.479-1.126 2.555-1.126 1.086 0 1.943.374 2.573 1.121.63.748.944 1.703.944 2.865v.16c0 1.167-.313 2.122-.94 2.864-.628.743-1.482 1.114-2.562 1.114-1.081 0-1.937-.372-2.566-1.117-.63-.745-.945-1.7-.945-2.861v-.16Zm12.446-2.583-.732-.043c-.376 0-.694.09-.952.268a1.72 1.72 0 0 0-.596.753v5.592h-1.426V62.27h1.274l.137 1.143c.222-.405.495-.721.822-.949.325-.225.7-.339 1.125-.339a2.062 2.062 0 0 1 .542.079l-.194 1.324Zm6.94-3.147v1.889h1.484v1.056h-1.484v4.753c0 .367.076.625.228.774.152.15.353.225.605.225.081 0 .172-.01.27-.03.1-.018.188-.043.265-.072l.188.976a1.263 1.263 0 0 1-.467.214 2.38 2.38 0 0 1-.619.083c-.578 0-1.04-.174-1.382-.524-.343-.35-.514-.898-.514-1.646v-4.753h-1.244V62.27h1.244v-1.89h1.426Zm4.483 2.938c.27-.376.602-.67.995-.88.393-.21.828-.314 1.306-.314.835 0 1.485.25 1.95.752.466.502.7 1.274.7 2.315v4.905h-1.427v-4.919c0-.646-.139-1.124-.416-1.433-.277-.308-.691-.463-1.24-.463-.397 0-.755.093-1.076.279a2.325 2.325 0 0 0-.792.756v5.78h-1.426V58.811h1.426v4.508Zm9.99-.073c-.477 0-.885.201-1.223.602-.338.402-.545.906-.621 1.511l.013.036h3.612v-.188c0-.557-.15-1.023-.449-1.398-.299-.375-.743-.563-1.331-.563m.217 7.003c-1.09 0-1.958-.362-2.602-1.088-.644-.726-.966-1.668-.966-2.825v-.319c0-1.114.332-2.042.995-2.782.664-.74 1.449-1.11 2.356-1.11 1.056 0 1.854.318 2.395.955.54.637.81 1.485.81 2.546v.89h-5.08l-.022.037c.015.75.205 1.367.572 1.85.367.483.88.725 1.542.725a3.6 3.6 0 0 0 1.27-.206 2.92 2.92 0 0 0 .944-.568l.558.927c-.28.277-.65.507-1.108.692-.458.185-1.013.276-1.664.276m13.533-3.92c0-.897-.165-1.63-.495-2.196-.331-.567-.834-.85-1.51-.85-.439 0-.809.107-1.11.321a2.27 2.27 0 0 0-.72.865v3.393c.183.386.423.687.72.904.296.218.671.326 1.126.326.67 0 1.17-.239 1.497-.717.329-.477.492-1.109.492-1.895v-.151Zm1.427.151c0 1.128-.272 2.039-.815 2.731-.542.692-1.29 1.038-2.24 1.038-.517 0-.965-.1-1.346-.3a2.498 2.498 0 0 1-.949-.886l-.173 1.035h-1.165V58.812h1.425v4.384c.247-.348.552-.613.916-.796.365-.183.79-.275 1.278-.275.964 0 1.716.386 2.258 1.158.54.77.81 1.786.81 3.046v.151Zm4.746-3.234c-.477 0-.885.201-1.223.602-.338.402-.545.906-.622 1.511l.014.036h3.611v-.188c0-.557-.148-1.023-.448-1.398-.299-.375-.743-.563-1.332-.563m.218 7.003c-1.09 0-1.958-.362-2.603-1.088-.643-.726-.965-1.668-.965-2.825v-.319c0-1.114.332-2.042.994-2.782.665-.74 1.45-1.11 2.356-1.11 1.057 0 1.855.318 2.396.955.54.637.81 1.485.81 2.546v.89h-5.08l-.022.037c.015.75.205 1.367.572 1.85.367.483.88.725 1.542.725a3.6 3.6 0 0 0 1.27-.206 2.92 2.92 0 0 0 .944-.568l.557.927c-.28.277-.649.507-1.107.692-.458.185-1.013.276-1.664.276m6.495-9.868v1.889h1.484v1.056h-1.484v4.753c0 .367.076.625.227.774.153.15.354.225.605.225.082 0 .173-.01.271-.03.1-.018.187-.043.265-.072l.188.976a1.263 1.263 0 0 1-.467.214 2.38 2.38 0 0 1-.619.083c-.579 0-1.04-.174-1.382-.524-.343-.35-.514-.898-.514-1.646v-4.753h-1.245V62.27h1.245v-1.89h1.426Zm5.3 0v1.889h1.484v1.056h-1.483v4.753c0 .367.075.625.227.774.152.15.353.225.605.225.082 0 .172-.01.27-.03.1-.018.188-.043.265-.072l.188.976a1.263 1.263 0 0 1-.466.214 2.38 2.38 0 0 1-.62.083c-.578 0-1.04-.174-1.382-.524-.342-.35-.514-.898-.514-1.646v-4.753h-1.244V62.27h1.244v-1.89h1.427Zm5.849 2.865c-.478 0-.886.201-1.223.602-.338.402-.546.906-.622 1.511l.013.036h3.612v-.188c0-.557-.149-1.023-.448-1.398-.3-.375-.743-.563-1.332-.563m.217 7.003c-1.09 0-1.957-.362-2.602-1.088-.644-.726-.965-1.668-.965-2.825v-.319c0-1.114.331-2.042.994-2.782.664-.74 1.45-1.11 2.356-1.11 1.057 0 1.855.318 2.396.955.54.637.81 1.485.81 2.546v.89h-5.08l-.022.037c.014.75.205 1.367.572 1.85.366.483.88.725 1.541.725a3.6 3.6 0 0 0 1.27-.206 2.92 2.92 0 0 0 .945-.568l.557.927c-.28.277-.65.507-1.107.692-.458.185-1.014.276-1.665.276m8.348-6.72-.731-.044c-.377 0-.694.09-.953.268a1.72 1.72 0 0 0-.596.753v5.592h-1.426V62.27h1.274l.137 1.143c.222-.405.496-.721.822-.949a1.93 1.93 0 0 1 1.126-.339 2.062 2.062 0 0 1 .542.079l-.195 1.324Z"/><path fill="#FFF" d="M59.724 41.83c-1.403 3.807-9.612 3.774-20.758 3.807 0 0 7.202-1.017 9.282-5.037 2.082-4.017 4.534-12.159 4.534-12.159-11.088-.001-12.077 3.882-12.077 3.882s-7.008 19.59-9.508 26.818c-19.418 0-16.315-9.588-16.315-9.588l9.713-27.238h19.68l-1.315 3.921s1.604-3.921 12.45-3.921c0 0 11.12.048 9.813 3.943-1.304 3.892-5.499 15.573-5.499 15.573"/></g></svg>