<?xml version="1.0" standalone="no"?>
<!DOCTYPE svg PUBLIC "-//W3C//DTD SVG 20010904//EN"
 "http://www.w3.org/TR/2001/REC-SVG-20010904/DTD/svg10.dtd">
<svg version="1.0" xmlns="http://www.w3.org/2000/svg"
 width="3750.000000pt" height="625.000000pt" viewBox="0 0 3750.000000 625.000000"
 preserveAspectRatio="xMidYMid meet">
<metadata>
</metadata>
<g transform="translate(0.000000,625.000000) scale(0.100000,-0.100000)"
fill="#000000" stroke="none">
<path fill="#2f2d2e" d="M0 4210 l0 -2040 340 0 340 0 0 1775 0 1775 1028 0 c665 0 1050 -4
1092 -11 72 -11 163 -49 198 -82 34 -32 68 -104 82 -172 8 -42 10 -193 8 -490
-3 -421 -4 -431 -26 -487 -31 -77 -90 -130 -179 -160 l-68 -23 -847 -3 -848
-3 0 -264 0 -265 193 0 194 0 829 -795 829 -795 508 0 509 0 -249 213 c-137
116 -556 473 -931 792 l-681 580 412 6 c313 5 429 10 482 22 300 65 454 202
527 469 23 83 23 87 23 753 0 669 0 670 -23 755 -72 261 -219 393 -517 463
-89 21 -104 21 -1657 24 l-1568 4 0 -2041z"/>
<path fill="#2f2d2e" d="M4710 4210 l0 -2040 1795 0 1795 0 0 280 0 280 -1455 0 -1455 0 0
650 0 650 990 0 990 0 0 270 0 270 -990 0 -990 0 0 565 0 565 1440 0 1440 0 0
275 0 275 -1780 0 -1780 0 0 -2040z"/>
<path fill="#2f2d2e" d="M8970 4209 l0 -2040 1148 4 c976 3 1168 6 1289 20 632 72 957 202
1276 507 301 288 475 642 549 1115 29 191 32 592 5 765 -69 441 -248 821 -521
1108 -110 115 -291 249 -431 320 -191 95 -473 170 -785 207 -254 30 -468 35
-1492 35 l-1038 0 0 -2041z m2200 1476 c550 -53 901 -200 1115 -468 188 -235
274 -542 275 -975 0 -223 -11 -341 -47 -502 -56 -253 -142 -426 -291 -582
-165 -173 -395 -285 -722 -352 -268 -56 -318 -58 -1112 -63 l-738 -5 0 1481 0
1481 688 0 c514 0 723 -4 832 -15z"/>
<path fill="#d81921" d="M15950 6243 c-450 -24 -835 -102 -1099 -225 -444 -204 -796 -666
-935 -1229 -97 -390 -84 -902 33 -1294 94 -315 236 -555 460 -775 269 -265
517 -389 941 -474 339 -67 533 -76 1753 -76 l1037 0 0 1140 0 1140 -1010 0
-1010 0 0 -260 0 -260 670 0 670 0 0 -596 0 -595 -732 4 c-789 4 -850 7 -1124
62 -605 122 -922 434 -1026 1013 -26 146 -36 516 -19 680 69 650 390 1004
1033 1136 291 60 260 59 1448 65 l1095 6 3 273 2 272 -1067 -2 c-588 -1 -1093
-3 -1123 -5z"/>
<path fill="#d81921" d="M18883 4548 c3 -1695 3 -1703 24 -1798 82 -363 217 -490 593 -557 98
-17 185 -18 1385 -18 1201 0 1286 1 1385 19 204 35 343 97 426 190 85 93 148
265 173 471 8 62 11 603 11 1743 l0 1652 -340 0 -340 0 0 -1755 0 -1755 -1320
0 -1320 0 0 1755 0 1755 -340 0 -341 0 4 -1702z"/>
<path fill="#d81921" d="M25146 6028 c-63 -123 -536 -1040 -1050 -2038 l-935 -1815 331 -3
c183 -1 335 1 339 5 4 5 120 230 259 501 l253 492 1265 -2 1266 -3 255 -497
256 -498 372 0 c205 0 373 2 373 5 0 3 -482 921 -1071 2040 l-1071 2035 -364
0 -363 0 -115 -222z m960 -1366 l491 -957 -985 -3 c-542 -1 -987 0 -989 2 -6
6 981 1925 987 1919 3 -2 226 -435 496 -961z"/>
<path fill="#d81921" d="M28510 4210 l0 -2040 340 0 340 0 0 1775 0 1775 1028 0 c648 0 1051
-4 1092 -10 92 -15 181 -61 220 -113 63 -86 65 -104 65 -602 l0 -450 -24 -60
c-33 -83 -91 -137 -178 -167 l-68 -23 -847 -3 -848 -3 0 -264 0 -265 193 0
192 0 830 -795 830 -795 505 0 c492 0 504 0 485 19 -11 10 -429 366 -930 792
l-910 774 410 6 c455 7 511 13 668 79 184 76 285 199 345 419 l27 96 0 650 0
650 -27 97 c-65 238 -186 368 -407 439 -186 59 -162 59 -1818 59 l-1513 0 0
-2040z"/>
<path fill="#d81921" d="M33210 4211 l0 -2041 1038 0 c1219 0 1412 8 1752 76 328 65 547 156
754 311 416 312 650 740 728 1333 17 129 17 540 0 655 -90 603 -370 1083 -803
1371 -201 134 -460 224 -804 279 -291 47 -321 48 -1522 52 l-1143 4 0 -2040z
m2310 1466 c63 -10 171 -29 238 -43 642 -132 958 -479 1033 -1132 17 -158 7
-537 -19 -683 -105 -580 -421 -892 -1026 -1014 -274 -55 -335 -58 -1123 -62
l-733 -4 0 1481 0 1481 758 -4 c638 -3 775 -6 872 -20z"/>
<path fill="#2f2d2e" d="M177 1096 c-105 -29 -132 -90 -132 -301 1 -153 11 -203 53 -248 50
-53 88 -57 514 -57 l388 0 0 -170 0 -170 -412 2 -413 3 -3 88 c-2 60 -7 87
-15 87 -7 0 -43 -9 -82 -19 l-70 -18 1 -75 c2 -104 28 -158 92 -190 47 -23 47
-23 492 -23 443 0 445 0 487 23 28 15 50 37 65 65 22 39 23 54 23 227 0 170
-2 189 -22 233 -18 39 -31 52 -70 70 -47 21 -59 22 -455 25 l-408 3 0 155 0
154 395 0 395 0 0 -81 c0 -70 2 -80 16 -75 8 3 45 14 81 23 l65 18 -6 64 c-8
93 -37 145 -94 173 -46 23 -52 23 -442 25 -301 2 -406 -1 -443 -11z"/>
<path fill="#2f2d2e" d="M2170 555 l0 -555 540 0 540 0 0 75 0 75 -450 0 -450 0 2 177 3 178
268 3 267 2 0 70 0 70 -270 0 -270 0 0 155 0 155 445 0 445 0 0 75 0 75 -535
0 -535 0 0 -555z"/>
<path fill="#2f2d2e" d="M4253 1100 c-54 -12 -97 -44 -118 -85 -19 -38 -20 -60 -20 -460 0
-406 1 -421 21 -460 13 -26 37 -49 65 -65 l44 -25 403 -3 c457 -3 493 0 547
53 42 42 55 100 55 239 l0 103 -67 12 c-38 7 -78 15 -90 18 -22 5 -22 4 -25
-133 l-3 -139 -385 0 -385 0 -3 403 -2 402 390 0 390 0 0 -126 c0 -115 2 -125
18 -120 9 2 50 10 90 17 l72 12 0 97 c0 171 -36 237 -140 259 -58 13 -805 14
-857 1z"/>
<path fill="#2f2d2e" d="M6172 633 c3 -438 5 -482 22 -521 24 -56 64 -88 126 -101 71 -15 821
-15 892 0 39 9 63 22 89 48 55 55 59 98 59 609 l0 442 -95 0 -95 0 0 -480 0
-480 -405 0 -405 0 0 480 0 480 -96 0 -95 0 3 -477z"/>
<path fill="#2f2d2e" d="M8370 555 l0 -555 90 0 90 0 0 215 0 215 168 0 167 -1 222 -214 223
-215 141 0 141 0 -109 93 c-60 50 -173 146 -251 212 l-142 120 124 6 c150 6
206 28 240 94 19 37 21 56 21 250 0 230 -5 252 -62 293 -55 39 -92 42 -585 42
l-478 0 0 -555z m872 405 c62 -17 68 -36 68 -193 0 -133 -1 -139 -25 -162
l-24 -25 -356 0 -355 0 0 188 c0 104 3 192 7 195 11 11 644 8 685 -3z"/>
<path fill="#2f2d2e" d="M10440 555 l0 -555 95 0 95 0 0 555 0 555 -95 0 -95 0 0 -555z"/>
<path fill="#2f2d2e" d="M11640 555 l0 -555 85 0 86 0 -3 439 -3 439 45 -47 c25 -25 240 -222
479 -436 l433 -390 54 -3 54 -3 0 556 0 555 -85 0 -85 0 1 -367 c0 -203 3
-399 8 -437 l7 -69 -60 66 c-34 36 -249 232 -479 436 l-417 371 -60 0 -60 0 0
-555z"/>
<path fill="#2f2d2e" d="M14013 1101 c-54 -14 -97 -45 -118 -86 -19 -38 -20 -63 -23 -439 -3
-452 1 -484 61 -530 57 -44 103 -47 583 -44 439 3 450 3 497 25 39 18 52 31
70 70 20 45 22 65 25 286 l3 237 -320 0 -321 0 0 -70 0 -70 225 0 225 0 0
-165 0 -165 -432 2 -433 3 -3 403 -2 402 435 0 435 0 0 -81 0 -81 30 6 c17 3
60 11 96 18 l66 12 -4 72 c-7 98 -30 142 -94 174 l-49 25 -460 2 c-253 1 -474
-2 -492 -6z"/>
<path fill="#2f2d2e" d="M16824 1103 c2 -5 128 -145 280 -313 l276 -305 0 -242 0 -243 95 0
95 0 0 245 0 244 275 305 c151 168 275 308 275 311 0 3 -51 5 -112 4 l-113 0
-180 -215 c-99 -117 -192 -228 -206 -245 l-26 -32 -217 247 -217 246 -115 0
c-63 0 -113 -3 -110 -7z"/>
<path fill="#2f2d2e" d="M19046 1099 c-60 -14 -95 -40 -119 -89 -22 -44 -22 -51 -22 -455 0
-408 0 -410 23 -457 18 -36 34 -52 70 -70 47 -23 49 -23 521 -26 529 -3 565 0
617 52 56 56 59 82 59 501 0 288 -3 391 -13 424 -19 64 -65 106 -130 120 -64
13 -947 14 -1006 0z m962 -541 l-3 -403 -457 -3 -458 -2 0 405 0 405 460 0
460 0 -2 -402z"/>
<path fill="#2f2d2e" d="M21192 628 c3 -482 3 -483 26 -530 18 -36 34 -52 70 -70 47 -23 51
-23 465 -26 471 -3 511 0 563 52 18 18 37 50 43 71 7 27 11 200 11 513 l0 472
-90 0 -90 0 -2 -477 -3 -478 -402 -3 -403 -2 0 480 0 480 -95 0 -96 0 3 -482z"/>
<path fill="#2f2d2e" d="M23380 555 l0 -555 95 0 95 0 0 215 0 215 164 0 164 0 223 -215 224
-214 138 -1 c75 0 137 2 137 4 0 2 -111 97 -247 212 l-246 209 124 6 c139 7
181 19 222 68 37 44 42 80 42 286 0 166 -2 183 -23 226 -15 31 -35 53 -65 70
l-42 24 -502 3 -503 3 0 -556z m903 401 c36 -17 47 -60 47 -179 0 -129 -10
-169 -46 -186 -17 -7 -133 -11 -369 -11 l-345 0 0 196 0 195 348 -3 c191 -2
355 -7 365 -12z"/>
<path fill="#2f2d2e" d="M26505 564 c-165 -300 -302 -550 -303 -555 -2 -6 34 -9 89 -7 l93 3
69 133 68 132 379 0 378 0 68 -135 69 -135 103 0 c57 0 102 4 100 9 -1 5 -140
255 -308 555 l-305 546 -100 0 -101 0 -299 -546z m543 137 c78 -148 142 -271
142 -275 0 -3 -130 -6 -290 -6 -159 0 -290 2 -290 6 0 10 285 544 291 544 3 0
69 -121 147 -269z"/>
<path fill="#2f2d2e" d="M28557 1099 c-65 -15 -94 -36 -118 -86 -22 -45 -24 -60 -24 -213 0
-153 2 -168 24 -213 16 -34 35 -54 65 -70 40 -22 50 -22 454 -25 l412 -3 0
-170 0 -169 -412 2 -413 3 -3 88 c-2 60 -7 87 -15 87 -7 0 -43 -9 -82 -19
l-70 -18 1 -79 c1 -101 26 -154 87 -186 42 -23 44 -23 487 -23 433 0 446 1
491 21 37 17 51 32 70 70 23 46 24 59 24 229 0 168 -2 183 -23 227 -18 36 -34
52 -70 70 -46 23 -52 23 -454 26 l-408 3 0 155 0 154 395 0 395 0 0 -81 c0
-72 2 -80 18 -75 9 3 44 14 77 24 l60 18 -3 55 c-6 122 -46 178 -142 198 -62
13 -766 13 -823 0z"/>
<path fill="#2f2d2e" d="M30650 1091 c-100 -35 -124 -98 -118 -314 3 -128 6 -147 28 -191 18
-36 36 -56 65 -70 38 -20 59 -21 453 -24 l412 -3 -2 -167 -3 -167 -412 -3
-413 -2 0 90 c0 65 -3 90 -12 90 -7 0 -44 -9 -83 -18 l-70 -18 0 -80 c1 -102
22 -149 85 -184 l45 -25 445 0 c440 0 446 0 490 22 25 13 53 35 62 51 28 47
41 155 36 291 -8 188 -40 247 -148 270 -32 7 -195 11 -430 11 l-380 0 0 155 0
155 390 0 390 0 0 -81 c0 -61 3 -80 13 -77 6 3 42 13 80 23 l67 18 0 61 c0 84
-30 143 -90 176 l-45 25 -400 2 c-372 3 -404 2 -455 -16z"/>
<path fill="#2f2d2e" d="M32650 555 l0 -555 540 0 540 0 0 75 0 75 -445 0 -445 0 0 180 0 180
270 0 270 0 0 70 0 70 -270 0 -270 0 0 155 0 155 445 0 445 0 0 75 0 75 -540
0 -540 0 0 -555z"/>
<path fill="#2f2d2e" d="M34350 1035 l0 -75 250 0 250 0 0 -480 0 -480 95 0 95 0 0 480 0 480
255 0 255 0 0 75 0 75 -600 0 -600 0 0 -75z"/>
<path fill="#2f2d2e" d="M36436 1099 c-51 -12 -90 -36 -109 -68 -49 -84 -49 -379 1 -463 8
-14 34 -37 56 -50 41 -23 42 -23 454 -26 l412 -3 0 -170 0 -169 -412 2 -413 3
-3 88 c-2 60 -7 87 -15 87 -7 0 -43 -9 -82 -18 l-70 -19 1 -74 c1 -106 27
-162 91 -192 47 -22 55 -22 493 -22 l445 0 43 23 c33 17 49 35 65 70 20 43 22
64 22 227 0 168 -2 183 -23 227 -18 36 -34 52 -70 70 -46 23 -52 23 -454 26
l-408 3 0 155 0 154 395 0 395 0 0 -81 c0 -72 2 -80 18 -75 9 3 44 14 77 24
l60 18 -2 58 c-1 32 -7 73 -13 91 -16 49 -69 91 -130 104 -62 13 -767 13 -824
0z"/>
</g>
</svg>
