<svg xmlns="http://www.w3.org/2000/svg" width="5000" height="833.333" viewBox="0 0 3750 625"><path fill="#2f2d2e" d="M0 204v204h68V53h102.8c66.5 0 105 .4 109.2 1.1 7.2 1.1 16.3 4.9 19.8 8.2 3.4 3.2 6.8 10.4 8.2 17.2.8 4.2 1 19.3.8 49-.3 42.1-.4 43.1-2.6 48.7-3.1 7.7-9 13-17.9 16l-6.8 2.3-84.7.3-84.8.3V249h38.7l82.9 79.5 82.9 79.5h101.7l-24.9-21.3c-13.7-11.6-55.6-47.3-93.1-79.2l-68.1-58 41.2-.6c31.3-.5 42.9-1 48.2-2.2 30-6.5 45.4-20.2 52.7-46.9 2.3-8.3 2.3-8.7 2.3-75.3 0-66.9 0-67-2.3-75.5-7.2-26.1-21.9-39.3-51.7-46.3C313.6.6 312.1.6 156.8.3L0-.1zm471 0v204h359v-56H539V222h198v-54H539V55h288V0H471zm426 .1v204l114.8-.4c97.6-.3 116.8-.6 128.9-2 63.2-7.2 95.7-20.2 127.6-50.7 30.1-28.8 47.5-64.2 54.9-111.5 2.9-19.1 3.2-59.2.5-76.5-6.9-44.1-24.8-82.1-52.1-110.8-11-11.5-29.1-24.9-43.1-32-19.1-9.5-47.3-17-78.5-20.7-25.4-3-46.8-3.5-149.2-3.5H897zm220-147.6c55 5.3 90.1 20 111.5 46.8 18.8 23.5 27.4 54.2 27.5 97.5 0 22.3-1.1 34.1-4.7 50.2-5.6 25.3-14.2 42.6-29.1 58.2-16.5 17.3-39.5 28.5-72.2 35.2-26.8 5.6-31.8 5.8-111.2 6.3l-73.8.5V55h68.8c51.4 0 72.3.4 83.2 1.5"/><path fill="#d81921" d="M1595 .7c-45 2.4-83.5 10.2-109.9 22.5-44.4 20.4-79.6 66.6-93.5 122.9-9.7 39-8.4 90.2 3.3 129.4 9.4 31.5 23.6 55.5 46 77.5 26.9 26.5 51.7 38.9 94.1 47.4 33.9 6.7 53.3 7.6 175.3 7.6H1814V180h-202v52h134v119.1l-73.2-.4c-78.9-.4-85-.7-112.4-6.2-60.5-12.2-92.2-43.4-102.6-101.3-2.6-14.6-3.6-51.6-1.9-68 6.9-65 39-100.4 103.3-113.6 29.1-6 26-5.9 144.8-6.5l109.5-.6.3-27.3.2-27.2-106.7.2c-58.8.1-109.3.3-112.3.5m293.3 169.5c.3 169.5.3 170.3 2.4 179.8 8.2 36.3 21.7 49 59.3 55.7 9.8 1.7 18.5 1.8 138.5 1.8 120.1 0 128.6-.1 138.5-1.9 20.4-3.5 34.3-9.7 42.6-19 8.5-9.3 14.8-26.5 17.3-47.1.8-6.2 1.1-60.3 1.1-174.3V0h-68v351h-264V0h-68.1zm626.3-148c-6.3 12.3-53.6 104-105 203.8l-93.5 181.5 33.1.3c18.3.1 33.5-.1 33.9-.5.4-.5 12-23 25.9-50.1l25.3-49.2 126.5.2 126.6.3 25.5 49.7 25.6 49.8h37.2c20.5 0 37.3-.2 37.3-.5s-48.2-92.1-107.1-204L2598.8 0h-72.7zm96 136.6 49.1 95.7-98.5.3c-54.2.1-98.7 0-98.9-.2-.6-.6 98.1-192.5 98.7-191.9.3.2 22.6 43.5 49.6 96.1M2851 204v204h68V53h102.8c64.8 0 105.1.4 109.2 1 9.2 1.5 18.1 6.1 22 11.3 6.3 8.6 6.5 10.4 6.5 60.2v45l-2.4 6c-3.3 8.3-9.1 13.7-17.8 16.7l-6.8 2.3-84.7.3-84.8.3V249h38.5l83 79.5 83 79.5h50.5c49.2 0 50.4 0 48.5-1.9-1.1-1-42.9-36.6-93-79.2l-91-77.4 41-.6c45.5-.7 51.1-1.3 66.8-7.9 18.4-7.6 28.5-19.9 34.5-41.9l2.7-9.6v-130l-2.7-9.7c-6.5-23.8-18.6-36.8-40.7-43.9C3165.5 0 3167.9 0 3002.3 0H2851zm470-.1V408h103.8c121.9 0 141.2-.8 175.2-7.6 32.8-6.5 54.7-15.6 75.4-31.1 41.6-31.2 65-74 72.8-133.3 1.7-12.9 1.7-54 0-65.5-9-60.3-37-108.3-80.3-137.1-20.1-13.4-46-22.4-80.4-27.9C3558.4.8 3555.4.7 3435.3.3L3321-.1zm231-146.6c6.3 1 17.1 2.9 23.8 4.3 64.2 13.2 95.8 47.9 103.3 113.2 1.7 15.8.7 53.7-1.9 68.3-10.5 58-42.1 89.2-102.6 101.4-27.4 5.5-33.5 5.8-112.3 6.2l-73.3.4V54.9l75.8.4c63.8.3 77.5.6 87.2 2"/><path fill="#2f2d2e" d="M17.7 515.4c-10.5 2.9-13.2 9-13.2 30.1.1 15.3 1.1 20.3 5.3 24.8 5 5.3 8.8 5.7 51.4 5.7H100v34l-41.2-.2-41.3-.3-.3-8.8c-.2-6-.7-8.7-1.5-8.7-.7 0-4.3.9-8.2 1.9l-7 1.8.1 7.5c.2 10.4 2.8 15.8 9.2 19 4.7 2.3 4.7 2.3 49.2 2.3 44.3 0 44.5 0 48.7-2.3 2.8-1.5 5-3.7 6.5-6.5 2.2-3.9 2.3-5.4 2.3-22.7 0-17-.2-18.9-2.2-23.3-1.8-3.9-3.1-5.2-7-7-4.7-2.1-5.9-2.2-45.5-2.5l-40.8-.3V529h79v8.1c0 7 .2 8 1.6 7.5.8-.3 4.5-1.4 8.1-2.3l6.5-1.8-.6-6.4c-.8-9.3-3.7-14.5-9.4-17.3-4.6-2.3-5.2-2.3-44.2-2.5-30.1-.2-40.6.1-44.3 1.1M217 569.5V625h108v-15h-90l.2-17.7.3-17.8 26.8-.3 26.7-.2v-14h-54v-31h89v-15H217zM425.3 515c-5.4 1.2-9.7 4.4-11.8 8.5-1.9 3.8-2 6-2 46 0 40.6.1 42.1 2.1 46 1.3 2.6 3.7 4.9 6.5 6.5l4.4 2.5 40.3.3c45.7.3 49.3 0 54.7-5.3 4.2-4.2 5.5-10 5.5-23.9v-10.3l-6.7-1.2c-3.8-.7-7.8-1.5-9-1.8-2.2-.5-2.2-.4-2.5 13.3l-.3 13.9h-77l-.3-40.3-.2-40.2h78v12.6c0 11.5.2 12.5 1.8 12 .9-.2 5-1 9-1.7l7.2-1.2V541c0-17.1-3.6-23.7-14-25.9-5.8-1.3-80.5-1.4-85.7-.1m191.9 46.7c.3 43.8.5 48.2 2.2 52.1 2.4 5.6 6.4 8.8 12.6 10.1 7.1 1.5 82.1 1.5 89.2 0 3.9-.9 6.3-2.2 8.9-4.8 5.5-5.5 5.9-9.8 5.9-60.9V514h-19v96h-81v-96h-19.1zm219.8 7.8V625h18v-43h16.8l16.7.1 22.2 21.4L933 625h28.2l-10.9-9.3c-6-5-17.3-14.6-25.1-21.2l-14.2-12 12.4-.6c15-.6 20.6-2.8 24-9.4 1.9-3.7 2.1-5.6 2.1-25 0-23-.5-25.2-6.2-29.3-5.5-3.9-9.2-4.2-58.5-4.2H837zm87.2-40.5c6.2 1.7 6.8 3.6 6.8 19.3 0 13.3-.1 13.9-2.5 16.2l-2.4 2.5H855v-18.8c0-10.4.3-19.2.7-19.5 1.1-1.1 64.4-.8 68.5.3m119.8 40.5V625h19V514h-19zm120 0V625h17.1l-.3-43.9-.3-43.9 4.5 4.7c2.5 2.5 24 22.2 47.9 43.6l43.3 39 5.4.3 5.4.3V514h-17l.1 36.7c0 20.3.3 39.9.8 43.7l.7 6.9-6-6.6c-3.4-3.6-24.9-23.2-47.9-43.6L1176 514h-12zm237.3-54.6c-5.4 1.4-9.7 4.5-11.8 8.6-1.9 3.8-2 6.3-2.3 43.9-.3 45.2.1 48.4 6.1 53 5.7 4.4 10.3 4.7 58.3 4.4 43.9-.3 45-.3 49.7-2.5 3.9-1.8 5.2-3.1 7-7 2-4.5 2.2-6.5 2.5-28.6l.3-23.7H1447v14h45v33l-43.2-.2-43.3-.3-.3-40.3-.2-40.2h87v16.2l3-.6c1.7-.3 6-1.1 9.6-1.8l6.6-1.2-.4-7.2c-.7-9.8-3-14.2-9.4-17.4l-4.9-2.5-46-.2c-25.3-.1-47.4.2-49.2.6m281.1-.2c.2.5 12.8 14.5 28 31.3l27.6 30.5V625h19v-48.9l27.5-30.5c15.1-16.8 27.5-30.8 27.5-31.1s-5.1-.5-11.2-.4h-11.3l-18 21.5c-9.9 11.7-19.2 22.8-20.6 24.5l-2.6 3.2-21.7-24.7-21.7-24.6h-11.5c-6.3 0-11.3.3-11 .7m222.2.4c-6 1.4-9.5 4-11.9 8.9-2.2 4.4-2.2 5.1-2.2 45.5 0 40.8 0 41 2.3 45.7 1.8 3.6 3.4 5.2 7 7 4.7 2.3 4.9 2.3 52.1 2.6 52.9.3 56.5 0 61.7-5.2 5.6-5.6 5.9-8.2 5.9-50.1 0-28.8-.3-39.1-1.3-42.4-1.9-6.4-6.5-10.6-13-12-6.4-1.3-94.7-1.4-100.6 0m96.2 54.1-.3 40.3-45.7.3-45.8.2v-81h92zm118.4-7c.3 48.2.3 48.3 2.6 53 1.8 3.6 3.4 5.2 7 7 4.7 2.3 5.1 2.3 46.5 2.6 47.1.3 51.1 0 56.3-5.2 1.8-1.8 3.7-5 4.3-7.1.7-2.7 1.1-20 1.1-51.3V514h-18l-.2 47.7-.3 47.8-40.2.3-40.3.2v-96h-19.1zm218.8 7.3V625h19v-43h32.8l22.3 21.5 22.4 21.4 13.8.1c7.5 0 13.7-.2 13.7-.4s-11.1-9.7-24.7-21.2l-24.6-20.9 12.4-.6c13.9-.7 18.1-1.9 22.2-6.8 3.7-4.4 4.2-8 4.2-28.6 0-16.6-.2-18.3-2.3-22.6-1.5-3.1-3.5-5.3-6.5-7l-4.2-2.4-50.2-.3-50.3-.3zm90.3-40.1c3.6 1.7 4.7 6 4.7 17.9 0 12.9-1 16.9-4.6 18.6-1.7.7-13.3 1.1-36.9 1.1H2357v-39.1l34.8.3c19.1.2 35.5.7 36.5 1.2m222.2 39.2c-16.5 30-30.2 55-30.3 55.5-.2.6 3.4.9 8.9.7l9.3-.3 6.9-13.3 6.8-13.2h75.7l6.8 13.5 6.9 13.5h10.3c5.7 0 10.2-.4 10-.9-.1-.5-14-25.5-30.8-55.5l-30.5-54.6h-20.1zm54.3-13.7c7.8 14.8 14.2 27.1 14.2 27.5 0 .3-13 .6-29 .6-15.9 0-29-.2-29-.6 0-1 28.5-54.4 29.1-54.4.3 0 6.9 12.1 14.7 26.9m150.9-39.8c-6.5 1.5-9.4 3.6-11.8 8.6-2.2 4.5-2.4 6-2.4 21.3s.2 16.8 2.4 21.3c1.6 3.4 3.5 5.4 6.5 7 4 2.2 5 2.2 45.4 2.5l41.2.3V610l-41.2-.2-41.3-.3-.3-8.8c-.2-6-.7-8.7-1.5-8.7-.7 0-4.3.9-8.2 1.9l-7 1.8.1 7.9c.1 10.1 2.6 15.4 8.7 18.6 4.2 2.3 4.4 2.3 48.7 2.3 43.3 0 44.6-.1 49.1-2.1 3.7-1.7 5.1-3.2 7-7 2.3-4.6 2.4-5.9 2.4-22.9 0-16.8-.2-18.3-2.3-22.7-1.8-3.6-3.4-5.2-7-7-4.6-2.3-5.2-2.3-45.4-2.6l-40.8-.3V529h79v8.1c0 7.2.2 8 1.8 7.5.9-.3 4.4-1.4 7.7-2.4l6-1.8-.3-5.5c-.6-12.2-4.6-17.8-14.2-19.8-6.2-1.3-76.6-1.3-82.3 0m209.3.8c-10 3.5-12.4 9.8-11.8 31.4.3 12.8.6 14.7 2.8 19.1 1.8 3.6 3.6 5.6 6.5 7 3.8 2 5.9 2.1 45.3 2.4l41.2.3-.2 16.7-.3 16.7-41.2.3-41.3.2v-9c0-6.5-.3-9-1.2-9-.7 0-4.4.9-8.3 1.8l-7 1.8v8c.1 10.2 2.2 14.9 8.5 18.4l4.5 2.5h44.5c44 0 44.6 0 49-2.2 2.5-1.3 5.3-3.5 6.2-5.1 2.8-4.7 4.1-15.5 3.6-29.1-.8-18.8-4-24.7-14.8-27-3.2-.7-19.5-1.1-43-1.1h-38v-31h78v8.1c0 6.1.3 8 1.3 7.7.6-.3 4.2-1.3 8-2.3l6.7-1.8v-6.1c0-8.4-3-14.3-9-17.6l-4.5-2.5-40-.2c-37.2-.3-40.4-.2-45.5 1.6m200 53.6V625h108v-15h-89v-36h54v-14h-54v-31h89v-15h-108zm170-48v7.5h50v96h19v-96h51v-15h-120zm208.6-6.4c-5.1 1.2-9 3.6-10.9 6.8-4.9 8.4-4.9 37.9.1 46.3.8 1.4 3.4 3.7 5.6 5 4.1 2.3 4.2 2.3 45.4 2.6l41.2.3V610l-41.2-.2-41.3-.3-.3-8.8c-.2-6-.7-8.7-1.5-8.7-.7 0-4.3.9-8.2 1.8l-7 1.9.1 7.4c.1 10.6 2.7 16.2 9.1 19.2 4.7 2.2 5.5 2.2 49.3 2.2h44.5l4.3-2.3c3.3-1.7 4.9-3.5 6.5-7 2-4.3 2.2-6.4 2.2-22.7 0-16.8-.2-18.3-2.3-22.7-1.8-3.6-3.4-5.2-7-7-4.6-2.3-5.2-2.3-45.4-2.6l-40.8-.3V529h79v8.1c0 7.2.2 8 1.8 7.5.9-.3 4.4-1.4 7.7-2.4l6-1.8-.2-5.8c-.1-3.2-.7-7.3-1.3-9.1-1.6-4.9-6.9-9.1-13-10.4-6.2-1.3-76.7-1.3-82.4 0"/></svg>