<svg xmlns="http://www.w3.org/2000/svg" width="250" height="75" fill="none"><path fill="#241C34" d="M101.526 39.554q-1.2-1.485-3.9-1.689l-2.873-.221c-.847-.098-1.437-.307-1.762-.639-.369-.3-.54-.65-.522-1.05 0-.632.233-1.148.688-1.553.43-.4 1.197-.596 2.284-.596.951 0 1.799.142 2.536.43q.526.231 1.025.516l3.248-1.873a10.3 10.3 0 0 0-2.861-1.805 10.6 10.6 0 0 0-1.787-.479 13 13 0 0 0-2.149-.16q-2.763 0-4.568 1.382c-1.228.915-1.86 2.284-1.88 4.12.02 1.523.504 2.714 1.438 3.561.915.866 2.094 1.376 3.549 1.51l3.07.277c.644.019 1.16.166 1.553.424q.57.378.571 1.344c0 .719-.313 1.284-.952 1.683q-.948.597-2.45.595c-1.89 0-3.475-.54-4.77-1.627l-3.126 1.8c2.254 2.136 4.796 3.198 7.608 3.198q3.114-.038 5.115-1.486c1.338-.939 2.026-2.271 2.044-4.01 0-1.473-.368-2.7-1.117-3.659zm14.195 4.31c-.81.829-1.817 1.259-3.02 1.277q-4.432.082-4.489-5.544.066-5.655 4.489-5.582c1.209.037 2.204.467 3.014 1.296l3.027-1.744.013-.012.018-.013a9 9 0 0 0-2.665-2.247c-1.019-.546-2.198-.829-3.543-.86-2.038-.018-3.825.688-5.372 2.113-1.603 1.455-2.419 3.807-2.456 7.049.043 3.21.859 5.526 2.456 6.962 1.541 1.431 3.328 2.15 5.372 2.15 1.339-.025 2.518-.332 3.543-.91a9.5 9.5 0 0 0 2.665-2.167h-.006l-3.052-1.774zm18.187-11.863c-1.185-1.043-2.499-1.565-3.929-1.565q-2.774.002-4.489 2.112h-.061v-7.32h-3.469V48.5h3.463V37.859q.001-1.879.988-2.855.959-.995 2.469-.995 1.493 0 2.443.995c.645.65.97 1.608.97 2.855v10.64h3.47V36.638c-.056-2.038-.676-3.586-1.849-4.642zm16.763-.288q-1.945-1.307-5.207-1.277c-2.573-.043-4.519.822-5.839 2.603l3.021 1.738c.252-.307.571-.535.939-.694q.746-.276 2.045-.276 3.572-.073 3.543 2.296v1.879h-4.808q-2.765.035-4.194 1.553-1.428 1.473-1.43 3.727-.002 2.349 1.645 3.868c1.044 1.032 2.53 1.554 4.458 1.578 1.173 0 2.094-.153 2.763-.448q1.021-.434 1.498-1.338h.068V48.5h3.469V36.312c-.019-2.18-.682-3.709-1.977-4.6zm-1.492 10.512c0 1.344-.276 2.204-.817 2.585-.595.38-1.627.558-3.082.528-1.161 0-1.983-.234-2.487-.7q-.784-.634-.786-1.554c-.018-1.388.977-2.1 3.003-2.149h4.169zm22.35-8.818v-2.744h-2.536v-5.434l-3.469 1.995v16.88q0 2.107 1.197 3.23c.774.773 1.781 1.166 2.996 1.166h1.812v-3.365h-1.296c-.847.018-1.259-.418-1.234-1.326V33.407h2.536zm-10.635 11.734c-.847.019-1.259-.417-1.234-1.326V25.229l-3.469 2.008V44.11q0 2.107 1.197 3.23c.774.773 1.781 1.166 2.996 1.166h1.812V45.14zm62.193.001c-.847.019-1.259-.417-1.234-1.326V25.229l-3.469 2.008V44.11q0 2.107 1.197 3.23c.774.773 1.781 1.166 2.996 1.166h1.812V45.14zm8.658.001c-.848.019-1.259-.417-1.234-1.326V25.229l-3.469 2.008V44.11q0 2.107 1.197 3.23c.773.773 1.78 1.166 2.996 1.166h1.812V45.14zm-43.883-5.586q-1.2-1.485-3.899-1.689l-2.874-.221c-.847-.098-1.437-.307-1.762-.639q-.552-.45-.522-1.05c0-.632.233-1.148.688-1.553.429-.4 1.197-.596 2.284-.596q1.428-.001 2.536.43.526.231 1.025.516l3.248-1.873a10.3 10.3 0 0 0-2.861-1.805 10.6 10.6 0 0 0-1.787-.479 13 13 0 0 0-2.149-.16q-2.763 0-4.568 1.382c-1.228.915-1.861 2.284-1.879 4.12.018 1.523.503 2.714 1.437 3.561.915.866 2.093 1.376 3.549 1.51l3.07.277c.644.019 1.16.166 1.553.424q.571.378.571 1.344c0 .719-.313 1.284-.952 1.683q-.949.597-2.449.595-2.836.002-4.777-1.627l-3.12 1.8c2.254 2.136 4.796 3.198 7.608 3.198 2.075-.024 3.776-.522 5.115-1.486 1.338-.939 2.026-2.271 2.044-4.01 0-1.473-.368-2.7-1.117-3.659zm9.971-6.147v-2.744h-2.536v-5.434l-3.469 1.995v16.88q-.001 2.107 1.203 3.23c.768.773 1.775 1.166 2.991 1.166h1.811v-3.365h-1.296c-.847.018-1.258-.418-1.234-1.326V33.407h2.536zm16.946 4.575c-.018-2.352-.73-4.194-2.112-5.532-1.369-1.32-3.033-1.984-5.004-2.015a7.3 7.3 0 0 0-2.499.467c-.853.307-1.621.81-2.315 1.51q-1.011 1.03-1.664 2.825c-.43 1.167-.644 2.628-.644 4.396 0 1.836.245 3.322.749 4.47.454 1.198 1.043 2.125 1.78 2.788.381.313.78.583 1.216.804.411.252.829.455 1.265.602.866.276 1.75.412 2.665.412 2.382.018 4.457-.94 6.22-2.893l-3.028-1.743c-.982.847-2.069 1.264-3.266 1.264q-1.813-.001-2.935-1.135c-.798-.743-1.197-1.836-1.197-3.267h10.776v-2.953zm-10.775 0q.091-2.09 1.086-3.156c.663-.682 1.523-1.02 2.567-1.02s1.903.338 2.566 1.02c.682.712 1.038 1.762 1.087 3.156zm45.246 0c-.018-2.352-.731-4.194-2.112-5.532-1.369-1.32-3.033-1.984-5.004-2.015a7.3 7.3 0 0 0-2.499.467q-1.282.46-2.315 1.51-1.011 1.03-1.664 2.825c-.43 1.167-.645 2.628-.645 4.396 0 1.836.246 3.322.749 4.47.455 1.198 1.044 2.125 1.781 2.788.381.313.78.583 1.216.804.411.252.829.455 1.265.602a8.7 8.7 0 0 0 2.664.412c2.383.018 4.458-.94 6.22-2.893l-3.021-1.743c-.982.847-2.075 1.264-3.278 1.264q-1.813-.001-2.935-1.135c-.799-.743-1.198-1.836-1.198-3.267h10.776zm-10.776 0q.093-2.09 1.087-3.156.993-1.022 2.567-1.02 1.573-.002 2.566 1.02c.682.712 1.038 1.762 1.087 3.156z"/><path stroke="#E63C2F" stroke-linejoin="round" stroke-width="1.5" d="m63.598 19.064-6.263 3.617-6.256 3.616-6.263 3.61-6.257 3.61-.006.007-6.25 3.61-6.264-3.61-6.257-3.617-6.262-3.61-6.257-3.616L1 19.064l6.263-3.61 6.257-3.617 6.262-3.61L26.04 4.61 32.302 1l6.25 3.61 6.264 3.617 6.263 3.61 6.256 3.617z"/><path stroke="#E63C2F" stroke-linejoin="round" stroke-width="1.5" d="M44.816 29.908v.006l-6.251 3.61-.006-.006zm12.519 21.686-6.25 3.617h-.006l-6.263 3.61-6.257 3.61-.006.007-6.25 3.61-6.258-3.61h-.012l-6.25-3.617h-.007l-6.256-3.61-6.257-3.617L1 47.984l6.263-3.617 6.257 3.617 6.256 3.61h.006l6.251 3.617h.006l6.257 3.61h.006l6.25-3.61 6.264-3.617h.006l6.257-3.61h.006z"/><path stroke="#E63C2F" stroke-linejoin="round" stroke-width="1.5" d="m38.565 62.438-.012.006-6.25 3.604 6.25-3.61.006-.006zm18.77-10.844v.006l-6.25 3.61zm0-.006v.006l-6.25-3.61zm-31.302 10.85-6.25-3.61v-.007zm-6.257-3.617-6.256-3.604v-.006zm43.822-25.297-6.263 3.61-6.256 3.623-6.263 3.61-6.263 3.617-6.25 3.61-6.264-3.61-6.256-3.616-6.263-3.61-6.257-3.623 6.257-3.61 6.263 3.61 6.256 3.622 6.263 3.61 6.25-3.61 6.264-3.622 6.263-3.61 6.256-3.617z"/><path stroke="#E63C2F" stroke-linejoin="round" stroke-width="1.5" d="M44.816 29.908v.006l-6.251 3.61-.006-.006z"/><path stroke="#E63C2F" stroke-linejoin="round" stroke-width="1.5" d="M63.598 19.064v7.233l-6.263 3.61-6.256 3.617-6.263 3.61-6.263 3.623-6.25 3.61v-7.232l6.25-3.61.006-.007.006.006 6.25-3.61v-.006l6.264-3.61 6.256-3.617zm0 14.46V55.21l-6.263 3.61-6.256 3.617-6.263 3.61-6.263 3.617-6.25 3.616v-7.233l6.25-3.604.012-.006-.006-.007 6.257-3.61 6.263-3.61h.006l6.25-3.61v-7.234l-6.25 3.617h-.006l-6.257 3.61h-.006l-6.263 3.617-6.25 3.61v-7.227l6.25-3.61 6.263-3.617 6.263-3.61 6.256-3.623z"/><path stroke="#E63C2F" stroke-linejoin="round" stroke-width="1.5" d="M38.553 62.438v.006l-6.25 3.604zm.012 0-.012.006v-.006l.006-.007zm18.77-10.844v.006l-6.25 3.61zM13.52 33.524l-6.257 3.61v-7.227z"/><path stroke="#E63C2F" stroke-linejoin="round" stroke-width="1.5" d="M7.263 29.908v7.227l6.257 3.622 6.262 3.61 6.257 3.617 6.263 3.61v7.227h-.006l-6.257-3.61h-.006l-6.25-3.617h-.007l-6.256-3.61-6.257-3.617L1 40.758V19.064l6.263 3.617 6.257 3.616 6.262 3.61 6.257 3.617 6.263 3.61v7.233l-6.263-3.61-6.257-3.622-6.262-3.61zm12.513 28.913-6.256-3.604v-.006zm6.257 3.617-6.25-3.61v-.007z"/><path stroke="#E63C2F" stroke-linejoin="round" stroke-width="1.5" d="M32.302 66.048v7.233l-6.263-3.616-6.257-3.617-6.262-3.61-6.257-3.617L1 55.211v-7.227l6.263 3.61 6.257 3.617v.006l6.256 3.604h.006v.006l6.251 3.61h.012zm25.033-21.681v7.227l-6.25-3.61z"/></svg>