<svg xmlns="http://www.w3.org/2000/svg" width="535.83" height="113.032"><g data-name="Gruppe 79"><g data-name="Gruppe 69"><path d="M155.975 67.687a27.5 27.5 0 0 1-8.973-4.215l3.943-8.837a25.8 25.8 0 0 0 7.749 3.807 29.6 29.6 0 0 0 8.973 1.5 14.8 14.8 0 0 0 7.342-1.5 4.3 4.3 0 0 0 2.311-3.943 3.67 3.67 0 0 0-1.36-2.987 9.4 9.4 0 0 0-3.671-1.9c-1.5-.544-3.4-.952-5.982-1.631a83 83 0 0 1-9.381-2.719 15.34 15.34 0 0 1-6.254-4.351 11.86 11.86 0 0 1-2.583-8.021 14.93 14.93 0 0 1 2.313-8.029c1.5-2.447 3.943-4.215 7.206-5.71a29.5 29.5 0 0 1 11.694-2.039 42.2 42.2 0 0 1 9.381 1.088 31 31 0 0 1 8.021 3.263l-3.671 8.837a28.8 28.8 0 0 0-14-3.943c-3.263 0-5.71.544-7.206 1.631a5 5 0 0 0-2.311 4.215 4.03 4.03 0 0 0 2.713 3.809 42 42 0 0 0 8.293 2.447 83 83 0 0 1 9.381 2.719 15.34 15.34 0 0 1 6.254 4.351c1.767 1.9 2.583 4.622 2.583 8.021a13.54 13.54 0 0 1-2.447 7.885 18.2 18.2 0 0 1-7.206 5.71 30 30 0 0 1-11.692 2.039 46.2 46.2 0 0 1-11.42-1.497" data-name="Pfad 10"/><path d="M210.764 65.919a23.8 23.8 0 0 1-9.789-9.245 26.16 26.16 0 0 1-3.534-13.462 26.16 26.16 0 0 1 3.535-13.459 24.66 24.66 0 0 1 9.788-9.241 30.94 30.94 0 0 1 25.831-1.088 22.74 22.74 0 0 1 8.837 6.662l-7.477 6.934a15.97 15.97 0 0 0-12.644-5.846 16.66 16.66 0 0 0-8.293 2.039 14.4 14.4 0 0 0-5.71 5.71 17.03 17.03 0 0 0-2.039 8.293 16.66 16.66 0 0 0 2.039 8.296 14.4 14.4 0 0 0 5.71 5.71 17.03 17.03 0 0 0 8.293 2.039 16.1 16.1 0 0 0 12.644-5.982l7.477 6.934a22.86 22.86 0 0 1-8.973 6.662 30.1 30.1 0 0 1-11.828 2.311 29 29 0 0 1-13.867-3.267" data-name="Pfad 11"/><path d="M256.989 17.928h11.692v50.439h-11.692Z" data-name="Pfad 12"/><path d="M318.304 42.399h10.6v20.529a29.8 29.8 0 0 1-9.517 4.758 37.7 37.7 0 0 1-10.876 1.631 28.63 28.63 0 0 1-14.139-3.4 23.8 23.8 0 0 1-9.789-9.245 26.16 26.16 0 0 1-3.53-13.46 26.16 26.16 0 0 1 3.535-13.459 24.15 24.15 0 0 1 9.924-9.241 30.7 30.7 0 0 1 14.275-3.4 31.9 31.9 0 0 1 12.1 2.175 24.4 24.4 0 0 1 9.109 6.526l-7.477 6.934a18.21 18.21 0 0 0-21.617-3.671 14.76 14.76 0 0 0-5.846 5.71 17.2 17.2 0 0 0-2.039 8.429 16.66 16.66 0 0 0 2.036 8.297 13.94 13.94 0 0 0 5.846 5.71 17.2 17.2 0 0 0 8.429 2.039 18.4 18.4 0 0 0 9.109-2.175V42.399Z" data-name="Pfad 13"/><path d="M343.319 17.928h11.692v50.439h-11.692Z" data-name="Pfad 14"/><path d="M370.646 17.928h11.692V58.85h25.287v9.517h-36.979Z" data-name="Pfad 15"/><path d="M417.686 17.928h11.692v50.439h-11.692Z" data-name="Pfad 16"/><path d="M455.345 27.445h-16.178v-9.517h44.049v9.517h-16.179v40.922h-11.692Z" data-name="Pfad 17"/><path d="M516.388 50.557v17.81h-11.692V50.421l-19.577-32.493h12.372L510.95 40.36l13.46-22.432h11.42Z" data-name="Pfad 18"/></g><g data-name="Gruppe 70"><circle cx="56.516" cy="56.516" r="56.516" data-name="Ellipse 25"/><circle cx="50.701" cy="50.701" r="50.701" fill="#0bb7ec" data-name="Ellipse 26" transform="translate(5.815)"/><circle cx="45.431" cy="45.431" r="45.431" fill="#fff" data-name="Ellipse 27" transform="translate(11.085)"/><circle cx="18.718" cy="18.718" r="18.718" fill="#e30b18" data-name="Ellipse 28" transform="translate(37.799 26.713)"/></g><path d="M158.842 89.676a6.7 6.7 0 0 1 3.312.816 5.87 5.87 0 0 1 2.292 2.28 6.76 6.76 0 0 1 .828 3.384 6.8 6.8 0 0 1-.828 3.4 5.85 5.85 0 0 1-2.292 2.288 6.7 6.7 0 0 1-3.312.816 5.9 5.9 0 0 1-2.508-.528 5.2 5.2 0 0 1-1.932-1.536v6.576h-2.3V89.796h2.204v2.02a4.9 4.9 0 0 1 1.944-1.6 6.1 6.1 0 0 1 2.592-.54m-.192 10.968a4.3 4.3 0 0 0 2.2-.564 4.06 4.06 0 0 0 1.532-1.584 4.76 4.76 0 0 0 .564-2.34 4.76 4.76 0 0 0-.564-2.34 4 4 0 0 0-1.536-1.572 4.37 4.37 0 0 0-2.2-.552 4.25 4.25 0 0 0-2.172.564 4.1 4.1 0 0 0-1.532 1.572 4.7 4.7 0 0 0-.564 2.328 4.84 4.84 0 0 0 .552 2.34 3.96 3.96 0 0 0 1.536 1.584 4.3 4.3 0 0 0 2.184.564m17.928-10.968a5.75 5.75 0 0 1 4.044 1.3 5 5 0 0 1 1.4 3.864v7.676h-2.18v-1.68a3.64 3.64 0 0 1-1.644 1.356 6.3 6.3 0 0 1-2.532.468 5.3 5.3 0 0 1-3.42-1.032 3.31 3.31 0 0 1-1.284-2.712 3.34 3.34 0 0 1 1.224-2.7 6.03 6.03 0 0 1 3.888-1.02h3.648v-.456a2.94 2.94 0 0 0-.864-2.28 3.64 3.64 0 0 0-2.544-.792 6.7 6.7 0 0 0-2.208.372 5.7 5.7 0 0 0-1.824 1l-.96-1.728a7 7 0 0 1 2.352-1.216 9.8 9.8 0 0 1 2.904-.42m-.528 11.208a4.3 4.3 0 0 0 2.28-.588 3.37 3.37 0 0 0 1.392-1.668v-1.776h-3.552q-2.928 0-2.928 1.968a1.78 1.78 0 0 0 .744 1.512 3.4 3.4 0 0 0 2.064.552m17.496 1.776a10.7 10.7 0 0 1-3-.42 6.6 6.6 0 0 1-2.256-1.068l.96-1.824a6.9 6.9 0 0 0 2.04.96 8.4 8.4 0 0 0 2.424.36q3.024 0 3.024-1.728a1.12 1.12 0 0 0-.408-.912 2.6 2.6 0 0 0-1.016-.492q-.612-.156-1.74-.348a17 17 0 0 1-2.508-.552 3.87 3.87 0 0 1-1.672-1.056 2.94 2.94 0 0 1-.7-2.088 3.26 3.26 0 0 1 1.44-2.772 6.45 6.45 0 0 1 3.864-1.044 10.7 10.7 0 0 1 2.544.312 6.8 6.8 0 0 1 2.088.84l-.984 1.824a6.6 6.6 0 0 0-3.672-1.008 4.25 4.25 0 0 0-2.232.48 1.45 1.45 0 0 0-.768 1.272 1.21 1.21 0 0 0 .432.984 2.7 2.7 0 0 0 1.068.528q.636.168 1.788.384a19 19 0 0 1 2.484.564 3.7 3.7 0 0 1 1.62 1.02 2.84 2.84 0 0 1 .672 2.016 3.18 3.18 0 0 1-1.472 2.748 6.97 6.97 0 0 1-4.02 1.02m15.624 0a10.7 10.7 0 0 1-3-.42 6.6 6.6 0 0 1-2.256-1.068l.96-1.824a6.9 6.9 0 0 0 2.04.96 8.4 8.4 0 0 0 2.424.36q3.024 0 3.024-1.728a1.12 1.12 0 0 0-.408-.912 2.6 2.6 0 0 0-1.02-.492q-.612-.156-1.74-.348a17 17 0 0 1-2.508-.552 3.87 3.87 0 0 1-1.672-1.056 2.94 2.94 0 0 1-.7-2.088 3.26 3.26 0 0 1 1.44-2.772 6.45 6.45 0 0 1 3.864-1.044 10.7 10.7 0 0 1 2.544.312 6.8 6.8 0 0 1 2.088.84l-.976 1.824a6.6 6.6 0 0 0-3.672-1.008 4.25 4.25 0 0 0-2.232.48 1.45 1.45 0 0 0-.768 1.272 1.21 1.21 0 0 0 .432.984 2.7 2.7 0 0 0 1.068.528q.636.168 1.788.384a19 19 0 0 1 2.484.564 3.7 3.7 0 0 1 1.62 1.02 2.84 2.84 0 0 1 .672 2.016 3.18 3.18 0 0 1-1.476 2.748 6.97 6.97 0 0 1-4.02 1.02m11.976-12.864h2.3v12.72h-2.3Zm1.152-2.448a1.54 1.54 0 0 1-1.116-.432 1.42 1.42 0 0 1-.444-1.056 1.46 1.46 0 0 1 .444-1.068 1.51 1.51 0 0 1 1.116-.444 1.56 1.56 0 0 1 1.116.42 1.38 1.38 0 0 1 .444 1.044 1.48 1.48 0 0 1-.444 1.092 1.51 1.51 0 0 1-1.116.444m14.592 15.312a6.9 6.9 0 0 1-3.408-.844 6.1 6.1 0 0 1-2.368-2.312 6.6 6.6 0 0 1-.852-3.348 6.6 6.6 0 0 1 .852-3.348 6 6 0 0 1 2.364-2.3 7 7 0 0 1 3.408-.828 6.9 6.9 0 0 1 3.4.828 6.03 6.03 0 0 1 2.352 2.3 6.6 6.6 0 0 1 .852 3.348 6.6 6.6 0 0 1-.852 3.348 6.1 6.1 0 0 1-2.352 2.312 6.83 6.83 0 0 1-3.396.844m0-2.016a4.3 4.3 0 0 0 2.2-.564 4 4 0 0 0 1.524-1.584 4.84 4.84 0 0 0 .552-2.34 4.84 4.84 0 0 0-.552-2.34 3.9 3.9 0 0 0-1.524-1.572 4.37 4.37 0 0 0-2.2-.552 4.37 4.37 0 0 0-2.2.552 4 4 0 0 0-1.532 1.572 4.76 4.76 0 0 0-.564 2.34 4.76 4.76 0 0 0 .564 2.34 4.06 4.06 0 0 0 1.536 1.584 4.3 4.3 0 0 0 2.196.564m20.184-10.968a5.26 5.26 0 0 1 3.852 1.4 5.52 5.52 0 0 1 1.428 4.12v7.32h-2.3V95.46a3.9 3.9 0 0 0-.888-2.784 3.34 3.34 0 0 0-2.544-.936 3.96 3.96 0 0 0-2.952 1.092 4.27 4.27 0 0 0-1.08 3.132v6.552h-2.3v-12.72h2.208v1.92a4.5 4.5 0 0 1 1.884-1.512 6.6 6.6 0 0 1 2.692-.528m27.864-3.216q-2.064 0-2.064 2.232v1.1h3.7v1.9h-3.648v10.824h-2.3V91.692h-2.16v-1.9h2.16v-1.128a4.05 4.05 0 0 1 1.1-3 4.19 4.19 0 0 1 3.1-1.1 5.2 5.2 0 0 1 1.44.192 3.5 3.5 0 0 1 1.152.552l-.7 1.752a2.87 2.87 0 0 0-1.78-.6m12.676 16.2a6.9 6.9 0 0 1-3.408-.84 6.1 6.1 0 0 1-2.364-2.316 6.6 6.6 0 0 1-.852-3.348 6.6 6.6 0 0 1 .852-3.348 6 6 0 0 1 2.364-2.3 7 7 0 0 1 3.408-.828 6.9 6.9 0 0 1 3.4.828 6.03 6.03 0 0 1 2.352 2.3 6.6 6.6 0 0 1 .848 3.348 6.6 6.6 0 0 1-.852 3.348 6.1 6.1 0 0 1-2.356 2.312 6.83 6.83 0 0 1-3.392.844m0-2.016a4.3 4.3 0 0 0 2.2-.564 4 4 0 0 0 1.524-1.584 4.84 4.84 0 0 0 .552-2.34 4.84 4.84 0 0 0-.552-2.34 3.9 3.9 0 0 0-1.524-1.572 4.37 4.37 0 0 0-2.2-.552 4.37 4.37 0 0 0-2.2.552 4 4 0 0 0-1.536 1.572 4.76 4.76 0 0 0-.564 2.34 4.76 4.76 0 0 0 .564 2.34 4.06 4.06 0 0 0 1.536 1.584 4.3 4.3 0 0 0 2.2.564m15.6-8.712a3.93 3.93 0 0 1 1.776-1.68 6.45 6.45 0 0 1 2.856-.576v2.232a5 5 0 0 0-.528-.024 3.88 3.88 0 0 0-2.94 1.116 4.42 4.42 0 0 0-1.068 3.18v6.336h-2.3v-12.72h2.204Zm33.288-7.224v17.808h-2.208V100.5a5 5 0 0 1-1.944 1.608 6 6 0 0 1-2.592.552 6.7 6.7 0 0 1-3.312-.816 5.85 5.85 0 0 1-2.292-2.292 6.8 6.8 0 0 1-.828-3.4 6.76 6.76 0 0 1 .828-3.384 5.87 5.87 0 0 1 2.292-2.28 6.7 6.7 0 0 1 3.312-.816 6.1 6.1 0 0 1 2.52.516 4.9 4.9 0 0 1 1.92 1.524v-7.008Zm-6.556 15.936a4.3 4.3 0 0 0 2.184-.564 3.96 3.96 0 0 0 1.536-1.584 4.84 4.84 0 0 0 .552-2.34 4.84 4.84 0 0 0-.552-2.34 3.88 3.88 0 0 0-1.536-1.572 4.4 4.4 0 0 0-2.184-.552 4.37 4.37 0 0 0-2.2.552 4 4 0 0 0-1.532 1.572 4.76 4.76 0 0 0-.564 2.34 4.76 4.76 0 0 0 .564 2.34 4.06 4.06 0 0 0 1.536 1.584 4.3 4.3 0 0 0 2.196.564m19.152-10.968a5.75 5.75 0 0 1 4.044 1.3 5 5 0 0 1 1.4 3.864v7.676h-2.184v-1.68a3.64 3.64 0 0 1-1.644 1.356 6.3 6.3 0 0 1-2.532.468 5.3 5.3 0 0 1-3.42-1.032 3.31 3.31 0 0 1-1.28-2.712 3.34 3.34 0 0 1 1.224-2.7 6.03 6.03 0 0 1 3.888-1.02h3.648v-.456a2.94 2.94 0 0 0-.864-2.28 3.64 3.64 0 0 0-2.544-.792 6.7 6.7 0 0 0-2.208.372 5.7 5.7 0 0 0-1.824 1l-.96-1.728a7 7 0 0 1 2.352-1.212 9.8 9.8 0 0 1 2.904-.424m-.528 11.208a4.3 4.3 0 0 0 2.28-.588 3.37 3.37 0 0 0 1.392-1.668v-1.776h-3.552q-2.928 0-2.928 1.968a1.78 1.78 0 0 0 .744 1.512 3.4 3.4 0 0 0 2.064.552m21 .888a3.4 3.4 0 0 1-1.248.66 5.2 5.2 0 0 1-1.536.228 4.08 4.08 0 0 1-2.972-1.032 3.94 3.94 0 0 1-1.06-2.952v-6.984h-2.16v-1.9h2.16v-2.776h2.3V89.8h3.648v1.9h-3.648v6.888a2.24 2.24 0 0 0 .516 1.584 1.92 1.92 0 0 0 1.476.552 2.78 2.78 0 0 0 1.8-.6Zm11.016-12.1a5.75 5.75 0 0 1 4.044 1.3 5 5 0 0 1 1.4 3.864v7.68h-2.184v-1.68a3.64 3.64 0 0 1-1.644 1.356 6.3 6.3 0 0 1-2.532.468 5.3 5.3 0 0 1-3.42-1.032 3.31 3.31 0 0 1-1.28-2.712 3.34 3.34 0 0 1 1.224-2.7 6.03 6.03 0 0 1 3.888-1.02h3.648v-.456a2.94 2.94 0 0 0-.864-2.28 3.64 3.64 0 0 0-2.544-.792 6.7 6.7 0 0 0-2.208.372 5.7 5.7 0 0 0-1.824 1l-.96-1.728a7 7 0 0 1 2.352-1.212 9.8 9.8 0 0 1 2.904-.424Zm-.528 11.208a4.3 4.3 0 0 0 2.28-.588 3.37 3.37 0 0 0 1.392-1.668v-1.772h-3.552q-2.928 0-2.928 1.968a1.78 1.78 0 0 0 .744 1.512 3.4 3.4 0 0 0 2.064.552Z" data-name="Pfad 219"/></g></svg>