<svg xmlns="http://www.w3.org/2000/svg" xml:space="preserve" style="fill-rule:evenodd;clip-rule:evenodd;stroke-linejoin:round;stroke-miterlimit:1.41421" viewBox="0 0 4000 1200"><path d="m1424.32 2781.41-3.57 17.43h-26.67l-9.67 51.24c-.7 3.92-1.04 7.07-1.04 9.45 0 6.02 3.28 9.03 9.87 9.03q6.93 0 13.86-1.47l-1.69 18.27c-6.85 1.54-13.64 2.31-20.36 2.31-16.39 0-24.57-7.07-24.57-21.21 0-3.78.48-8.26 1.46-13.44l10.3-54.18h-19.74l3.57-17.43h19.53l6.29-33.18 22.9-4.83-7.36 38.01zm91.12 22.47q0 35.07-66.78 37.38-.84 5.46-.84 10.5c0 7 1.51 11.76 4.52 14.28s8.5 3.78 16.48 3.78q14.91 0 29.82-6.09v17.64q-17.43 6.51-37.17 6.51-36.12 0-36.12-34.65c0-21 5.5-38.57 16.49-52.71s24.81-21.21 41.47-21.21q16.59 0 24.99 7.56 7.14 6.51 7.14 17.01m-22.05 2.94q0-10.71-12.6-10.71-10.71 0-18.69 8.82-7.35 7.98-10.71 20.79 42-1.47 42-18.9m111.28-24.36-5.25 19.53c-5.45-2.52-11.4-3.78-17.84-3.78-11.2 0-20.17 5.46-26.89 16.38-5.74 9.38-8.6 20.3-8.6 32.76q0 20.58 20.16 20.58 11.97 0 21.84-4.62l-1.69 19.74q-13.44 4.62-26.46 4.62c-24.91 0-37.37-11.76-37.37-35.28 0-20.58 5.38-37.73 16.17-51.45q16.785-21.42 44.31-21.42c7.42 0 14.62.98 21.62 2.94" style="fill:#ffb500;fill-rule:nonzero" transform="translate(-5531.038 -11223)scale(4.16667)"/><path d="M1755.31 2885.78h-35.62l-54.6-75.92h-1.3v75.92h-28.34v-175.5c11.26-.69 26.95-1.04 47.06-1.04 40.9 0 61.36 15.86 61.36 47.58 0 13.7-4.6 24.92-13.78 33.67-9.19 8.76-21.15 13.91-35.88 15.47q5.19 6.51 14.82 18.72zm-41.08-125.84c0-18.37-11.88-27.56-35.62-27.56-4.34 0-9.28.18-14.82.52v55.64c3.46.35 8.06.52 13.78.52 11.26 0 20.19-2.64 26.78-7.93 6.58-5.28 9.88-12.35 9.88-21.19m181.8 125.84h-31.2l-9.62-26.26h-56.42l-9.88 26.26h-28.08l51.22-135.2h33.02zm-47.84-46.54-14.04-37.96c-2.6-6.76-4.94-13.86-7.02-21.32h-.26c-1.38 5.9-3.64 12.92-6.76 21.06l-14.56 38.22zm153.64 42.38c-11.44 3.99-23.57 5.98-36.4 5.98q-32.505 0-49.92-17.94c-11.09-11.44-16.64-27.64-16.64-48.62 0-20.62 5.81-37.44 17.42-50.44q19.5-21.84 55.38-21.84c10.92 0 20.63 1.22 29.12 3.64l-2.6 24.7c-9.53-3.12-19.07-4.68-28.6-4.68-13 0-23.05 4.25-30.16 12.74-7.11 8.5-10.66 19.59-10.66 33.28 0 14.39 3.68 25.4 11.05 33.02 7.37 7.63 17.81 11.44 31.33 11.44 10.23 0 19.67-2.08 28.34-6.24zm99.82 4.16h-79.56v-135.2h79.56v22.1h-51.48v33.02h49.14v21.32h-49.14v36.4h51.48zm120.37 0h-34.58l-38.74-55.64h-1.3v55.64h-28.08v-135.2c9.88-.52 24.61-.78 44.2-.78 33.97 0 50.96 12.48 50.96 37.44 0 10.75-3.34 19.46-10.01 26.13-6.67 6.68-15.64 10.88-26.91 12.61.7.7 4.33 5.55 10.92 14.56zm-37.18-95.68c0-12.48-8.49-18.72-25.48-18.72-5.54 0-9.53.18-11.96.52v39c5.2.35 9.53.52 13 .52 7.46 0 13.39-1.95 17.81-5.85s6.63-9.05 6.63-15.47" style="fill:#00263e;fill-rule:nonzero" transform="translate(-5531.038 -11223)scale(4.16667)"/><path d="m5806.45 11736.3-4.5 16.5c-7.33-2.5-14.61-3.8-21.83-3.8-14.45 0-25.61 6.2-33.5 18.6-6.56 10.5-9.84 23.2-9.84 38 0 17.3 8.84 25.9 26.5 25.9 9 0 17.34-1.7 25-5l-1.16 16.5c-9.34 3.2-19.06 4.8-29.17 4.8-27.44 0-41.17-12.9-41.17-38.8 0-20.9 5.5-38.5 16.5-52.7 12.11-15.5 28.39-23.3 48.84-23.3q12.66 0 24.33 3.3m54.83-11.5-23.16 121.7h-17.5l23.16-121.7zm97.17 67.3c0 16.5-5 30-15 40.7-9.56 10.2-20.94 15.3-34.17 15.3-20.89 0-31.33-9.8-31.33-29.6 0-16.6 4.78-30.2 14.33-41 9.34-10.4 20.84-15.5 34.5-15.5 21.11 0 31.67 10 31.67 30.1m-18.5 2c0-11.3-5.28-17-15.83-17-8.11 0-14.89 4.1-20.34 12.2-5 7.6-7.5 16.3-7.5 26.3 0 11.5 5.17 17.2 15.5 17.2 7.89 0 14.56-3.7 20-11.2 5.45-7.5 8.17-16.7 8.17-27.5m126.17-30.5-8.34 43.4c-.66 3.5-3.11 16.7-7.33 39.5h-17.17c1.34-7.1 4.11-17 8.34-29.5l-.34-.2q-14.835 31.5-36.66 31.5c-12.34 0-18.5-6.4-18.5-19.2 0-2.6.33-5.6 1-8.8l10.83-56.7h17.33l-10 52.5c-.55 3.2-.83 5.8-.83 7.9q0 9 7.17 9c6.33 0 13.11-5.8 20.33-17.4 6.67-10.6 11-21.4 13-32.3l3.67-19.7zm111.5-38.8-17.5 91.8c-2.45 13.2-4.28 23.1-5.5 29.9h-17.17c1-5.6 3.89-15.7 8.67-30.4l-.34-.1c-10.89 21.5-23.22 32.3-37 32.3-12.55 0-18.83-8.5-18.83-25.7 0-16.7 4.22-30.6 12.67-41.6 9.44-12.5 22.72-18.7 39.83-18.7 3.44 0 6.89.2 10.33.7l7.17-38.2zm-27.5 52.8c-3.56-1-7.11-1.5-10.67-1.5-10.22 0-18.22 4.9-24 14.5-5 8.3-7.5 17.9-7.5 28.9q0 13.5 7.5 13.5 9.66 0 20.67-17.7c6.44-10.5 10.72-21.1 12.83-31.7zm174-43.6-3 15.1h-40.17l-6.17 32h38.5l-3 14.9h-38.33l-6.67 35h40.34l-2.84 15.5h-58.16l21.33-112.5zm94.66 55.8-10.83 56.7h-17.5l10.17-52.5c.55-3.1.83-5.7.83-7.9q0-9-7.17-9c-6.33 0-13.11 5.8-20.33 17.4-6.67 10.6-11 21.4-13 32.3l-3.67 19.7h-17.5l8.34-43.4c3.11-16.1 5.5-29.2 7.16-39.5h17.34c-1.45 7.4-4.28 17.2-8.5 29.5l.33.2c10.11-21 22.39-31.5 36.83-31.5 12.34 0 18.5 6.4 18.5 19.2 0 2.6-.33 5.6-1 8.8m108.84-25c-7.78 40.5-12.89 67.7-15.34 81.7h-17.33c1.56-7 4.5-17.1 8.83-30.4l-.33-.1c-10.89 21.5-23.22 32.3-37 32.3-12.56 0-18.83-8.5-18.83-25.7 0-16.7 4.22-30.6 12.66-41.6 9.45-12.5 22.73-18.7 39.84-18.7 9.89 0 19.05.8 27.5 2.5m-19.84 12.8c-3.55-1-7.11-1.5-10.66-1.5-10.23 0-18.23 4.9-24 14.5-5 8.3-7.5 17.9-7.5 28.9q0 13.5 7.5 13.5c6.44 0 13.33-5.9 20.66-17.7 6.45-10.5 10.73-21.1 12.84-31.7zm124.17 9.9c0 16.8-4.22 30.6-12.67 41.6-9.44 12.5-22.72 18.7-39.83 18.7-9.89 0-19.06-.9-27.5-2.8l23-120.2h17.33l-7.16 38c-1.11 5.7-4.17 16-9.17 31l.33.2c9.78-21.5 22-32.2 36.67-32.2 12.67 0 19 8.6 19 25.7m-18 3.1q0-13.5-7.5-13.5c-6.56 0-13.44 5.9-20.67 17.5-6.66 10.7-10.94 21.2-12.83 31.5l-1.17 6.4c3.78 1 7.34 1.5 10.67 1.5 10.22 0 18.22-4.9 24-14.5 5-8.2 7.5-17.9 7.5-28.9m82.5-65.8-23.17 121.7h-17.5l23.17-121.7zm56.67 14.7q-.165 4.95-3.75 8.4c-2.39 2.3-5.14 3.4-8.25 3.4s-5.7-1-7.75-3.2c-2.06-2.1-3.03-4.6-2.92-7.5.11-3.3 1.36-6.1 3.75-8.3s5.19-3.3 8.42-3.3c3 0 5.52 1 7.58 3.1 2.06 2 3.03 4.5 2.92 7.4m-7 24.1-15.84 82.9h-17.5l15.84-82.9zm102.83 26.2-10.83 56.7h-17.5l10.16-52.5c.56-3.1.84-5.7.84-7.9q0-9-7.17-9c-6.33 0-13.11 5.8-20.33 17.4-6.67 10.6-11 21.4-13 32.3l-3.67 19.7h-17.5l8.33-43.4c3.11-16.1 5.5-29.2 7.17-39.5h17.33c-1.44 7.4-4.27 17.2-8.5 29.5l.34.2c10.11-21 22.39-31.5 36.83-31.5 12.33 0 18.5 6.4 18.5 19.2 0 2.6-.33 5.6-1 8.8m108.83-25-17 88.2c-4.55 23.8-21 35.6-49.33 35.6-8.44 0-16.17-1.1-23.17-3.3l4.17-16.8c6.67 3.2 14.11 4.8 22.33 4.8 16.67 0 26.5-7.8 29.5-23.3 1.56-8.1 4.67-19.2 9.34-33.4h-.34c-10.66 21.2-22.89 31.7-36.66 31.7-12.56 0-18.84-8.5-18.84-25.7 0-16.7 4.23-30.6 12.67-41.6 9.56-12.5 22.83-18.7 39.83-18.7 9.89 0 19.06.8 27.5 2.5m-19.83 12.8c-3.56-1-7.11-1.5-10.67-1.5-10.22 0-18.22 4.9-24 14.5-5 8.3-7.5 17.9-7.5 28.9q0 13.5 7.5 13.5 9.675 0 20.67-17.7c6.44-10.5 10.72-21.1 12.83-31.7zm191-43.6-48.83 72.3-7.67 40.2h-17.67l7.5-40.2-20.66-72.3h18.66l9.5 35.5c1.56 5.8 3 12.1 4.34 19h.33c1.89-3.5 6.28-10.5 13.17-21.2l21.5-33.3zm87.33 58.1c0 16.5-5 30-15 40.7-9.55 10.2-20.94 15.3-34.16 15.3-20.89 0-31.34-9.8-31.34-29.6 0-16.6 4.78-30.2 14.34-41 9.33-10.4 20.83-15.5 34.5-15.5 21.11 0 31.66 10 31.66 30.1m-18.5 2c0-11.3-5.27-17-15.83-17-8.11 0-14.89 4.1-20.33 12.2-5 7.6-7.5 16.3-7.5 26.3 0 11.5 5.16 17.2 15.5 17.2 7.89 0 14.55-3.7 20-11.2 5.44-7.5 8.16-16.7 8.16-27.5m126.17-30.5-8.33 43.4c-.67 3.5-3.11 16.7-7.34 39.5h-17.16c1.33-7.1 4.11-17 8.33-29.5l-.33-.2c-9.89 21-22.11 31.5-36.67 31.5-12.33 0-18.5-6.4-18.5-19.2 0-2.6.33-5.6 1-8.8l10.83-56.7h17.34l-10 52.5c-.56 3.2-.84 5.8-.84 7.9q0 9 7.17 9c6.33 0 13.11-5.8 20.33-17.4 6.67-10.6 11-21.4 13-32.3l3.67-19.7zm82.5-1.6-3.67 17.1c-.89-.2-1.77-.3-2.66-.3-6.34 0-12.67 5.3-19 15.8-6 9.8-10.17 21-12.5 33.5l-3.5 18.4h-17.5l8.33-43.4c1.78-9.1 4.17-22.2 7.17-39.5h17c-1.23 7.2-3.84 16.5-7.84 28l.34.2c4.77-9.8 9.22-17 13.33-21.7 5.22-5.6 10.89-8.5 17-8.5 1.11 0 2.28.2 3.5.4m152-6.4c0 7.7-2.39 14.4-7.17 20-4.11 5-9.5 8.8-16.16 11.4v.1c4.89 1.2 8.75 3.6 11.58 7.5 2.83 3.8 4.25 8.2 4.25 13.2 0 11-4.33 20.2-13 27.5-9.22 7.8-21.44 11.7-36.67 11.7-2.66 0-7.11-.1-13.33-.2-8.22-.2-13.94-.3-17.17-.3l21.34-112.5c17.33-.4 28.66-.5 34-.5 21.55 0 32.33 7.4 32.33 22.1m-19 4c0-7.7-6-11.6-18-11.6-3.89 0-8.61.1-14.17.3l-6.5 33.3c2 .2 4.95.2 8.84.2 8.77 0 15.94-2 21.5-5.9 5.55-4 8.33-9.4 8.33-16.3m-7.5 49.5c0-9.2-7.17-13.8-21.5-13.8-6.44 0-10.5.1-12.17.2l-6.83 35.8c3 .6 7.11.8 12.33.8 8.78 0 15.78-2.2 21-6.8q7.17-6.45 7.17-16.2m130.5-45.5-8.33 43.4c-.67 3.5-3.11 16.7-7.34 39.5h-17.16c1.33-7.1 4.11-17 8.33-29.5l-.33-.2c-9.89 21-22.11 31.5-36.67 31.5-12.33 0-18.5-6.4-18.5-19.2 0-2.6.33-5.6 1-8.8l10.83-56.7h17.34l-10 52.5c-.56 3.2-.84 5.8-.84 7.9q0 9 7.17 9c6.33 0 13.11-5.8 20.33-17.4 6.67-10.6 11-21.4 13-32.3l3.67-19.7zm77.83-.3-3.33 14c-3.33-1.2-7.28-1.8-11.83-1.8-9.89 0-14.84 3.5-14.84 10.6 0 3.2 2.06 6.5 6.17 10.2 3.67 3.2 7.39 6.5 11.17 9.7 4.11 4.4 6.16 9.3 6.16 14.5 0 7.4-3.05 13.8-9.16 19-6.78 5.8-15.95 8.6-27.5 8.6-5 0-9.73-.4-14.17-1.3l3-15.3c4.56 1.4 8.94 2.1 13.17 2.1 10.89 0 16.33-3.7 16.33-11.3 0-3.2-2-6.5-6-9.8-7.33-6.2-11.11-9.4-11.33-9.5q-6-6.6-6-15c0-7.6 2.83-13.7 8.5-18.5q9.165-7.5 25.5-7.5c5 0 9.72.4 14.16 1.3m63.5-23.8q-.165 4.95-3.75 8.4c-2.39 2.3-5.14 3.4-8.25 3.4s-5.69-1-7.75-3.2q-3.075-3.15-2.91-7.5c.11-3.3 1.36-6.1 3.75-8.3s5.19-3.3 8.41-3.3c3 0 5.53 1 7.59 3.1 2.05 2 3.02 4.5 2.91 7.4m-7 24.1-15.83 82.9h-17.5l15.83-82.9zm102.84 26.2-10.84 56.7h-17.5l10.17-52.5c.56-3.1.83-5.7.83-7.9 0-6-2.39-9-7.16-9-6.34 0-13.11 5.8-20.34 17.4-6.66 10.6-11 21.4-13 32.3l-3.66 19.7h-17.5l8.33-43.4c3.11-16.1 5.5-29.2 7.17-39.5h17.33c-1.44 7.4-4.28 17.2-8.5 29.5l.33.2q15.165-31.5 36.84-31.5c12.33 0 18.5 6.4 18.5 19.2 0 2.6-.34 5.6-1 8.8m100.66-8.3c0 18.5-17.66 28.4-53 29.6q-.66 4.35-.66 8.4c0 5.5 1.19 9.3 3.58 11.3q3.585 3 13.08 3 11.835 0 23.67-4.8v14c-9.22 3.4-19.06 5.1-29.5 5.1-19.11 0-28.67-9.1-28.67-27.5 0-16.6 4.36-30.6 13.09-41.8q13.08-16.8 32.91-16.8c8.78 0 15.39 2 19.84 6 3.77 3.4 5.66 7.9 5.66 13.5m-17.5 2.3c0-5.7-3.33-8.5-10-8.5-5.66 0-10.61 2.3-14.83 7-3.89 4.2-6.72 9.7-8.5 16.5q33.33-1.2 33.33-15m93.84-20.5-3.34 14c-3.33-1.2-7.27-1.8-11.83-1.8-9.89 0-14.83 3.5-14.83 10.6 0 3.2 2.05 6.5 6.16 10.2 3.67 3.2 7.39 6.5 11.17 9.7 4.11 4.4 6.17 9.3 6.17 14.5 0 7.4-3.06 13.8-9.17 19-6.78 5.8-15.94 8.6-27.5 8.6-5 0-9.72-.4-14.17-1.3l3-15.3q6.84 2.1 13.17 2.1c10.89 0 16.33-3.7 16.33-11.3 0-3.2-2-6.5-6-9.8-7.33-6.2-11.11-9.4-11.33-9.5q-6-6.6-6-15c0-7.6 2.83-13.7 8.5-18.5q9.165-7.5 25.5-7.5c5 0 9.72.4 14.17 1.3m77.33 0-3.33 14c-3.34-1.2-7.28-1.8-11.84-1.8-9.89 0-14.83 3.5-14.83 10.6 0 3.2 2.06 6.5 6.17 10.2 3.66 3.2 7.39 6.5 11.16 9.7 4.11 4.4 6.17 9.3 6.17 14.5 0 7.4-3.06 13.8-9.17 19-6.77 5.8-15.94 8.6-27.5 8.6-5 0-9.72-.4-14.16-1.3l3-15.3c4.55 1.4 8.94 2.1 13.16 2.1 10.89 0 16.34-3.7 16.34-11.3 0-3.2-2-6.5-6-9.8-7.34-6.2-11.11-9.4-11.34-9.5q-6-6.6-6-15c0-7.6 2.84-13.7 8.5-18.5q9.165-7.5 25.5-7.5c5 0 9.73.4 14.17 1.3" style="fill:#06263d;fill-rule:nonzero" transform="translate(-4429.45 -10798.733)"/></svg>