<svg xmlns="http://www.w3.org/2000/svg" xmlns:xlink="http://www.w3.org/1999/xlink" xml:space="preserve" viewBox="0 0 614.8 223"><defs><path id="a" d="M0 0h614.8v220.9H0z"/></defs><clipPath id="b"><use xlink:href="#a" style="overflow:visible"/></clipPath><g style="clip-path:url(#b)"><path d="M281.3 141.9 260.1 83c-.3-.8-.7-1.9-.7-2.8 0-2.6 2.2-5 5.3-5 2.7 0 4.5 1.8 5.3 4.3l17.5 50.8 17.7-50.9c.8-2.4 2.4-4.2 5.1-4.2h.5c2.8 0 4.6 1.8 5.4 4.2l17.5 50.9 17.8-51.1c.7-2.2 2.2-4 5-4 3 0 5.1 2.3 5.1 4.9 0 .9-.4 2-.7 2.8L339.6 142c-1.1 3.1-3.2 4.7-5.7 4.7h-.4c-2.7 0-4.7-1.6-5.7-4.7l-17.4-50.1-17.4 50c-.9 3.1-3 4.7-5.7 4.7h-.3c-2.5 0-4.6-1.6-5.7-4.7m154.3-61.6c0-2.8 2.3-5.3 5.1-5.3 3 0 5.3 2.3 5.3 5.3v12c5.1-11.6 16.5-17.1 24-17.1 3.1 0 5.1 2.3 5.1 5.3 0 2.8-1.9 4.9-4.6 5.3-13.5 1.6-24.6 11.8-24.6 31.9v23.7c0 2.8-2.2 5.3-5.1 5.3-3 0-5.3-2.3-5.3-5.3V80.3m73.1 66.8c-18.8 0-34.2-14.6-34.2-36v-.3c0-19.9 13.9-36 32.8-36 20.2 0 31.8 16.7 31.8 35 0 2.8-2.3 4.8-4.8 4.8h-49.5c1.4 15 11.9 23.4 24.1 23.4 8.5 0 14.7-3.3 19.7-8 .8-.7 1.7-1.2 2.9-1.2 2.5 0 4.5 2 4.5 4.4 0 1.2-.5 2.4-1.6 3.3-6.4 6.5-14.1 10.6-25.7 10.6m20.2-39.9c-1.1-12.6-8.2-23.5-21.8-23.5-11.9 0-20.9 10-22.2 23.5zm-166.9 18.3v-.3c0-14.7 12.1-22.5 29.8-22.5 8.9 0 15.2 1.2 21.4 3v-2.4c0-12.5-7.7-19-20.7-19-7 0-11.1.9-16.2 3.2-.7.3-1.4.4-1.9.4-2.4 0-4.6-2-4.6-4.4 0-2.2.9-3.5 2.8-4.3 6.9-3 12-4 20.9-4 9.8 0 17.4 2.5 22.5 7.7 4.7 4.7 7.1 11.4 7.1 20.3v38.4c0 3-2.2 5.1-5 5.1-3 0-5-2.2-5-4.9v-6.6c-4.9 6.3-12.9 12-25.2 12-12.8 0-25.9-7.4-25.9-21.7m51.3-5.4v-6.7c-5.1-1.5-12-3-20.5-3-13 0-20.3 5.7-20.3 14.4v.3c0 8.7 8.1 13.9 17.5 13.9 12.8 0 23.3-7.9 23.3-18.9M92.6 79.5c-2.3-5-7.9-7.3-13.2-4.9-5.3 2.3-7.2 8.2-4.8 13.2l22.1 48c3.5 7.5 7.1 11.5 14 11.5 7.3 0 10.5-4.3 14-11.5 0 0 19.3-42 19.5-42.4.2-.5.8-1.8 2.8-1.8 1.7 0 3.1 1.3 3.1 3.1v41.1c0 6.3 3.5 11.5 10.3 11.5 6.7 0 10.4-5.2 10.4-11.5v-33.6c0-6.5 4.6-10.7 11-10.7 6.3 0 10.5 4.3 10.5 10.7v33.6c0 6.3 3.5 11.5 10.3 11.5 6.7 0 10.4-5.2 10.4-11.5v-33.6c0-6.5 4.6-10.7 11-10.7 6.3 0 10.5 4.3 10.5 10.7v33.6c0 6.3 3.5 11.5 10.3 11.5 6.7 0 10.4-5.2 10.4-11.5V97.5c0-14.1-11.3-23.9-24.9-23.9S208.2 83 208.2 83c-4.5-5.9-10.8-9.4-21.3-9.4-11.1 0-20.9 9.4-20.9 9.4-4.5-5.9-12.2-9.4-18.6-9.4-9.9 0-17.7 4.3-22.5 15.3l-14.1 33.3zm447.2 4.2c0-4.8 3.8-8.7 8.6-8.7 4.9 0 8.6 3.9 8.6 8.6s-3.8 8.7-8.6 8.7-8.6-3.9-8.6-8.6m15.6-.1c0-3.9-3-7.1-7-7.1-3.9 0-7 3.2-7 7.1v.1c0 3.9 3 7 7 7s7-3.3 7-7.1"/><path d="M545.2 80.2c0-.5.4-.9.9-.9h2.9q1.65 0 2.4.9c.5.5.7 1.1.7 1.9 0 1.3-.7 2.1-1.7 2.5l1.3 1.5c.2.2.3.4.3.7 0 .5-.4.8-.9.8-.4 0-.7-.2-.9-.5l-1.8-2.3H547v1.8c0 .5-.4.9-.9.9s-.9-.4-.9-.9zm3.7 3.1c.9 0 1.4-.5 1.4-1.2 0-.8-.5-1.2-1.4-1.2H547v2.4z"/></g></svg>