<svg xmlns="http://www.w3.org/2000/svg" xml:space="preserve" style="enable-background:new 0 0 360 300" viewBox="0 0 360 300"><path d="M251.1 112.1c0-33.9-35.7-30.2-39.4-40.4-6.1-16.7-24.7-33-46.7-33-22 0-34.8 17.1-40 29.9-5.5 13.6-42.9 13-45.7 36.4-3.4 28.6 25.8 39.8 52 39.8h79.9c22.1 0 39.9-10.7 39.9-32.7z" style="fill:#f6b0a3"/><path d="M315.6 259.1c-24.6-14.4-21.6-17.5-44.1-21.8-22.6-4.4-25.7-19.2-34.9-57.3-9.2-38.1-50.3-72.8-63.5-74.8-13.1-2.1-15.6 30.8-31 44.1s-33.9 57.5-44.1 72.9c-6.6 10-35.3 25.6-57.7 39.2h279.5c-1.4-.8-2.8-1.5-4.2-2.3z" style="opacity:.8;fill:#92a9af"/><path d="M178.3 168.7c6.2-10.5 2.2-18.9-5.2-29.3-7.4-10.5 0-34.3 0-34.3-13.1-2.1-15.6 30.8-31 44.1s-33.9 57.5-44.1 72.9c-6.6 10-35.3 25.6-57.7 39.2h115.5c-6.1-17.7 16.6-82.6 22.5-92.6z" style="opacity:.8;fill:#4b4596"/></svg>